%TF.GenerationSoftware,KiCad,Pcbnew,(6.0.7)*%
%TF.CreationDate,2022-10-13T18:06:49+02:00*%
%TF.ProjectId,TMC6300-dev,544d4336-3330-4302-9d64-65762e6b6963,rev?*%
%TF.SameCoordinates,Original*%
%TF.FileFunction,Drillmap*%
%TF.FilePolarity,Positive*%
%FSLAX45Y45*%
G04 Gerber Fmt 4.5, Leading zero omitted, Abs format (unit mm)*
G04 Created by KiCad (PCBNEW (6.0.7)) date 2022-10-13 18:06:49*
%MOMM*%
%LPD*%
G01*
G04 APERTURE LIST*
%ADD10C,0.050000*%
%ADD11C,0.200000*%
%ADD12C,0.020000*%
%ADD13C,0.040000*%
%ADD14C,0.115000*%
%ADD15C,0.130000*%
%ADD16C,0.320000*%
G04 APERTURE END LIST*
D10*
X17900000Y-12300000D02*
X13700000Y-12300000D01*
X13700000Y-7700000D02*
X17900000Y-7700000D01*
X13300000Y-11900000D02*
G75*
G03*
X13700000Y-12300000I400000J0D01*
G01*
X13700000Y-7700000D02*
G75*
G03*
X13300000Y-8100000I0J-400000D01*
G01*
X13300000Y-11900000D02*
X13300000Y-8100000D01*
X17900000Y-12300000D02*
G75*
G03*
X18300000Y-11900000I0J400000D01*
G01*
X18300000Y-8100000D02*
X18300000Y-11900000D01*
X18300000Y-8100000D02*
G75*
G03*
X17900000Y-7700000I-400000J0D01*
G01*
D11*
D12*
X14275000Y-11205000D02*
X14295000Y-11225000D01*
X14295000Y-11205000D02*
X14275000Y-11225000D01*
X14313000Y-10463000D02*
X14333000Y-10483000D01*
X14333000Y-10463000D02*
X14313000Y-10483000D01*
X14500000Y-9060000D02*
X14520000Y-9080000D01*
X14520000Y-9060000D02*
X14500000Y-9080000D01*
X14500000Y-9320000D02*
X14520000Y-9340000D01*
X14520000Y-9320000D02*
X14500000Y-9340000D01*
X14550000Y-9060000D02*
X14570000Y-9080000D01*
X14570000Y-9060000D02*
X14550000Y-9080000D01*
X14550000Y-9320000D02*
X14570000Y-9340000D01*
X14570000Y-9320000D02*
X14550000Y-9340000D01*
X14605000Y-10780000D02*
X14625000Y-10800000D01*
X14625000Y-10780000D02*
X14605000Y-10800000D01*
X14630000Y-9130000D02*
X14650000Y-9150000D01*
X14650000Y-9130000D02*
X14630000Y-9150000D01*
X14630000Y-9250000D02*
X14650000Y-9270000D01*
X14650000Y-9250000D02*
X14630000Y-9270000D01*
X14680000Y-10310000D02*
X14700000Y-10330000D01*
X14700000Y-10310000D02*
X14680000Y-10330000D01*
X14690000Y-9190000D02*
X14710000Y-9210000D01*
X14710000Y-9190000D02*
X14690000Y-9210000D01*
X14750000Y-9130000D02*
X14770000Y-9150000D01*
X14770000Y-9130000D02*
X14750000Y-9150000D01*
X14750000Y-9250000D02*
X14770000Y-9270000D01*
X14770000Y-9250000D02*
X14750000Y-9270000D01*
X14840000Y-9010000D02*
X14860000Y-9030000D01*
X14860000Y-9010000D02*
X14840000Y-9030000D01*
X14920000Y-8880000D02*
X14940000Y-8900000D01*
X14940000Y-8880000D02*
X14920000Y-8900000D01*
X15130000Y-11820000D02*
X15150000Y-11840000D01*
X15150000Y-11820000D02*
X15130000Y-11840000D01*
X15130000Y-11920000D02*
X15150000Y-11940000D01*
X15150000Y-11920000D02*
X15130000Y-11940000D01*
X15170000Y-9020000D02*
X15190000Y-9040000D01*
X15190000Y-9020000D02*
X15170000Y-9040000D01*
X15170000Y-9140000D02*
X15190000Y-9160000D01*
X15190000Y-9140000D02*
X15170000Y-9160000D01*
X15170000Y-9260000D02*
X15190000Y-9280000D01*
X15190000Y-9260000D02*
X15170000Y-9280000D01*
X15170000Y-9380000D02*
X15190000Y-9400000D01*
X15190000Y-9380000D02*
X15170000Y-9400000D01*
X15170000Y-9500000D02*
X15190000Y-9520000D01*
X15190000Y-9500000D02*
X15170000Y-9520000D01*
X15170000Y-9620000D02*
X15190000Y-9640000D01*
X15190000Y-9620000D02*
X15170000Y-9640000D01*
X15205000Y-9200000D02*
X15225000Y-9220000D01*
X15225000Y-9200000D02*
X15205000Y-9220000D01*
X15305000Y-9100000D02*
X15325000Y-9120000D01*
X15325000Y-9100000D02*
X15305000Y-9120000D01*
X15610000Y-8960000D02*
X15630000Y-8980000D01*
X15630000Y-8960000D02*
X15610000Y-8980000D01*
X15740000Y-9130000D02*
X15760000Y-9150000D01*
X15760000Y-9130000D02*
X15740000Y-9150000D01*
X15760000Y-9630000D02*
X15780000Y-9650000D01*
X15780000Y-9630000D02*
X15760000Y-9650000D01*
X15760000Y-10000000D02*
X15780000Y-10020000D01*
X15780000Y-10000000D02*
X15760000Y-10020000D01*
X15830000Y-10270000D02*
X15850000Y-10290000D01*
X15850000Y-10270000D02*
X15830000Y-10290000D01*
X15880000Y-10320000D02*
X15900000Y-10340000D01*
X15900000Y-10320000D02*
X15880000Y-10340000D01*
X16030000Y-10220000D02*
X16050000Y-10240000D01*
X16050000Y-10220000D02*
X16030000Y-10240000D01*
X16030000Y-10460000D02*
X16050000Y-10480000D01*
X16050000Y-10460000D02*
X16030000Y-10480000D01*
X16060000Y-10270000D02*
X16080000Y-10290000D01*
X16080000Y-10270000D02*
X16060000Y-10290000D01*
X16110000Y-10310000D02*
X16130000Y-10330000D01*
X16130000Y-10310000D02*
X16110000Y-10330000D01*
X16200000Y-10460000D02*
X16220000Y-10480000D01*
X16220000Y-10460000D02*
X16200000Y-10480000D01*
X16375000Y-10490000D02*
X16395000Y-10510000D01*
X16395000Y-10490000D02*
X16375000Y-10510000D01*
X16375000Y-10590000D02*
X16395000Y-10610000D01*
X16395000Y-10590000D02*
X16375000Y-10610000D01*
X16450000Y-8772000D02*
X16470000Y-8792000D01*
X16470000Y-8772000D02*
X16450000Y-8792000D01*
X16452000Y-8868000D02*
X16472000Y-8888000D01*
X16472000Y-8868000D02*
X16452000Y-8888000D01*
X16550000Y-10270000D02*
X16570000Y-10290000D01*
X16570000Y-10270000D02*
X16550000Y-10290000D01*
X16550000Y-10815000D02*
X16570000Y-10835000D01*
X16570000Y-10815000D02*
X16550000Y-10835000D01*
X16750000Y-10815000D02*
X16770000Y-10835000D01*
X16770000Y-10815000D02*
X16750000Y-10835000D01*
X16880000Y-9720000D02*
X16900000Y-9740000D01*
X16900000Y-9720000D02*
X16880000Y-9740000D01*
X16950000Y-10420000D02*
X16970000Y-10440000D01*
X16970000Y-10420000D02*
X16950000Y-10440000D01*
X16950000Y-10640000D02*
X16970000Y-10660000D01*
X16970000Y-10640000D02*
X16950000Y-10660000D01*
X17005000Y-10710000D02*
X17025000Y-10730000D01*
X17025000Y-10710000D02*
X17005000Y-10730000D01*
X17040000Y-8590000D02*
X17060000Y-8610000D01*
X17060000Y-8590000D02*
X17040000Y-8610000D01*
X17065000Y-9962000D02*
X17085000Y-9982000D01*
X17085000Y-9962000D02*
X17065000Y-9982000D01*
X17065000Y-10235000D02*
X17085000Y-10255000D01*
X17085000Y-10235000D02*
X17065000Y-10255000D01*
X17070000Y-8876000D02*
X17090000Y-8896000D01*
X17090000Y-8876000D02*
X17070000Y-8896000D01*
X17100000Y-9220000D02*
X17120000Y-9240000D01*
X17120000Y-9220000D02*
X17100000Y-9240000D01*
X17130000Y-10430000D02*
X17150000Y-10450000D01*
X17150000Y-10430000D02*
X17130000Y-10450000D01*
X17130000Y-10650000D02*
X17150000Y-10670000D01*
X17150000Y-10650000D02*
X17130000Y-10670000D01*
D13*
X14310000Y-10915000D02*
G75*
G03*
X14310000Y-10915000I-20000J0D01*
G01*
X14310000Y-11050000D02*
G75*
G03*
X14310000Y-11050000I-20000J0D01*
G01*
X14375000Y-10565000D02*
G75*
G03*
X14375000Y-10565000I-20000J0D01*
G01*
X14375000Y-10645000D02*
G75*
G03*
X14375000Y-10645000I-20000J0D01*
G01*
X14415000Y-9235000D02*
G75*
G03*
X14415000Y-9235000I-20000J0D01*
G01*
X14415000Y-9315000D02*
G75*
G03*
X14415000Y-9315000I-20000J0D01*
G01*
X14430000Y-10915000D02*
G75*
G03*
X14430000Y-10915000I-20000J0D01*
G01*
X14430000Y-11050000D02*
G75*
G03*
X14430000Y-11050000I-20000J0D01*
G01*
X14520000Y-9790000D02*
G75*
G03*
X14520000Y-9790000I-20000J0D01*
G01*
X14520000Y-9940000D02*
G75*
G03*
X14520000Y-9940000I-20000J0D01*
G01*
X14550000Y-10915000D02*
G75*
G03*
X14550000Y-10915000I-20000J0D01*
G01*
X14550000Y-11050000D02*
G75*
G03*
X14550000Y-11050000I-20000J0D01*
G01*
X14600000Y-9790000D02*
G75*
G03*
X14600000Y-9790000I-20000J0D01*
G01*
X14600000Y-9940000D02*
G75*
G03*
X14600000Y-9940000I-20000J0D01*
G01*
X14835000Y-10640000D02*
G75*
G03*
X14835000Y-10640000I-20000J0D01*
G01*
X14835000Y-10720000D02*
G75*
G03*
X14835000Y-10720000I-20000J0D01*
G01*
X14935000Y-11245000D02*
G75*
G03*
X14935000Y-11245000I-20000J0D01*
G01*
X15030000Y-11060000D02*
G75*
G03*
X15030000Y-11060000I-20000J0D01*
G01*
X15030000Y-11150000D02*
G75*
G03*
X15030000Y-11150000I-20000J0D01*
G01*
X15030000Y-11245000D02*
G75*
G03*
X15030000Y-11245000I-20000J0D01*
G01*
X15040000Y-10465000D02*
G75*
G03*
X15040000Y-10465000I-20000J0D01*
G01*
X15040000Y-10555000D02*
G75*
G03*
X15040000Y-10555000I-20000J0D01*
G01*
X15040000Y-10645000D02*
G75*
G03*
X15040000Y-10645000I-20000J0D01*
G01*
X15090000Y-10140000D02*
G75*
G03*
X15090000Y-10140000I-20000J0D01*
G01*
X15120000Y-11245000D02*
G75*
G03*
X15120000Y-11245000I-20000J0D01*
G01*
X15125000Y-11060000D02*
G75*
G03*
X15125000Y-11060000I-20000J0D01*
G01*
X15125000Y-11150000D02*
G75*
G03*
X15125000Y-11150000I-20000J0D01*
G01*
X15135000Y-10465000D02*
G75*
G03*
X15135000Y-10465000I-20000J0D01*
G01*
X15135000Y-10555000D02*
G75*
G03*
X15135000Y-10555000I-20000J0D01*
G01*
X15135000Y-10645000D02*
G75*
G03*
X15135000Y-10645000I-20000J0D01*
G01*
X15180000Y-10140000D02*
G75*
G03*
X15180000Y-10140000I-20000J0D01*
G01*
X15252500Y-9987500D02*
G75*
G03*
X15252500Y-9987500I-20000J0D01*
G01*
X15407500Y-9990000D02*
G75*
G03*
X15407500Y-9990000I-20000J0D01*
G01*
X15662000Y-8742000D02*
G75*
G03*
X15662000Y-8742000I-20000J0D01*
G01*
X15758000Y-8742000D02*
G75*
G03*
X15758000Y-8742000I-20000J0D01*
G01*
X16252000Y-10060000D02*
G75*
G03*
X16252000Y-10060000I-20000J0D01*
G01*
X16348000Y-10060000D02*
G75*
G03*
X16348000Y-10060000I-20000J0D01*
G01*
X16570000Y-9330000D02*
G75*
G03*
X16570000Y-9330000I-20000J0D01*
G01*
X16660000Y-9702000D02*
G75*
G03*
X16660000Y-9702000I-20000J0D01*
G01*
X16660000Y-9798000D02*
G75*
G03*
X16660000Y-9798000I-20000J0D01*
G01*
X16680000Y-10595000D02*
G75*
G03*
X16680000Y-10595000I-20000J0D01*
G01*
X17100000Y-9090000D02*
G75*
G03*
X17100000Y-9090000I-20000J0D01*
G01*
X17240000Y-9820000D02*
G75*
G03*
X17240000Y-9820000I-20000J0D01*
G01*
X17240000Y-9910000D02*
G75*
G03*
X17240000Y-9910000I-20000J0D01*
G01*
X17330000Y-9820000D02*
G75*
G03*
X17330000Y-9820000I-20000J0D01*
G01*
X17330000Y-9910000D02*
G75*
G03*
X17330000Y-9910000I-20000J0D01*
G01*
D10*
X13460000Y-8075000D02*
X13460000Y-8125000D01*
X13435000Y-8100000D02*
X13485000Y-8100000D01*
X13460000Y-11875000D02*
X13460000Y-11925000D01*
X13435000Y-11900000D02*
X13485000Y-11900000D01*
X13530294Y-7905294D02*
X13530294Y-7955294D01*
X13505294Y-7930294D02*
X13555294Y-7930294D01*
X13530294Y-8244706D02*
X13530294Y-8294706D01*
X13505294Y-8269706D02*
X13555294Y-8269706D01*
X13530294Y-11705294D02*
X13530294Y-11755294D01*
X13505294Y-11730294D02*
X13555294Y-11730294D01*
X13530294Y-12044706D02*
X13530294Y-12094706D01*
X13505294Y-12069706D02*
X13555294Y-12069706D01*
X13700000Y-7835000D02*
X13700000Y-7885000D01*
X13675000Y-7860000D02*
X13725000Y-7860000D01*
X13700000Y-8315000D02*
X13700000Y-8365000D01*
X13675000Y-8340000D02*
X13725000Y-8340000D01*
X13700000Y-11635000D02*
X13700000Y-11685000D01*
X13675000Y-11660000D02*
X13725000Y-11660000D01*
X13700000Y-12115000D02*
X13700000Y-12165000D01*
X13675000Y-12140000D02*
X13725000Y-12140000D01*
X13869706Y-7905294D02*
X13869706Y-7955294D01*
X13844706Y-7930294D02*
X13894706Y-7930294D01*
X13869706Y-8244706D02*
X13869706Y-8294706D01*
X13844706Y-8269706D02*
X13894706Y-8269706D01*
X13869706Y-11705294D02*
X13869706Y-11755294D01*
X13844706Y-11730294D02*
X13894706Y-11730294D01*
X13869706Y-12044706D02*
X13869706Y-12094706D01*
X13844706Y-12069706D02*
X13894706Y-12069706D01*
X13940000Y-8075000D02*
X13940000Y-8125000D01*
X13915000Y-8100000D02*
X13965000Y-8100000D01*
X13940000Y-11875000D02*
X13940000Y-11925000D01*
X13915000Y-11900000D02*
X13965000Y-11900000D01*
X17660000Y-8075000D02*
X17660000Y-8125000D01*
X17635000Y-8100000D02*
X17685000Y-8100000D01*
X17660000Y-11875000D02*
X17660000Y-11925000D01*
X17635000Y-11900000D02*
X17685000Y-11900000D01*
X17730294Y-7905294D02*
X17730294Y-7955294D01*
X17705294Y-7930294D02*
X17755294Y-7930294D01*
X17730294Y-8244706D02*
X17730294Y-8294706D01*
X17705294Y-8269706D02*
X17755294Y-8269706D01*
X17730294Y-11705294D02*
X17730294Y-11755294D01*
X17705294Y-11730294D02*
X17755294Y-11730294D01*
X17730294Y-12044706D02*
X17730294Y-12094706D01*
X17705294Y-12069706D02*
X17755294Y-12069706D01*
X17900000Y-7835000D02*
X17900000Y-7885000D01*
X17875000Y-7860000D02*
X17925000Y-7860000D01*
X17900000Y-8315000D02*
X17900000Y-8365000D01*
X17875000Y-8340000D02*
X17925000Y-8340000D01*
X17900000Y-11635000D02*
X17900000Y-11685000D01*
X17875000Y-11660000D02*
X17925000Y-11660000D01*
X17900000Y-12115000D02*
X17900000Y-12165000D01*
X17875000Y-12140000D02*
X17925000Y-12140000D01*
X18069706Y-7905294D02*
X18069706Y-7955294D01*
X18044706Y-7930294D02*
X18094706Y-7930294D01*
X18069706Y-8244706D02*
X18069706Y-8294706D01*
X18044706Y-8269706D02*
X18094706Y-8269706D01*
X18069706Y-11705294D02*
X18069706Y-11755294D01*
X18044706Y-11730294D02*
X18094706Y-11730294D01*
X18069706Y-12044706D02*
X18069706Y-12094706D01*
X18044706Y-12069706D02*
X18094706Y-12069706D01*
X18140000Y-8075000D02*
X18140000Y-8125000D01*
X18115000Y-8100000D02*
X18165000Y-8100000D01*
X18140000Y-11875000D02*
X18140000Y-11925000D01*
X18115000Y-11900000D02*
X18165000Y-11900000D01*
D14*
X14310659Y-12160659D02*
X14310659Y-12079341D01*
X14229341Y-12079341D01*
X14229341Y-12160659D01*
X14310659Y-12160659D01*
X14320659Y-7940659D02*
X14320659Y-7859341D01*
X14239341Y-7859341D01*
X14239341Y-7940659D01*
X14320659Y-7940659D01*
X14564659Y-12160659D02*
X14564659Y-12079341D01*
X14483341Y-12079341D01*
X14483341Y-12160659D01*
X14564659Y-12160659D01*
X14574659Y-7940659D02*
X14574659Y-7859341D01*
X14493341Y-7859341D01*
X14493341Y-7940659D01*
X14574659Y-7940659D01*
X14818659Y-12160659D02*
X14818659Y-12079341D01*
X14737341Y-12079341D01*
X14737341Y-12160659D01*
X14818659Y-12160659D01*
X14828659Y-7940659D02*
X14828659Y-7859341D01*
X14747341Y-7859341D01*
X14747341Y-7940659D01*
X14828659Y-7940659D01*
X15072659Y-12160659D02*
X15072659Y-12079341D01*
X14991341Y-12079341D01*
X14991341Y-12160659D01*
X15072659Y-12160659D01*
X15160659Y-7940659D02*
X15160659Y-7859341D01*
X15079341Y-7859341D01*
X15079341Y-7940659D01*
X15160659Y-7940659D01*
X15326659Y-12160659D02*
X15326659Y-12079341D01*
X15245341Y-12079341D01*
X15245341Y-12160659D01*
X15326659Y-12160659D01*
X15414659Y-7940659D02*
X15414659Y-7859341D01*
X15333341Y-7859341D01*
X15333341Y-7940659D01*
X15414659Y-7940659D01*
X15580659Y-12160659D02*
X15580659Y-12079341D01*
X15499341Y-12079341D01*
X15499341Y-12160659D01*
X15580659Y-12160659D01*
X15668659Y-7940659D02*
X15668659Y-7859341D01*
X15587341Y-7859341D01*
X15587341Y-7940659D01*
X15668659Y-7940659D01*
X16000659Y-7940659D02*
X16000659Y-7859341D01*
X15919341Y-7859341D01*
X15919341Y-7940659D01*
X16000659Y-7940659D01*
X16100659Y-12160659D02*
X16100659Y-12079341D01*
X16019341Y-12079341D01*
X16019341Y-12160659D01*
X16100659Y-12160659D01*
X16254659Y-7940659D02*
X16254659Y-7859341D01*
X16173341Y-7859341D01*
X16173341Y-7940659D01*
X16254659Y-7940659D01*
X16354659Y-12160659D02*
X16354659Y-12079341D01*
X16273341Y-12079341D01*
X16273341Y-12160659D01*
X16354659Y-12160659D01*
X16508659Y-7940659D02*
X16508659Y-7859341D01*
X16427341Y-7859341D01*
X16427341Y-7940659D01*
X16508659Y-7940659D01*
X16608659Y-12160659D02*
X16608659Y-12079341D01*
X16527341Y-12079341D01*
X16527341Y-12160659D01*
X16608659Y-12160659D01*
X16840659Y-7940659D02*
X16840659Y-7859341D01*
X16759341Y-7859341D01*
X16759341Y-7940659D01*
X16840659Y-7940659D01*
X16862659Y-12160659D02*
X16862659Y-12079341D01*
X16781341Y-12079341D01*
X16781341Y-12160659D01*
X16862659Y-12160659D01*
X17094659Y-7940659D02*
X17094659Y-7859341D01*
X17013341Y-7859341D01*
X17013341Y-7940659D01*
X17094659Y-7940659D01*
X17116659Y-12160659D02*
X17116659Y-12079341D01*
X17035341Y-12079341D01*
X17035341Y-12160659D01*
X17116659Y-12160659D01*
X17348659Y-7940659D02*
X17348659Y-7859341D01*
X17267341Y-7859341D01*
X17267341Y-7940659D01*
X17348659Y-7940659D01*
X17370659Y-12160659D02*
X17370659Y-12079341D01*
X17289341Y-12079341D01*
X17289341Y-12160659D01*
X17370659Y-12160659D01*
D15*
X13800000Y-8967000D02*
X13865000Y-8902000D01*
X13800000Y-8837000D01*
X13735000Y-8902000D01*
X13800000Y-8967000D01*
X13800000Y-9475000D02*
X13865000Y-9410000D01*
X13800000Y-9345000D01*
X13735000Y-9410000D01*
X13800000Y-9475000D01*
X13800000Y-9983000D02*
X13865000Y-9918000D01*
X13800000Y-9853000D01*
X13735000Y-9918000D01*
X13800000Y-9983000D01*
X13800000Y-10641000D02*
X13865000Y-10576000D01*
X13800000Y-10511000D01*
X13735000Y-10576000D01*
X13800000Y-10641000D01*
X13800000Y-11149000D02*
X13865000Y-11084000D01*
X13800000Y-11019000D01*
X13735000Y-11084000D01*
X13800000Y-11149000D01*
D16*
X13540000Y-7940000D02*
X13860000Y-8260000D01*
X13860000Y-7940000D02*
X13540000Y-8260000D01*
X13860000Y-8100000D02*
G75*
G03*
X13860000Y-8100000I-160000J0D01*
G01*
X13540000Y-11740000D02*
X13860000Y-12060000D01*
X13860000Y-11740000D02*
X13540000Y-12060000D01*
X13860000Y-11900000D02*
G75*
G03*
X13860000Y-11900000I-160000J0D01*
G01*
X17740000Y-7940000D02*
X18060000Y-8260000D01*
X18060000Y-7940000D02*
X17740000Y-8260000D01*
X18060000Y-8100000D02*
G75*
G03*
X18060000Y-8100000I-160000J0D01*
G01*
X17740000Y-11740000D02*
X18060000Y-12060000D01*
X18060000Y-11740000D02*
X17740000Y-12060000D01*
X18060000Y-11900000D02*
G75*
G03*
X18060000Y-11900000I-160000J0D01*
G01*
D11*
X13555119Y-12612976D02*
X13555119Y-12412976D01*
X13602738Y-12412976D01*
X13631309Y-12422500D01*
X13650357Y-12441548D01*
X13659881Y-12460595D01*
X13669405Y-12498690D01*
X13669405Y-12527262D01*
X13659881Y-12565357D01*
X13650357Y-12584405D01*
X13631309Y-12603452D01*
X13602738Y-12612976D01*
X13555119Y-12612976D01*
X13755119Y-12612976D02*
X13755119Y-12479643D01*
X13755119Y-12517738D02*
X13764643Y-12498690D01*
X13774167Y-12489167D01*
X13793214Y-12479643D01*
X13812262Y-12479643D01*
X13878928Y-12612976D02*
X13878928Y-12479643D01*
X13878928Y-12412976D02*
X13869405Y-12422500D01*
X13878928Y-12432024D01*
X13888452Y-12422500D01*
X13878928Y-12412976D01*
X13878928Y-12432024D01*
X14002738Y-12612976D02*
X13983690Y-12603452D01*
X13974167Y-12584405D01*
X13974167Y-12412976D01*
X14107500Y-12612976D02*
X14088452Y-12603452D01*
X14078928Y-12584405D01*
X14078928Y-12412976D01*
X14336071Y-12612976D02*
X14336071Y-12412976D01*
X14402738Y-12555833D01*
X14469405Y-12412976D01*
X14469405Y-12612976D01*
X14650357Y-12612976D02*
X14650357Y-12508214D01*
X14640833Y-12489167D01*
X14621786Y-12479643D01*
X14583690Y-12479643D01*
X14564643Y-12489167D01*
X14650357Y-12603452D02*
X14631309Y-12612976D01*
X14583690Y-12612976D01*
X14564643Y-12603452D01*
X14555119Y-12584405D01*
X14555119Y-12565357D01*
X14564643Y-12546309D01*
X14583690Y-12536786D01*
X14631309Y-12536786D01*
X14650357Y-12527262D01*
X14745595Y-12479643D02*
X14745595Y-12679643D01*
X14745595Y-12489167D02*
X14764643Y-12479643D01*
X14802738Y-12479643D01*
X14821786Y-12489167D01*
X14831309Y-12498690D01*
X14840833Y-12517738D01*
X14840833Y-12574881D01*
X14831309Y-12593928D01*
X14821786Y-12603452D01*
X14802738Y-12612976D01*
X14764643Y-12612976D01*
X14745595Y-12603452D01*
X14926548Y-12593928D02*
X14936071Y-12603452D01*
X14926548Y-12612976D01*
X14917024Y-12603452D01*
X14926548Y-12593928D01*
X14926548Y-12612976D01*
X14926548Y-12489167D02*
X14936071Y-12498690D01*
X14926548Y-12508214D01*
X14917024Y-12498690D01*
X14926548Y-12489167D01*
X14926548Y-12508214D01*
D12*
X13277500Y-12932500D02*
X13297500Y-12952500D01*
X13297500Y-12932500D02*
X13277500Y-12952500D01*
D11*
X13593214Y-12832976D02*
X13612262Y-12832976D01*
X13631309Y-12842500D01*
X13640833Y-12852024D01*
X13650357Y-12871071D01*
X13659881Y-12909167D01*
X13659881Y-12956786D01*
X13650357Y-12994881D01*
X13640833Y-13013928D01*
X13631309Y-13023452D01*
X13612262Y-13032976D01*
X13593214Y-13032976D01*
X13574167Y-13023452D01*
X13564643Y-13013928D01*
X13555119Y-12994881D01*
X13545595Y-12956786D01*
X13545595Y-12909167D01*
X13555119Y-12871071D01*
X13564643Y-12852024D01*
X13574167Y-12842500D01*
X13593214Y-12832976D01*
X13745595Y-13013928D02*
X13755119Y-13023452D01*
X13745595Y-13032976D01*
X13736071Y-13023452D01*
X13745595Y-13013928D01*
X13745595Y-13032976D01*
X13831309Y-12852024D02*
X13840833Y-12842500D01*
X13859881Y-12832976D01*
X13907500Y-12832976D01*
X13926548Y-12842500D01*
X13936071Y-12852024D01*
X13945595Y-12871071D01*
X13945595Y-12890119D01*
X13936071Y-12918690D01*
X13821786Y-13032976D01*
X13945595Y-13032976D01*
X14069405Y-12832976D02*
X14088452Y-12832976D01*
X14107500Y-12842500D01*
X14117024Y-12852024D01*
X14126548Y-12871071D01*
X14136071Y-12909167D01*
X14136071Y-12956786D01*
X14126548Y-12994881D01*
X14117024Y-13013928D01*
X14107500Y-13023452D01*
X14088452Y-13032976D01*
X14069405Y-13032976D01*
X14050357Y-13023452D01*
X14040833Y-13013928D01*
X14031309Y-12994881D01*
X14021786Y-12956786D01*
X14021786Y-12909167D01*
X14031309Y-12871071D01*
X14040833Y-12852024D01*
X14050357Y-12842500D01*
X14069405Y-12832976D01*
X14259881Y-12832976D02*
X14278928Y-12832976D01*
X14297976Y-12842500D01*
X14307500Y-12852024D01*
X14317024Y-12871071D01*
X14326548Y-12909167D01*
X14326548Y-12956786D01*
X14317024Y-12994881D01*
X14307500Y-13013928D01*
X14297976Y-13023452D01*
X14278928Y-13032976D01*
X14259881Y-13032976D01*
X14240833Y-13023452D01*
X14231309Y-13013928D01*
X14221786Y-12994881D01*
X14212262Y-12956786D01*
X14212262Y-12909167D01*
X14221786Y-12871071D01*
X14231309Y-12852024D01*
X14240833Y-12842500D01*
X14259881Y-12832976D01*
X14412262Y-13032976D02*
X14412262Y-12899643D01*
X14412262Y-12918690D02*
X14421786Y-12909167D01*
X14440833Y-12899643D01*
X14469405Y-12899643D01*
X14488452Y-12909167D01*
X14497976Y-12928214D01*
X14497976Y-13032976D01*
X14497976Y-12928214D02*
X14507500Y-12909167D01*
X14526548Y-12899643D01*
X14555119Y-12899643D01*
X14574167Y-12909167D01*
X14583690Y-12928214D01*
X14583690Y-13032976D01*
X14678928Y-13032976D02*
X14678928Y-12899643D01*
X14678928Y-12918690D02*
X14688452Y-12909167D01*
X14707500Y-12899643D01*
X14736071Y-12899643D01*
X14755119Y-12909167D01*
X14764643Y-12928214D01*
X14764643Y-13032976D01*
X14764643Y-12928214D02*
X14774167Y-12909167D01*
X14793214Y-12899643D01*
X14821786Y-12899643D01*
X14840833Y-12909167D01*
X14850357Y-12928214D01*
X14850357Y-13032976D01*
X15240833Y-12823452D02*
X15069405Y-13080595D01*
X15497976Y-12832976D02*
X15517024Y-12832976D01*
X15536071Y-12842500D01*
X15545595Y-12852024D01*
X15555119Y-12871071D01*
X15564643Y-12909167D01*
X15564643Y-12956786D01*
X15555119Y-12994881D01*
X15545595Y-13013928D01*
X15536071Y-13023452D01*
X15517024Y-13032976D01*
X15497976Y-13032976D01*
X15478928Y-13023452D01*
X15469405Y-13013928D01*
X15459881Y-12994881D01*
X15450357Y-12956786D01*
X15450357Y-12909167D01*
X15459881Y-12871071D01*
X15469405Y-12852024D01*
X15478928Y-12842500D01*
X15497976Y-12832976D01*
X15650357Y-13013928D02*
X15659881Y-13023452D01*
X15650357Y-13032976D01*
X15640833Y-13023452D01*
X15650357Y-13013928D01*
X15650357Y-13032976D01*
X15783690Y-12832976D02*
X15802738Y-12832976D01*
X15821786Y-12842500D01*
X15831309Y-12852024D01*
X15840833Y-12871071D01*
X15850357Y-12909167D01*
X15850357Y-12956786D01*
X15840833Y-12994881D01*
X15831309Y-13013928D01*
X15821786Y-13023452D01*
X15802738Y-13032976D01*
X15783690Y-13032976D01*
X15764643Y-13023452D01*
X15755119Y-13013928D01*
X15745595Y-12994881D01*
X15736071Y-12956786D01*
X15736071Y-12909167D01*
X15745595Y-12871071D01*
X15755119Y-12852024D01*
X15764643Y-12842500D01*
X15783690Y-12832976D01*
X15974167Y-12832976D02*
X15993214Y-12832976D01*
X16012262Y-12842500D01*
X16021786Y-12852024D01*
X16031309Y-12871071D01*
X16040833Y-12909167D01*
X16040833Y-12956786D01*
X16031309Y-12994881D01*
X16021786Y-13013928D01*
X16012262Y-13023452D01*
X15993214Y-13032976D01*
X15974167Y-13032976D01*
X15955119Y-13023452D01*
X15945595Y-13013928D01*
X15936071Y-12994881D01*
X15926548Y-12956786D01*
X15926548Y-12909167D01*
X15936071Y-12871071D01*
X15945595Y-12852024D01*
X15955119Y-12842500D01*
X15974167Y-12832976D01*
X16107500Y-12832976D02*
X16240833Y-12832976D01*
X16155119Y-13032976D01*
X16326548Y-13032976D02*
X16364643Y-13032976D01*
X16383690Y-13023452D01*
X16393214Y-13013928D01*
X16412262Y-12985357D01*
X16421786Y-12947262D01*
X16421786Y-12871071D01*
X16412262Y-12852024D01*
X16402738Y-12842500D01*
X16383690Y-12832976D01*
X16345595Y-12832976D01*
X16326548Y-12842500D01*
X16317024Y-12852024D01*
X16307500Y-12871071D01*
X16307500Y-12918690D01*
X16317024Y-12937738D01*
X16326548Y-12947262D01*
X16345595Y-12956786D01*
X16383690Y-12956786D01*
X16402738Y-12947262D01*
X16412262Y-12937738D01*
X16421786Y-12918690D01*
X16497976Y-12832976D02*
X16497976Y-12871071D01*
X16574167Y-12832976D02*
X16574167Y-12871071D01*
X16869405Y-13109167D02*
X16859881Y-13099643D01*
X16840833Y-13071071D01*
X16831310Y-13052024D01*
X16821786Y-13023452D01*
X16812262Y-12975833D01*
X16812262Y-12937738D01*
X16821786Y-12890119D01*
X16831310Y-12861548D01*
X16840833Y-12842500D01*
X16859881Y-12813928D01*
X16869405Y-12804405D01*
X17040833Y-12832976D02*
X16945595Y-12832976D01*
X16936071Y-12928214D01*
X16945595Y-12918690D01*
X16964643Y-12909167D01*
X17012262Y-12909167D01*
X17031310Y-12918690D01*
X17040833Y-12928214D01*
X17050357Y-12947262D01*
X17050357Y-12994881D01*
X17040833Y-13013928D01*
X17031310Y-13023452D01*
X17012262Y-13032976D01*
X16964643Y-13032976D01*
X16945595Y-13023452D01*
X16936071Y-13013928D01*
X17221786Y-12899643D02*
X17221786Y-13032976D01*
X17174167Y-12823452D02*
X17126548Y-12966309D01*
X17250357Y-12966309D01*
X17478929Y-13032976D02*
X17478929Y-12832976D01*
X17564643Y-13032976D02*
X17564643Y-12928214D01*
X17555119Y-12909167D01*
X17536071Y-12899643D01*
X17507500Y-12899643D01*
X17488452Y-12909167D01*
X17478929Y-12918690D01*
X17688452Y-13032976D02*
X17669405Y-13023452D01*
X17659881Y-13013928D01*
X17650357Y-12994881D01*
X17650357Y-12937738D01*
X17659881Y-12918690D01*
X17669405Y-12909167D01*
X17688452Y-12899643D01*
X17717024Y-12899643D01*
X17736071Y-12909167D01*
X17745595Y-12918690D01*
X17755119Y-12937738D01*
X17755119Y-12994881D01*
X17745595Y-13013928D01*
X17736071Y-13023452D01*
X17717024Y-13032976D01*
X17688452Y-13032976D01*
X17869405Y-13032976D02*
X17850357Y-13023452D01*
X17840833Y-13004405D01*
X17840833Y-12832976D01*
X18021786Y-13023452D02*
X18002738Y-13032976D01*
X17964643Y-13032976D01*
X17945595Y-13023452D01*
X17936071Y-13004405D01*
X17936071Y-12928214D01*
X17945595Y-12909167D01*
X17964643Y-12899643D01*
X18002738Y-12899643D01*
X18021786Y-12909167D01*
X18031310Y-12928214D01*
X18031310Y-12947262D01*
X17936071Y-12966309D01*
X18107500Y-13023452D02*
X18126548Y-13032976D01*
X18164643Y-13032976D01*
X18183690Y-13023452D01*
X18193214Y-13004405D01*
X18193214Y-12994881D01*
X18183690Y-12975833D01*
X18164643Y-12966309D01*
X18136071Y-12966309D01*
X18117024Y-12956786D01*
X18107500Y-12937738D01*
X18107500Y-12928214D01*
X18117024Y-12909167D01*
X18136071Y-12899643D01*
X18164643Y-12899643D01*
X18183690Y-12909167D01*
X18259881Y-13109167D02*
X18269405Y-13099643D01*
X18288452Y-13071071D01*
X18297976Y-13052024D01*
X18307500Y-13023452D01*
X18317024Y-12975833D01*
X18317024Y-12937738D01*
X18307500Y-12890119D01*
X18297976Y-12861548D01*
X18288452Y-12842500D01*
X18269405Y-12813928D01*
X18259881Y-12804405D01*
D13*
X13297500Y-13206500D02*
G75*
G03*
X13297500Y-13206500I-20000J0D01*
G01*
D11*
X13593214Y-13096976D02*
X13612262Y-13096976D01*
X13631309Y-13106500D01*
X13640833Y-13116024D01*
X13650357Y-13135071D01*
X13659881Y-13173167D01*
X13659881Y-13220786D01*
X13650357Y-13258881D01*
X13640833Y-13277928D01*
X13631309Y-13287452D01*
X13612262Y-13296976D01*
X13593214Y-13296976D01*
X13574167Y-13287452D01*
X13564643Y-13277928D01*
X13555119Y-13258881D01*
X13545595Y-13220786D01*
X13545595Y-13173167D01*
X13555119Y-13135071D01*
X13564643Y-13116024D01*
X13574167Y-13106500D01*
X13593214Y-13096976D01*
X13745595Y-13277928D02*
X13755119Y-13287452D01*
X13745595Y-13296976D01*
X13736071Y-13287452D01*
X13745595Y-13277928D01*
X13745595Y-13296976D01*
X13926548Y-13163643D02*
X13926548Y-13296976D01*
X13878928Y-13087452D02*
X13831309Y-13230309D01*
X13955119Y-13230309D01*
X14069405Y-13096976D02*
X14088452Y-13096976D01*
X14107500Y-13106500D01*
X14117024Y-13116024D01*
X14126548Y-13135071D01*
X14136071Y-13173167D01*
X14136071Y-13220786D01*
X14126548Y-13258881D01*
X14117024Y-13277928D01*
X14107500Y-13287452D01*
X14088452Y-13296976D01*
X14069405Y-13296976D01*
X14050357Y-13287452D01*
X14040833Y-13277928D01*
X14031309Y-13258881D01*
X14021786Y-13220786D01*
X14021786Y-13173167D01*
X14031309Y-13135071D01*
X14040833Y-13116024D01*
X14050357Y-13106500D01*
X14069405Y-13096976D01*
X14259881Y-13096976D02*
X14278928Y-13096976D01*
X14297976Y-13106500D01*
X14307500Y-13116024D01*
X14317024Y-13135071D01*
X14326548Y-13173167D01*
X14326548Y-13220786D01*
X14317024Y-13258881D01*
X14307500Y-13277928D01*
X14297976Y-13287452D01*
X14278928Y-13296976D01*
X14259881Y-13296976D01*
X14240833Y-13287452D01*
X14231309Y-13277928D01*
X14221786Y-13258881D01*
X14212262Y-13220786D01*
X14212262Y-13173167D01*
X14221786Y-13135071D01*
X14231309Y-13116024D01*
X14240833Y-13106500D01*
X14259881Y-13096976D01*
X14412262Y-13296976D02*
X14412262Y-13163643D01*
X14412262Y-13182690D02*
X14421786Y-13173167D01*
X14440833Y-13163643D01*
X14469405Y-13163643D01*
X14488452Y-13173167D01*
X14497976Y-13192214D01*
X14497976Y-13296976D01*
X14497976Y-13192214D02*
X14507500Y-13173167D01*
X14526548Y-13163643D01*
X14555119Y-13163643D01*
X14574167Y-13173167D01*
X14583690Y-13192214D01*
X14583690Y-13296976D01*
X14678928Y-13296976D02*
X14678928Y-13163643D01*
X14678928Y-13182690D02*
X14688452Y-13173167D01*
X14707500Y-13163643D01*
X14736071Y-13163643D01*
X14755119Y-13173167D01*
X14764643Y-13192214D01*
X14764643Y-13296976D01*
X14764643Y-13192214D02*
X14774167Y-13173167D01*
X14793214Y-13163643D01*
X14821786Y-13163643D01*
X14840833Y-13173167D01*
X14850357Y-13192214D01*
X14850357Y-13296976D01*
X15240833Y-13087452D02*
X15069405Y-13344595D01*
X15497976Y-13096976D02*
X15517024Y-13096976D01*
X15536071Y-13106500D01*
X15545595Y-13116024D01*
X15555119Y-13135071D01*
X15564643Y-13173167D01*
X15564643Y-13220786D01*
X15555119Y-13258881D01*
X15545595Y-13277928D01*
X15536071Y-13287452D01*
X15517024Y-13296976D01*
X15497976Y-13296976D01*
X15478928Y-13287452D01*
X15469405Y-13277928D01*
X15459881Y-13258881D01*
X15450357Y-13220786D01*
X15450357Y-13173167D01*
X15459881Y-13135071D01*
X15469405Y-13116024D01*
X15478928Y-13106500D01*
X15497976Y-13096976D01*
X15650357Y-13277928D02*
X15659881Y-13287452D01*
X15650357Y-13296976D01*
X15640833Y-13287452D01*
X15650357Y-13277928D01*
X15650357Y-13296976D01*
X15783690Y-13096976D02*
X15802738Y-13096976D01*
X15821786Y-13106500D01*
X15831309Y-13116024D01*
X15840833Y-13135071D01*
X15850357Y-13173167D01*
X15850357Y-13220786D01*
X15840833Y-13258881D01*
X15831309Y-13277928D01*
X15821786Y-13287452D01*
X15802738Y-13296976D01*
X15783690Y-13296976D01*
X15764643Y-13287452D01*
X15755119Y-13277928D01*
X15745595Y-13258881D01*
X15736071Y-13220786D01*
X15736071Y-13173167D01*
X15745595Y-13135071D01*
X15755119Y-13116024D01*
X15764643Y-13106500D01*
X15783690Y-13096976D01*
X16040833Y-13296976D02*
X15926548Y-13296976D01*
X15983690Y-13296976D02*
X15983690Y-13096976D01*
X15964643Y-13125548D01*
X15945595Y-13144595D01*
X15926548Y-13154119D01*
X16221786Y-13096976D02*
X16126548Y-13096976D01*
X16117024Y-13192214D01*
X16126548Y-13182690D01*
X16145595Y-13173167D01*
X16193214Y-13173167D01*
X16212262Y-13182690D01*
X16221786Y-13192214D01*
X16231309Y-13211262D01*
X16231309Y-13258881D01*
X16221786Y-13277928D01*
X16212262Y-13287452D01*
X16193214Y-13296976D01*
X16145595Y-13296976D01*
X16126548Y-13287452D01*
X16117024Y-13277928D01*
X16297976Y-13096976D02*
X16431309Y-13096976D01*
X16345595Y-13296976D01*
X16497976Y-13096976D02*
X16497976Y-13135071D01*
X16574167Y-13096976D02*
X16574167Y-13135071D01*
X16869405Y-13373167D02*
X16859881Y-13363643D01*
X16840833Y-13335071D01*
X16831310Y-13316024D01*
X16821786Y-13287452D01*
X16812262Y-13239833D01*
X16812262Y-13201738D01*
X16821786Y-13154119D01*
X16831310Y-13125548D01*
X16840833Y-13106500D01*
X16859881Y-13077928D01*
X16869405Y-13068405D01*
X17031310Y-13163643D02*
X17031310Y-13296976D01*
X16983690Y-13087452D02*
X16936071Y-13230309D01*
X17059881Y-13230309D01*
X17221786Y-13096976D02*
X17183690Y-13096976D01*
X17164643Y-13106500D01*
X17155119Y-13116024D01*
X17136071Y-13144595D01*
X17126548Y-13182690D01*
X17126548Y-13258881D01*
X17136071Y-13277928D01*
X17145595Y-13287452D01*
X17164643Y-13296976D01*
X17202738Y-13296976D01*
X17221786Y-13287452D01*
X17231310Y-13277928D01*
X17240833Y-13258881D01*
X17240833Y-13211262D01*
X17231310Y-13192214D01*
X17221786Y-13182690D01*
X17202738Y-13173167D01*
X17164643Y-13173167D01*
X17145595Y-13182690D01*
X17136071Y-13192214D01*
X17126548Y-13211262D01*
X17478929Y-13296976D02*
X17478929Y-13096976D01*
X17564643Y-13296976D02*
X17564643Y-13192214D01*
X17555119Y-13173167D01*
X17536071Y-13163643D01*
X17507500Y-13163643D01*
X17488452Y-13173167D01*
X17478929Y-13182690D01*
X17688452Y-13296976D02*
X17669405Y-13287452D01*
X17659881Y-13277928D01*
X17650357Y-13258881D01*
X17650357Y-13201738D01*
X17659881Y-13182690D01*
X17669405Y-13173167D01*
X17688452Y-13163643D01*
X17717024Y-13163643D01*
X17736071Y-13173167D01*
X17745595Y-13182690D01*
X17755119Y-13201738D01*
X17755119Y-13258881D01*
X17745595Y-13277928D01*
X17736071Y-13287452D01*
X17717024Y-13296976D01*
X17688452Y-13296976D01*
X17869405Y-13296976D02*
X17850357Y-13287452D01*
X17840833Y-13268405D01*
X17840833Y-13096976D01*
X18021786Y-13287452D02*
X18002738Y-13296976D01*
X17964643Y-13296976D01*
X17945595Y-13287452D01*
X17936071Y-13268405D01*
X17936071Y-13192214D01*
X17945595Y-13173167D01*
X17964643Y-13163643D01*
X18002738Y-13163643D01*
X18021786Y-13173167D01*
X18031310Y-13192214D01*
X18031310Y-13211262D01*
X17936071Y-13230309D01*
X18107500Y-13287452D02*
X18126548Y-13296976D01*
X18164643Y-13296976D01*
X18183690Y-13287452D01*
X18193214Y-13268405D01*
X18193214Y-13258881D01*
X18183690Y-13239833D01*
X18164643Y-13230309D01*
X18136071Y-13230309D01*
X18117024Y-13220786D01*
X18107500Y-13201738D01*
X18107500Y-13192214D01*
X18117024Y-13173167D01*
X18136071Y-13163643D01*
X18164643Y-13163643D01*
X18183690Y-13173167D01*
X18259881Y-13373167D02*
X18269405Y-13363643D01*
X18288452Y-13335071D01*
X18297976Y-13316024D01*
X18307500Y-13287452D01*
X18317024Y-13239833D01*
X18317024Y-13201738D01*
X18307500Y-13154119D01*
X18297976Y-13125548D01*
X18288452Y-13106500D01*
X18269405Y-13077928D01*
X18259881Y-13068405D01*
D10*
X13272500Y-13445500D02*
X13272500Y-13495500D01*
X13247500Y-13470500D02*
X13297500Y-13470500D01*
D11*
X13593214Y-13360976D02*
X13612262Y-13360976D01*
X13631309Y-13370500D01*
X13640833Y-13380024D01*
X13650357Y-13399071D01*
X13659881Y-13437167D01*
X13659881Y-13484786D01*
X13650357Y-13522881D01*
X13640833Y-13541928D01*
X13631309Y-13551452D01*
X13612262Y-13560976D01*
X13593214Y-13560976D01*
X13574167Y-13551452D01*
X13564643Y-13541928D01*
X13555119Y-13522881D01*
X13545595Y-13484786D01*
X13545595Y-13437167D01*
X13555119Y-13399071D01*
X13564643Y-13380024D01*
X13574167Y-13370500D01*
X13593214Y-13360976D01*
X13745595Y-13541928D02*
X13755119Y-13551452D01*
X13745595Y-13560976D01*
X13736071Y-13551452D01*
X13745595Y-13541928D01*
X13745595Y-13560976D01*
X13936071Y-13360976D02*
X13840833Y-13360976D01*
X13831309Y-13456214D01*
X13840833Y-13446690D01*
X13859881Y-13437167D01*
X13907500Y-13437167D01*
X13926548Y-13446690D01*
X13936071Y-13456214D01*
X13945595Y-13475262D01*
X13945595Y-13522881D01*
X13936071Y-13541928D01*
X13926548Y-13551452D01*
X13907500Y-13560976D01*
X13859881Y-13560976D01*
X13840833Y-13551452D01*
X13831309Y-13541928D01*
X14069405Y-13360976D02*
X14088452Y-13360976D01*
X14107500Y-13370500D01*
X14117024Y-13380024D01*
X14126548Y-13399071D01*
X14136071Y-13437167D01*
X14136071Y-13484786D01*
X14126548Y-13522881D01*
X14117024Y-13541928D01*
X14107500Y-13551452D01*
X14088452Y-13560976D01*
X14069405Y-13560976D01*
X14050357Y-13551452D01*
X14040833Y-13541928D01*
X14031309Y-13522881D01*
X14021786Y-13484786D01*
X14021786Y-13437167D01*
X14031309Y-13399071D01*
X14040833Y-13380024D01*
X14050357Y-13370500D01*
X14069405Y-13360976D01*
X14259881Y-13360976D02*
X14278928Y-13360976D01*
X14297976Y-13370500D01*
X14307500Y-13380024D01*
X14317024Y-13399071D01*
X14326548Y-13437167D01*
X14326548Y-13484786D01*
X14317024Y-13522881D01*
X14307500Y-13541928D01*
X14297976Y-13551452D01*
X14278928Y-13560976D01*
X14259881Y-13560976D01*
X14240833Y-13551452D01*
X14231309Y-13541928D01*
X14221786Y-13522881D01*
X14212262Y-13484786D01*
X14212262Y-13437167D01*
X14221786Y-13399071D01*
X14231309Y-13380024D01*
X14240833Y-13370500D01*
X14259881Y-13360976D01*
X14412262Y-13560976D02*
X14412262Y-13427643D01*
X14412262Y-13446690D02*
X14421786Y-13437167D01*
X14440833Y-13427643D01*
X14469405Y-13427643D01*
X14488452Y-13437167D01*
X14497976Y-13456214D01*
X14497976Y-13560976D01*
X14497976Y-13456214D02*
X14507500Y-13437167D01*
X14526548Y-13427643D01*
X14555119Y-13427643D01*
X14574167Y-13437167D01*
X14583690Y-13456214D01*
X14583690Y-13560976D01*
X14678928Y-13560976D02*
X14678928Y-13427643D01*
X14678928Y-13446690D02*
X14688452Y-13437167D01*
X14707500Y-13427643D01*
X14736071Y-13427643D01*
X14755119Y-13437167D01*
X14764643Y-13456214D01*
X14764643Y-13560976D01*
X14764643Y-13456214D02*
X14774167Y-13437167D01*
X14793214Y-13427643D01*
X14821786Y-13427643D01*
X14840833Y-13437167D01*
X14850357Y-13456214D01*
X14850357Y-13560976D01*
X15240833Y-13351452D02*
X15069405Y-13608595D01*
X15497976Y-13360976D02*
X15517024Y-13360976D01*
X15536071Y-13370500D01*
X15545595Y-13380024D01*
X15555119Y-13399071D01*
X15564643Y-13437167D01*
X15564643Y-13484786D01*
X15555119Y-13522881D01*
X15545595Y-13541928D01*
X15536071Y-13551452D01*
X15517024Y-13560976D01*
X15497976Y-13560976D01*
X15478928Y-13551452D01*
X15469405Y-13541928D01*
X15459881Y-13522881D01*
X15450357Y-13484786D01*
X15450357Y-13437167D01*
X15459881Y-13399071D01*
X15469405Y-13380024D01*
X15478928Y-13370500D01*
X15497976Y-13360976D01*
X15650357Y-13541928D02*
X15659881Y-13551452D01*
X15650357Y-13560976D01*
X15640833Y-13551452D01*
X15650357Y-13541928D01*
X15650357Y-13560976D01*
X15783690Y-13360976D02*
X15802738Y-13360976D01*
X15821786Y-13370500D01*
X15831309Y-13380024D01*
X15840833Y-13399071D01*
X15850357Y-13437167D01*
X15850357Y-13484786D01*
X15840833Y-13522881D01*
X15831309Y-13541928D01*
X15821786Y-13551452D01*
X15802738Y-13560976D01*
X15783690Y-13560976D01*
X15764643Y-13551452D01*
X15755119Y-13541928D01*
X15745595Y-13522881D01*
X15736071Y-13484786D01*
X15736071Y-13437167D01*
X15745595Y-13399071D01*
X15755119Y-13380024D01*
X15764643Y-13370500D01*
X15783690Y-13360976D01*
X16040833Y-13560976D02*
X15926548Y-13560976D01*
X15983690Y-13560976D02*
X15983690Y-13360976D01*
X15964643Y-13389548D01*
X15945595Y-13408595D01*
X15926548Y-13418119D01*
X16136071Y-13560976D02*
X16174167Y-13560976D01*
X16193214Y-13551452D01*
X16202738Y-13541928D01*
X16221786Y-13513357D01*
X16231309Y-13475262D01*
X16231309Y-13399071D01*
X16221786Y-13380024D01*
X16212262Y-13370500D01*
X16193214Y-13360976D01*
X16155119Y-13360976D01*
X16136071Y-13370500D01*
X16126548Y-13380024D01*
X16117024Y-13399071D01*
X16117024Y-13446690D01*
X16126548Y-13465738D01*
X16136071Y-13475262D01*
X16155119Y-13484786D01*
X16193214Y-13484786D01*
X16212262Y-13475262D01*
X16221786Y-13465738D01*
X16231309Y-13446690D01*
X16297976Y-13360976D02*
X16431309Y-13360976D01*
X16345595Y-13560976D01*
X16497976Y-13360976D02*
X16497976Y-13399071D01*
X16574167Y-13360976D02*
X16574167Y-13399071D01*
X16869405Y-13637167D02*
X16859881Y-13627643D01*
X16840833Y-13599071D01*
X16831310Y-13580024D01*
X16821786Y-13551452D01*
X16812262Y-13503833D01*
X16812262Y-13465738D01*
X16821786Y-13418119D01*
X16831310Y-13389548D01*
X16840833Y-13370500D01*
X16859881Y-13341928D01*
X16869405Y-13332405D01*
X16926548Y-13360976D02*
X17050357Y-13360976D01*
X16983690Y-13437167D01*
X17012262Y-13437167D01*
X17031310Y-13446690D01*
X17040833Y-13456214D01*
X17050357Y-13475262D01*
X17050357Y-13522881D01*
X17040833Y-13541928D01*
X17031310Y-13551452D01*
X17012262Y-13560976D01*
X16955119Y-13560976D01*
X16936071Y-13551452D01*
X16926548Y-13541928D01*
X17126548Y-13380024D02*
X17136071Y-13370500D01*
X17155119Y-13360976D01*
X17202738Y-13360976D01*
X17221786Y-13370500D01*
X17231310Y-13380024D01*
X17240833Y-13399071D01*
X17240833Y-13418119D01*
X17231310Y-13446690D01*
X17117024Y-13560976D01*
X17240833Y-13560976D01*
X17478929Y-13560976D02*
X17478929Y-13360976D01*
X17564643Y-13560976D02*
X17564643Y-13456214D01*
X17555119Y-13437167D01*
X17536071Y-13427643D01*
X17507500Y-13427643D01*
X17488452Y-13437167D01*
X17478929Y-13446690D01*
X17688452Y-13560976D02*
X17669405Y-13551452D01*
X17659881Y-13541928D01*
X17650357Y-13522881D01*
X17650357Y-13465738D01*
X17659881Y-13446690D01*
X17669405Y-13437167D01*
X17688452Y-13427643D01*
X17717024Y-13427643D01*
X17736071Y-13437167D01*
X17745595Y-13446690D01*
X17755119Y-13465738D01*
X17755119Y-13522881D01*
X17745595Y-13541928D01*
X17736071Y-13551452D01*
X17717024Y-13560976D01*
X17688452Y-13560976D01*
X17869405Y-13560976D02*
X17850357Y-13551452D01*
X17840833Y-13532405D01*
X17840833Y-13360976D01*
X18021786Y-13551452D02*
X18002738Y-13560976D01*
X17964643Y-13560976D01*
X17945595Y-13551452D01*
X17936071Y-13532405D01*
X17936071Y-13456214D01*
X17945595Y-13437167D01*
X17964643Y-13427643D01*
X18002738Y-13427643D01*
X18021786Y-13437167D01*
X18031310Y-13456214D01*
X18031310Y-13475262D01*
X17936071Y-13494309D01*
X18107500Y-13551452D02*
X18126548Y-13560976D01*
X18164643Y-13560976D01*
X18183690Y-13551452D01*
X18193214Y-13532405D01*
X18193214Y-13522881D01*
X18183690Y-13503833D01*
X18164643Y-13494309D01*
X18136071Y-13494309D01*
X18117024Y-13484786D01*
X18107500Y-13465738D01*
X18107500Y-13456214D01*
X18117024Y-13437167D01*
X18136071Y-13427643D01*
X18164643Y-13427643D01*
X18183690Y-13437167D01*
X18259881Y-13637167D02*
X18269405Y-13627643D01*
X18288452Y-13599071D01*
X18297976Y-13580024D01*
X18307500Y-13551452D01*
X18317024Y-13503833D01*
X18317024Y-13465738D01*
X18307500Y-13418119D01*
X18297976Y-13389548D01*
X18288452Y-13370500D01*
X18269405Y-13341928D01*
X18259881Y-13332405D01*
D14*
X13280659Y-13775159D02*
X13280659Y-13693841D01*
X13199341Y-13693841D01*
X13199341Y-13775159D01*
X13280659Y-13775159D01*
D11*
X13659881Y-13824976D02*
X13545595Y-13824976D01*
X13602738Y-13824976D02*
X13602738Y-13624976D01*
X13583690Y-13653548D01*
X13564643Y-13672595D01*
X13545595Y-13682119D01*
X13745595Y-13805928D02*
X13755119Y-13815452D01*
X13745595Y-13824976D01*
X13736071Y-13815452D01*
X13745595Y-13805928D01*
X13745595Y-13824976D01*
X13945595Y-13824976D02*
X13831309Y-13824976D01*
X13888452Y-13824976D02*
X13888452Y-13624976D01*
X13869405Y-13653548D01*
X13850357Y-13672595D01*
X13831309Y-13682119D01*
X14126548Y-13624976D02*
X14031309Y-13624976D01*
X14021786Y-13720214D01*
X14031309Y-13710690D01*
X14050357Y-13701167D01*
X14097976Y-13701167D01*
X14117024Y-13710690D01*
X14126548Y-13720214D01*
X14136071Y-13739262D01*
X14136071Y-13786881D01*
X14126548Y-13805928D01*
X14117024Y-13815452D01*
X14097976Y-13824976D01*
X14050357Y-13824976D01*
X14031309Y-13815452D01*
X14021786Y-13805928D01*
X14259881Y-13624976D02*
X14278928Y-13624976D01*
X14297976Y-13634500D01*
X14307500Y-13644024D01*
X14317024Y-13663071D01*
X14326548Y-13701167D01*
X14326548Y-13748786D01*
X14317024Y-13786881D01*
X14307500Y-13805928D01*
X14297976Y-13815452D01*
X14278928Y-13824976D01*
X14259881Y-13824976D01*
X14240833Y-13815452D01*
X14231309Y-13805928D01*
X14221786Y-13786881D01*
X14212262Y-13748786D01*
X14212262Y-13701167D01*
X14221786Y-13663071D01*
X14231309Y-13644024D01*
X14240833Y-13634500D01*
X14259881Y-13624976D01*
X14412262Y-13824976D02*
X14412262Y-13691643D01*
X14412262Y-13710690D02*
X14421786Y-13701167D01*
X14440833Y-13691643D01*
X14469405Y-13691643D01*
X14488452Y-13701167D01*
X14497976Y-13720214D01*
X14497976Y-13824976D01*
X14497976Y-13720214D02*
X14507500Y-13701167D01*
X14526548Y-13691643D01*
X14555119Y-13691643D01*
X14574167Y-13701167D01*
X14583690Y-13720214D01*
X14583690Y-13824976D01*
X14678928Y-13824976D02*
X14678928Y-13691643D01*
X14678928Y-13710690D02*
X14688452Y-13701167D01*
X14707500Y-13691643D01*
X14736071Y-13691643D01*
X14755119Y-13701167D01*
X14764643Y-13720214D01*
X14764643Y-13824976D01*
X14764643Y-13720214D02*
X14774167Y-13701167D01*
X14793214Y-13691643D01*
X14821786Y-13691643D01*
X14840833Y-13701167D01*
X14850357Y-13720214D01*
X14850357Y-13824976D01*
X15240833Y-13615452D02*
X15069405Y-13872595D01*
X15497976Y-13624976D02*
X15517024Y-13624976D01*
X15536071Y-13634500D01*
X15545595Y-13644024D01*
X15555119Y-13663071D01*
X15564643Y-13701167D01*
X15564643Y-13748786D01*
X15555119Y-13786881D01*
X15545595Y-13805928D01*
X15536071Y-13815452D01*
X15517024Y-13824976D01*
X15497976Y-13824976D01*
X15478928Y-13815452D01*
X15469405Y-13805928D01*
X15459881Y-13786881D01*
X15450357Y-13748786D01*
X15450357Y-13701167D01*
X15459881Y-13663071D01*
X15469405Y-13644024D01*
X15478928Y-13634500D01*
X15497976Y-13624976D01*
X15650357Y-13805928D02*
X15659881Y-13815452D01*
X15650357Y-13824976D01*
X15640833Y-13815452D01*
X15650357Y-13805928D01*
X15650357Y-13824976D01*
X15783690Y-13624976D02*
X15802738Y-13624976D01*
X15821786Y-13634500D01*
X15831309Y-13644024D01*
X15840833Y-13663071D01*
X15850357Y-13701167D01*
X15850357Y-13748786D01*
X15840833Y-13786881D01*
X15831309Y-13805928D01*
X15821786Y-13815452D01*
X15802738Y-13824976D01*
X15783690Y-13824976D01*
X15764643Y-13815452D01*
X15755119Y-13805928D01*
X15745595Y-13786881D01*
X15736071Y-13748786D01*
X15736071Y-13701167D01*
X15745595Y-13663071D01*
X15755119Y-13644024D01*
X15764643Y-13634500D01*
X15783690Y-13624976D01*
X16021786Y-13691643D02*
X16021786Y-13824976D01*
X15974167Y-13615452D02*
X15926548Y-13758309D01*
X16050357Y-13758309D01*
X16221786Y-13624976D02*
X16126548Y-13624976D01*
X16117024Y-13720214D01*
X16126548Y-13710690D01*
X16145595Y-13701167D01*
X16193214Y-13701167D01*
X16212262Y-13710690D01*
X16221786Y-13720214D01*
X16231309Y-13739262D01*
X16231309Y-13786881D01*
X16221786Y-13805928D01*
X16212262Y-13815452D01*
X16193214Y-13824976D01*
X16145595Y-13824976D01*
X16126548Y-13815452D01*
X16117024Y-13805928D01*
X16297976Y-13624976D02*
X16421786Y-13624976D01*
X16355119Y-13701167D01*
X16383690Y-13701167D01*
X16402738Y-13710690D01*
X16412262Y-13720214D01*
X16421786Y-13739262D01*
X16421786Y-13786881D01*
X16412262Y-13805928D01*
X16402738Y-13815452D01*
X16383690Y-13824976D01*
X16326548Y-13824976D01*
X16307500Y-13815452D01*
X16297976Y-13805928D01*
X16497976Y-13624976D02*
X16497976Y-13663071D01*
X16574167Y-13624976D02*
X16574167Y-13663071D01*
X16869405Y-13901167D02*
X16859881Y-13891643D01*
X16840833Y-13863071D01*
X16831310Y-13844024D01*
X16821786Y-13815452D01*
X16812262Y-13767833D01*
X16812262Y-13729738D01*
X16821786Y-13682119D01*
X16831310Y-13653548D01*
X16840833Y-13634500D01*
X16859881Y-13605928D01*
X16869405Y-13596405D01*
X16936071Y-13644024D02*
X16945595Y-13634500D01*
X16964643Y-13624976D01*
X17012262Y-13624976D01*
X17031310Y-13634500D01*
X17040833Y-13644024D01*
X17050357Y-13663071D01*
X17050357Y-13682119D01*
X17040833Y-13710690D01*
X16926548Y-13824976D01*
X17050357Y-13824976D01*
X17221786Y-13691643D02*
X17221786Y-13824976D01*
X17174167Y-13615452D02*
X17126548Y-13758309D01*
X17250357Y-13758309D01*
X17478929Y-13824976D02*
X17478929Y-13624976D01*
X17564643Y-13824976D02*
X17564643Y-13720214D01*
X17555119Y-13701167D01*
X17536071Y-13691643D01*
X17507500Y-13691643D01*
X17488452Y-13701167D01*
X17478929Y-13710690D01*
X17688452Y-13824976D02*
X17669405Y-13815452D01*
X17659881Y-13805928D01*
X17650357Y-13786881D01*
X17650357Y-13729738D01*
X17659881Y-13710690D01*
X17669405Y-13701167D01*
X17688452Y-13691643D01*
X17717024Y-13691643D01*
X17736071Y-13701167D01*
X17745595Y-13710690D01*
X17755119Y-13729738D01*
X17755119Y-13786881D01*
X17745595Y-13805928D01*
X17736071Y-13815452D01*
X17717024Y-13824976D01*
X17688452Y-13824976D01*
X17869405Y-13824976D02*
X17850357Y-13815452D01*
X17840833Y-13796405D01*
X17840833Y-13624976D01*
X18021786Y-13815452D02*
X18002738Y-13824976D01*
X17964643Y-13824976D01*
X17945595Y-13815452D01*
X17936071Y-13796405D01*
X17936071Y-13720214D01*
X17945595Y-13701167D01*
X17964643Y-13691643D01*
X18002738Y-13691643D01*
X18021786Y-13701167D01*
X18031310Y-13720214D01*
X18031310Y-13739262D01*
X17936071Y-13758309D01*
X18107500Y-13815452D02*
X18126548Y-13824976D01*
X18164643Y-13824976D01*
X18183690Y-13815452D01*
X18193214Y-13796405D01*
X18193214Y-13786881D01*
X18183690Y-13767833D01*
X18164643Y-13758309D01*
X18136071Y-13758309D01*
X18117024Y-13748786D01*
X18107500Y-13729738D01*
X18107500Y-13720214D01*
X18117024Y-13701167D01*
X18136071Y-13691643D01*
X18164643Y-13691643D01*
X18183690Y-13701167D01*
X18259881Y-13901167D02*
X18269405Y-13891643D01*
X18288452Y-13863071D01*
X18297976Y-13844024D01*
X18307500Y-13815452D01*
X18317024Y-13767833D01*
X18317024Y-13729738D01*
X18307500Y-13682119D01*
X18297976Y-13653548D01*
X18288452Y-13634500D01*
X18269405Y-13605928D01*
X18259881Y-13596405D01*
D15*
X13232500Y-14063500D02*
X13297500Y-13998500D01*
X13232500Y-13933500D01*
X13167500Y-13998500D01*
X13232500Y-14063500D01*
D11*
X13659881Y-14088976D02*
X13545595Y-14088976D01*
X13602738Y-14088976D02*
X13602738Y-13888976D01*
X13583690Y-13917548D01*
X13564643Y-13936595D01*
X13545595Y-13946119D01*
X13745595Y-14069928D02*
X13755119Y-14079452D01*
X13745595Y-14088976D01*
X13736071Y-14079452D01*
X13745595Y-14069928D01*
X13745595Y-14088976D01*
X13821786Y-13888976D02*
X13945595Y-13888976D01*
X13878928Y-13965167D01*
X13907500Y-13965167D01*
X13926548Y-13974690D01*
X13936071Y-13984214D01*
X13945595Y-14003262D01*
X13945595Y-14050881D01*
X13936071Y-14069928D01*
X13926548Y-14079452D01*
X13907500Y-14088976D01*
X13850357Y-14088976D01*
X13831309Y-14079452D01*
X13821786Y-14069928D01*
X14069405Y-13888976D02*
X14088452Y-13888976D01*
X14107500Y-13898500D01*
X14117024Y-13908024D01*
X14126548Y-13927071D01*
X14136071Y-13965167D01*
X14136071Y-14012786D01*
X14126548Y-14050881D01*
X14117024Y-14069928D01*
X14107500Y-14079452D01*
X14088452Y-14088976D01*
X14069405Y-14088976D01*
X14050357Y-14079452D01*
X14040833Y-14069928D01*
X14031309Y-14050881D01*
X14021786Y-14012786D01*
X14021786Y-13965167D01*
X14031309Y-13927071D01*
X14040833Y-13908024D01*
X14050357Y-13898500D01*
X14069405Y-13888976D01*
X14259881Y-13888976D02*
X14278928Y-13888976D01*
X14297976Y-13898500D01*
X14307500Y-13908024D01*
X14317024Y-13927071D01*
X14326548Y-13965167D01*
X14326548Y-14012786D01*
X14317024Y-14050881D01*
X14307500Y-14069928D01*
X14297976Y-14079452D01*
X14278928Y-14088976D01*
X14259881Y-14088976D01*
X14240833Y-14079452D01*
X14231309Y-14069928D01*
X14221786Y-14050881D01*
X14212262Y-14012786D01*
X14212262Y-13965167D01*
X14221786Y-13927071D01*
X14231309Y-13908024D01*
X14240833Y-13898500D01*
X14259881Y-13888976D01*
X14412262Y-14088976D02*
X14412262Y-13955643D01*
X14412262Y-13974690D02*
X14421786Y-13965167D01*
X14440833Y-13955643D01*
X14469405Y-13955643D01*
X14488452Y-13965167D01*
X14497976Y-13984214D01*
X14497976Y-14088976D01*
X14497976Y-13984214D02*
X14507500Y-13965167D01*
X14526548Y-13955643D01*
X14555119Y-13955643D01*
X14574167Y-13965167D01*
X14583690Y-13984214D01*
X14583690Y-14088976D01*
X14678928Y-14088976D02*
X14678928Y-13955643D01*
X14678928Y-13974690D02*
X14688452Y-13965167D01*
X14707500Y-13955643D01*
X14736071Y-13955643D01*
X14755119Y-13965167D01*
X14764643Y-13984214D01*
X14764643Y-14088976D01*
X14764643Y-13984214D02*
X14774167Y-13965167D01*
X14793214Y-13955643D01*
X14821786Y-13955643D01*
X14840833Y-13965167D01*
X14850357Y-13984214D01*
X14850357Y-14088976D01*
X15240833Y-13879452D02*
X15069405Y-14136595D01*
X15497976Y-13888976D02*
X15517024Y-13888976D01*
X15536071Y-13898500D01*
X15545595Y-13908024D01*
X15555119Y-13927071D01*
X15564643Y-13965167D01*
X15564643Y-14012786D01*
X15555119Y-14050881D01*
X15545595Y-14069928D01*
X15536071Y-14079452D01*
X15517024Y-14088976D01*
X15497976Y-14088976D01*
X15478928Y-14079452D01*
X15469405Y-14069928D01*
X15459881Y-14050881D01*
X15450357Y-14012786D01*
X15450357Y-13965167D01*
X15459881Y-13927071D01*
X15469405Y-13908024D01*
X15478928Y-13898500D01*
X15497976Y-13888976D01*
X15650357Y-14069928D02*
X15659881Y-14079452D01*
X15650357Y-14088976D01*
X15640833Y-14079452D01*
X15650357Y-14069928D01*
X15650357Y-14088976D01*
X15783690Y-13888976D02*
X15802738Y-13888976D01*
X15821786Y-13898500D01*
X15831309Y-13908024D01*
X15840833Y-13927071D01*
X15850357Y-13965167D01*
X15850357Y-14012786D01*
X15840833Y-14050881D01*
X15831309Y-14069928D01*
X15821786Y-14079452D01*
X15802738Y-14088976D01*
X15783690Y-14088976D01*
X15764643Y-14079452D01*
X15755119Y-14069928D01*
X15745595Y-14050881D01*
X15736071Y-14012786D01*
X15736071Y-13965167D01*
X15745595Y-13927071D01*
X15755119Y-13908024D01*
X15764643Y-13898500D01*
X15783690Y-13888976D01*
X16031309Y-13888976D02*
X15936071Y-13888976D01*
X15926548Y-13984214D01*
X15936071Y-13974690D01*
X15955119Y-13965167D01*
X16002738Y-13965167D01*
X16021786Y-13974690D01*
X16031309Y-13984214D01*
X16040833Y-14003262D01*
X16040833Y-14050881D01*
X16031309Y-14069928D01*
X16021786Y-14079452D01*
X16002738Y-14088976D01*
X15955119Y-14088976D01*
X15936071Y-14079452D01*
X15926548Y-14069928D01*
X16231309Y-14088976D02*
X16117024Y-14088976D01*
X16174167Y-14088976D02*
X16174167Y-13888976D01*
X16155119Y-13917548D01*
X16136071Y-13936595D01*
X16117024Y-13946119D01*
X16307500Y-13908024D02*
X16317024Y-13898500D01*
X16336071Y-13888976D01*
X16383690Y-13888976D01*
X16402738Y-13898500D01*
X16412262Y-13908024D01*
X16421786Y-13927071D01*
X16421786Y-13946119D01*
X16412262Y-13974690D01*
X16297976Y-14088976D01*
X16421786Y-14088976D01*
X16497976Y-13888976D02*
X16497976Y-13927071D01*
X16574167Y-13888976D02*
X16574167Y-13927071D01*
X16869405Y-14165167D02*
X16859881Y-14155643D01*
X16840833Y-14127071D01*
X16831310Y-14108024D01*
X16821786Y-14079452D01*
X16812262Y-14031833D01*
X16812262Y-13993738D01*
X16821786Y-13946119D01*
X16831310Y-13917548D01*
X16840833Y-13898500D01*
X16859881Y-13869928D01*
X16869405Y-13860405D01*
X17040833Y-13888976D02*
X16945595Y-13888976D01*
X16936071Y-13984214D01*
X16945595Y-13974690D01*
X16964643Y-13965167D01*
X17012262Y-13965167D01*
X17031310Y-13974690D01*
X17040833Y-13984214D01*
X17050357Y-14003262D01*
X17050357Y-14050881D01*
X17040833Y-14069928D01*
X17031310Y-14079452D01*
X17012262Y-14088976D01*
X16964643Y-14088976D01*
X16945595Y-14079452D01*
X16936071Y-14069928D01*
X17288452Y-14088976D02*
X17288452Y-13888976D01*
X17374167Y-14088976D02*
X17374167Y-13984214D01*
X17364643Y-13965167D01*
X17345595Y-13955643D01*
X17317024Y-13955643D01*
X17297976Y-13965167D01*
X17288452Y-13974690D01*
X17497976Y-14088976D02*
X17478929Y-14079452D01*
X17469405Y-14069928D01*
X17459881Y-14050881D01*
X17459881Y-13993738D01*
X17469405Y-13974690D01*
X17478929Y-13965167D01*
X17497976Y-13955643D01*
X17526548Y-13955643D01*
X17545595Y-13965167D01*
X17555119Y-13974690D01*
X17564643Y-13993738D01*
X17564643Y-14050881D01*
X17555119Y-14069928D01*
X17545595Y-14079452D01*
X17526548Y-14088976D01*
X17497976Y-14088976D01*
X17678929Y-14088976D02*
X17659881Y-14079452D01*
X17650357Y-14060405D01*
X17650357Y-13888976D01*
X17831310Y-14079452D02*
X17812262Y-14088976D01*
X17774167Y-14088976D01*
X17755119Y-14079452D01*
X17745595Y-14060405D01*
X17745595Y-13984214D01*
X17755119Y-13965167D01*
X17774167Y-13955643D01*
X17812262Y-13955643D01*
X17831310Y-13965167D01*
X17840833Y-13984214D01*
X17840833Y-14003262D01*
X17745595Y-14022309D01*
X17917024Y-14079452D02*
X17936071Y-14088976D01*
X17974167Y-14088976D01*
X17993214Y-14079452D01*
X18002738Y-14060405D01*
X18002738Y-14050881D01*
X17993214Y-14031833D01*
X17974167Y-14022309D01*
X17945595Y-14022309D01*
X17926548Y-14012786D01*
X17917024Y-13993738D01*
X17917024Y-13984214D01*
X17926548Y-13965167D01*
X17945595Y-13955643D01*
X17974167Y-13955643D01*
X17993214Y-13965167D01*
X18069405Y-14165167D02*
X18078929Y-14155643D01*
X18097976Y-14127071D01*
X18107500Y-14108024D01*
X18117024Y-14079452D01*
X18126548Y-14031833D01*
X18126548Y-13993738D01*
X18117024Y-13946119D01*
X18107500Y-13917548D01*
X18097976Y-13898500D01*
X18078929Y-13869928D01*
X18069405Y-13860405D01*
X13097500Y-14162500D02*
X13297500Y-14362500D01*
X13297500Y-14162500D02*
X13097500Y-14362500D01*
X13297500Y-14262500D02*
G75*
G03*
X13297500Y-14262500I-100000J0D01*
G01*
X13536071Y-14152976D02*
X13659881Y-14152976D01*
X13593214Y-14229167D01*
X13621786Y-14229167D01*
X13640833Y-14238690D01*
X13650357Y-14248214D01*
X13659881Y-14267262D01*
X13659881Y-14314881D01*
X13650357Y-14333928D01*
X13640833Y-14343452D01*
X13621786Y-14352976D01*
X13564643Y-14352976D01*
X13545595Y-14343452D01*
X13536071Y-14333928D01*
X13745595Y-14333928D02*
X13755119Y-14343452D01*
X13745595Y-14352976D01*
X13736071Y-14343452D01*
X13745595Y-14333928D01*
X13745595Y-14352976D01*
X13831309Y-14172024D02*
X13840833Y-14162500D01*
X13859881Y-14152976D01*
X13907500Y-14152976D01*
X13926548Y-14162500D01*
X13936071Y-14172024D01*
X13945595Y-14191071D01*
X13945595Y-14210119D01*
X13936071Y-14238690D01*
X13821786Y-14352976D01*
X13945595Y-14352976D01*
X14069405Y-14152976D02*
X14088452Y-14152976D01*
X14107500Y-14162500D01*
X14117024Y-14172024D01*
X14126548Y-14191071D01*
X14136071Y-14229167D01*
X14136071Y-14276786D01*
X14126548Y-14314881D01*
X14117024Y-14333928D01*
X14107500Y-14343452D01*
X14088452Y-14352976D01*
X14069405Y-14352976D01*
X14050357Y-14343452D01*
X14040833Y-14333928D01*
X14031309Y-14314881D01*
X14021786Y-14276786D01*
X14021786Y-14229167D01*
X14031309Y-14191071D01*
X14040833Y-14172024D01*
X14050357Y-14162500D01*
X14069405Y-14152976D01*
X14259881Y-14152976D02*
X14278928Y-14152976D01*
X14297976Y-14162500D01*
X14307500Y-14172024D01*
X14317024Y-14191071D01*
X14326548Y-14229167D01*
X14326548Y-14276786D01*
X14317024Y-14314881D01*
X14307500Y-14333928D01*
X14297976Y-14343452D01*
X14278928Y-14352976D01*
X14259881Y-14352976D01*
X14240833Y-14343452D01*
X14231309Y-14333928D01*
X14221786Y-14314881D01*
X14212262Y-14276786D01*
X14212262Y-14229167D01*
X14221786Y-14191071D01*
X14231309Y-14172024D01*
X14240833Y-14162500D01*
X14259881Y-14152976D01*
X14412262Y-14352976D02*
X14412262Y-14219643D01*
X14412262Y-14238690D02*
X14421786Y-14229167D01*
X14440833Y-14219643D01*
X14469405Y-14219643D01*
X14488452Y-14229167D01*
X14497976Y-14248214D01*
X14497976Y-14352976D01*
X14497976Y-14248214D02*
X14507500Y-14229167D01*
X14526548Y-14219643D01*
X14555119Y-14219643D01*
X14574167Y-14229167D01*
X14583690Y-14248214D01*
X14583690Y-14352976D01*
X14678928Y-14352976D02*
X14678928Y-14219643D01*
X14678928Y-14238690D02*
X14688452Y-14229167D01*
X14707500Y-14219643D01*
X14736071Y-14219643D01*
X14755119Y-14229167D01*
X14764643Y-14248214D01*
X14764643Y-14352976D01*
X14764643Y-14248214D02*
X14774167Y-14229167D01*
X14793214Y-14219643D01*
X14821786Y-14219643D01*
X14840833Y-14229167D01*
X14850357Y-14248214D01*
X14850357Y-14352976D01*
X15240833Y-14143452D02*
X15069405Y-14400595D01*
X15497976Y-14152976D02*
X15517024Y-14152976D01*
X15536071Y-14162500D01*
X15545595Y-14172024D01*
X15555119Y-14191071D01*
X15564643Y-14229167D01*
X15564643Y-14276786D01*
X15555119Y-14314881D01*
X15545595Y-14333928D01*
X15536071Y-14343452D01*
X15517024Y-14352976D01*
X15497976Y-14352976D01*
X15478928Y-14343452D01*
X15469405Y-14333928D01*
X15459881Y-14314881D01*
X15450357Y-14276786D01*
X15450357Y-14229167D01*
X15459881Y-14191071D01*
X15469405Y-14172024D01*
X15478928Y-14162500D01*
X15497976Y-14152976D01*
X15650357Y-14333928D02*
X15659881Y-14343452D01*
X15650357Y-14352976D01*
X15640833Y-14343452D01*
X15650357Y-14333928D01*
X15650357Y-14352976D01*
X15850357Y-14352976D02*
X15736071Y-14352976D01*
X15793214Y-14352976D02*
X15793214Y-14152976D01*
X15774167Y-14181548D01*
X15755119Y-14200595D01*
X15736071Y-14210119D01*
X15926548Y-14172024D02*
X15936071Y-14162500D01*
X15955119Y-14152976D01*
X16002738Y-14152976D01*
X16021786Y-14162500D01*
X16031309Y-14172024D01*
X16040833Y-14191071D01*
X16040833Y-14210119D01*
X16031309Y-14238690D01*
X15917024Y-14352976D01*
X16040833Y-14352976D01*
X16212262Y-14152976D02*
X16174167Y-14152976D01*
X16155119Y-14162500D01*
X16145595Y-14172024D01*
X16126548Y-14200595D01*
X16117024Y-14238690D01*
X16117024Y-14314881D01*
X16126548Y-14333928D01*
X16136071Y-14343452D01*
X16155119Y-14352976D01*
X16193214Y-14352976D01*
X16212262Y-14343452D01*
X16221786Y-14333928D01*
X16231309Y-14314881D01*
X16231309Y-14267262D01*
X16221786Y-14248214D01*
X16212262Y-14238690D01*
X16193214Y-14229167D01*
X16155119Y-14229167D01*
X16136071Y-14238690D01*
X16126548Y-14248214D01*
X16117024Y-14267262D01*
X16355119Y-14152976D02*
X16374167Y-14152976D01*
X16393214Y-14162500D01*
X16402738Y-14172024D01*
X16412262Y-14191071D01*
X16421786Y-14229167D01*
X16421786Y-14276786D01*
X16412262Y-14314881D01*
X16402738Y-14333928D01*
X16393214Y-14343452D01*
X16374167Y-14352976D01*
X16355119Y-14352976D01*
X16336071Y-14343452D01*
X16326548Y-14333928D01*
X16317024Y-14314881D01*
X16307500Y-14276786D01*
X16307500Y-14229167D01*
X16317024Y-14191071D01*
X16326548Y-14172024D01*
X16336071Y-14162500D01*
X16355119Y-14152976D01*
X16497976Y-14152976D02*
X16497976Y-14191071D01*
X16574167Y-14152976D02*
X16574167Y-14191071D01*
X16869405Y-14429167D02*
X16859881Y-14419643D01*
X16840833Y-14391071D01*
X16831310Y-14372024D01*
X16821786Y-14343452D01*
X16812262Y-14295833D01*
X16812262Y-14257738D01*
X16821786Y-14210119D01*
X16831310Y-14181548D01*
X16840833Y-14162500D01*
X16859881Y-14133928D01*
X16869405Y-14124405D01*
X17031310Y-14219643D02*
X17031310Y-14352976D01*
X16983690Y-14143452D02*
X16936071Y-14286309D01*
X17059881Y-14286309D01*
X17288452Y-14352976D02*
X17288452Y-14152976D01*
X17374167Y-14352976D02*
X17374167Y-14248214D01*
X17364643Y-14229167D01*
X17345595Y-14219643D01*
X17317024Y-14219643D01*
X17297976Y-14229167D01*
X17288452Y-14238690D01*
X17497976Y-14352976D02*
X17478929Y-14343452D01*
X17469405Y-14333928D01*
X17459881Y-14314881D01*
X17459881Y-14257738D01*
X17469405Y-14238690D01*
X17478929Y-14229167D01*
X17497976Y-14219643D01*
X17526548Y-14219643D01*
X17545595Y-14229167D01*
X17555119Y-14238690D01*
X17564643Y-14257738D01*
X17564643Y-14314881D01*
X17555119Y-14333928D01*
X17545595Y-14343452D01*
X17526548Y-14352976D01*
X17497976Y-14352976D01*
X17678929Y-14352976D02*
X17659881Y-14343452D01*
X17650357Y-14324405D01*
X17650357Y-14152976D01*
X17831310Y-14343452D02*
X17812262Y-14352976D01*
X17774167Y-14352976D01*
X17755119Y-14343452D01*
X17745595Y-14324405D01*
X17745595Y-14248214D01*
X17755119Y-14229167D01*
X17774167Y-14219643D01*
X17812262Y-14219643D01*
X17831310Y-14229167D01*
X17840833Y-14248214D01*
X17840833Y-14267262D01*
X17745595Y-14286309D01*
X17917024Y-14343452D02*
X17936071Y-14352976D01*
X17974167Y-14352976D01*
X17993214Y-14343452D01*
X18002738Y-14324405D01*
X18002738Y-14314881D01*
X17993214Y-14295833D01*
X17974167Y-14286309D01*
X17945595Y-14286309D01*
X17926548Y-14276786D01*
X17917024Y-14257738D01*
X17917024Y-14248214D01*
X17926548Y-14229167D01*
X17945595Y-14219643D01*
X17974167Y-14219643D01*
X17993214Y-14229167D01*
X18069405Y-14429167D02*
X18078929Y-14419643D01*
X18097976Y-14391071D01*
X18107500Y-14372024D01*
X18117024Y-14343452D01*
X18126548Y-14295833D01*
X18126548Y-14257738D01*
X18117024Y-14210119D01*
X18107500Y-14181548D01*
X18097976Y-14162500D01*
X18078929Y-14133928D01*
X18069405Y-14124405D01*
M02*
