%TF.GenerationSoftware,KiCad,Pcbnew,(6.0.7)*%
%TF.CreationDate,2022-10-13T18:06:46+02:00*%
%TF.ProjectId,TMC6300-dev,544d4336-3330-4302-9d64-65762e6b6963,rev?*%
%TF.SameCoordinates,Original*%
%TF.FileFunction,Soldermask,Bot*%
%TF.FilePolarity,Negative*%
%FSLAX46Y46*%
G04 Gerber Fmt 4.6, Leading zero omitted, Abs format (unit mm)*
G04 Created by KiCad (PCBNEW (6.0.7)) date 2022-10-13 18:06:46*
%MOMM*%
%LPD*%
G01*
G04 APERTURE LIST*
%ADD10C,0.800000*%
%ADD11C,6.400000*%
%ADD12R,1.725000X1.725000*%
%ADD13C,1.725000*%
%ADD14C,1.950000*%
G04 APERTURE END LIST*
D10*
%TO.C,H103*%
X176600000Y-119000000D03*
X179000000Y-121400000D03*
X177302944Y-120697056D03*
X180697056Y-117302944D03*
D11*
X179000000Y-119000000D03*
D10*
X177302944Y-117302944D03*
X179000000Y-116600000D03*
X180697056Y-120697056D03*
X181400000Y-119000000D03*
%TD*%
%TO.C,H104*%
X179000000Y-78600000D03*
X177302944Y-82697056D03*
X177302944Y-79302944D03*
D11*
X179000000Y-81000000D03*
D10*
X180697056Y-82697056D03*
X181400000Y-81000000D03*
X176600000Y-81000000D03*
X179000000Y-83400000D03*
X180697056Y-79302944D03*
%TD*%
D12*
%TO.C,J104*%
X142800000Y-79000000D03*
D13*
X145340000Y-79000000D03*
X147880000Y-79000000D03*
%TD*%
D12*
%TO.C,J101*%
X168000000Y-79000000D03*
D13*
X170540000Y-79000000D03*
X173080000Y-79000000D03*
%TD*%
D14*
%TO.C,J107*%
X138000000Y-105760000D03*
X138000000Y-110840000D03*
%TD*%
D12*
%TO.C,J106*%
X155400000Y-121200000D03*
D13*
X152860000Y-121200000D03*
X150320000Y-121200000D03*
X147780000Y-121200000D03*
X145240000Y-121200000D03*
X142700000Y-121200000D03*
%TD*%
D14*
%TO.C,J105*%
X138000000Y-99180000D03*
X138000000Y-94100000D03*
X138000000Y-89020000D03*
%TD*%
D12*
%TO.C,J103*%
X151200000Y-79000000D03*
D13*
X153740000Y-79000000D03*
X156280000Y-79000000D03*
%TD*%
D11*
%TO.C,H102*%
X137000000Y-119000000D03*
D10*
X137000000Y-121400000D03*
X138697056Y-117302944D03*
X135302944Y-120697056D03*
X139400000Y-119000000D03*
X135302944Y-117302944D03*
X138697056Y-120697056D03*
X134600000Y-119000000D03*
X137000000Y-116600000D03*
%TD*%
%TO.C,H101*%
X138697056Y-79302944D03*
X135302944Y-79302944D03*
X134600000Y-81000000D03*
X135302944Y-82697056D03*
X139400000Y-81000000D03*
X137000000Y-78600000D03*
X138697056Y-82697056D03*
D11*
X137000000Y-81000000D03*
D10*
X137000000Y-83400000D03*
%TD*%
D12*
%TO.C,J102*%
X159600000Y-79000000D03*
D13*
X162140000Y-79000000D03*
X164680000Y-79000000D03*
%TD*%
D12*
%TO.C,J108*%
X173300000Y-121200000D03*
D13*
X170760000Y-121200000D03*
X168220000Y-121200000D03*
X165680000Y-121200000D03*
X163140000Y-121200000D03*
X160600000Y-121200000D03*
%TD*%
M02*
