%TF.GenerationSoftware,KiCad,Pcbnew,(6.0.7)*%
%TF.CreationDate,2022-10-13T18:06:46+02:00*%
%TF.ProjectId,TMC6300-dev,544d4336-3330-4302-9d64-65762e6b6963,rev?*%
%TF.SameCoordinates,Original*%
%TF.FileFunction,Legend,Bot*%
%TF.FilePolarity,Positive*%
%FSLAX46Y46*%
G04 Gerber Fmt 4.6, Leading zero omitted, Abs format (unit mm)*
G04 Created by KiCad (PCBNEW (6.0.7)) date 2022-10-13 18:06:46*
%MOMM*%
%LPD*%
G01*
G04 APERTURE LIST*
%ADD10C,0.150000*%
G04 APERTURE END LIST*
D10*
X180278571Y-98807142D02*
X181492857Y-98807142D01*
X181635714Y-98878571D01*
X181707142Y-98950000D01*
X181778571Y-99092857D01*
X181778571Y-99378571D01*
X181707142Y-99521428D01*
X181635714Y-99592857D01*
X181492857Y-99664285D01*
X180278571Y-99664285D01*
X181707142Y-100307142D02*
X181778571Y-100521428D01*
X181778571Y-100878571D01*
X181707142Y-101021428D01*
X181635714Y-101092857D01*
X181492857Y-101164285D01*
X181350000Y-101164285D01*
X181207142Y-101092857D01*
X181135714Y-101021428D01*
X181064285Y-100878571D01*
X180992857Y-100592857D01*
X180921428Y-100450000D01*
X180850000Y-100378571D01*
X180707142Y-100307142D01*
X180564285Y-100307142D01*
X180421428Y-100378571D01*
X180350000Y-100450000D01*
X180278571Y-100592857D01*
X180278571Y-100950000D01*
X180350000Y-101164285D01*
X180992857Y-102307142D02*
X181064285Y-102521428D01*
X181135714Y-102592857D01*
X181278571Y-102664285D01*
X181492857Y-102664285D01*
X181635714Y-102592857D01*
X181707142Y-102521428D01*
X181778571Y-102378571D01*
X181778571Y-101807142D01*
X180278571Y-101807142D01*
X180278571Y-102307142D01*
X180350000Y-102450000D01*
X180421428Y-102521428D01*
X180564285Y-102592857D01*
X180707142Y-102592857D01*
X180850000Y-102521428D01*
X180921428Y-102450000D01*
X180992857Y-102307142D01*
X180992857Y-101807142D01*
X173552380Y-80835595D02*
X172552380Y-80835595D01*
X173552380Y-81311785D02*
X172552380Y-81311785D01*
X173552380Y-81883214D01*
X172552380Y-81883214D01*
X172885714Y-82787976D02*
X173552380Y-82787976D01*
X172504761Y-82549880D02*
X173219047Y-82311785D01*
X173219047Y-82930833D01*
X167452380Y-80692738D02*
X168452380Y-81026071D01*
X167452380Y-81359404D01*
X168452380Y-81692738D02*
X167452380Y-81692738D01*
X167452380Y-81930833D01*
X167500000Y-82073690D01*
X167595238Y-82168928D01*
X167690476Y-82216547D01*
X167880952Y-82264166D01*
X168023809Y-82264166D01*
X168214285Y-82216547D01*
X168309523Y-82168928D01*
X168404761Y-82073690D01*
X168452380Y-81930833D01*
X168452380Y-81692738D01*
X168452380Y-82692738D02*
X167452380Y-82692738D01*
X167452380Y-82930833D01*
X167500000Y-83073690D01*
X167595238Y-83168928D01*
X167690476Y-83216547D01*
X167880952Y-83264166D01*
X168023809Y-83264166D01*
X168214285Y-83216547D01*
X168309523Y-83168928D01*
X168404761Y-83073690D01*
X168452380Y-82930833D01*
X168452380Y-82692738D01*
X170000000Y-81359404D02*
X169952380Y-81264166D01*
X169952380Y-81121309D01*
X170000000Y-80978452D01*
X170095238Y-80883214D01*
X170190476Y-80835595D01*
X170380952Y-80787976D01*
X170523809Y-80787976D01*
X170714285Y-80835595D01*
X170809523Y-80883214D01*
X170904761Y-80978452D01*
X170952380Y-81121309D01*
X170952380Y-81216547D01*
X170904761Y-81359404D01*
X170857142Y-81407023D01*
X170523809Y-81407023D01*
X170523809Y-81216547D01*
X170952380Y-81835595D02*
X169952380Y-81835595D01*
X170952380Y-82407023D01*
X169952380Y-82407023D01*
X170952380Y-82883214D02*
X169952380Y-82883214D01*
X169952380Y-83121309D01*
X170000000Y-83264166D01*
X170095238Y-83359404D01*
X170190476Y-83407023D01*
X170380952Y-83454642D01*
X170523809Y-83454642D01*
X170714285Y-83407023D01*
X170809523Y-83359404D01*
X170904761Y-83264166D01*
X170952380Y-83121309D01*
X170952380Y-82883214D01*
X165152380Y-80835595D02*
X164152380Y-80835595D01*
X165152380Y-81311785D02*
X164152380Y-81311785D01*
X165152380Y-81883214D01*
X164152380Y-81883214D01*
X164152380Y-82835595D02*
X164152380Y-82359404D01*
X164628571Y-82311785D01*
X164580952Y-82359404D01*
X164533333Y-82454642D01*
X164533333Y-82692738D01*
X164580952Y-82787976D01*
X164628571Y-82835595D01*
X164723809Y-82883214D01*
X164961904Y-82883214D01*
X165057142Y-82835595D01*
X165104761Y-82787976D01*
X165152380Y-82692738D01*
X165152380Y-82454642D01*
X165104761Y-82359404D01*
X165057142Y-82311785D01*
X159052380Y-80692738D02*
X160052380Y-81026071D01*
X159052380Y-81359404D01*
X160052380Y-81692738D02*
X159052380Y-81692738D01*
X159052380Y-81930833D01*
X159100000Y-82073690D01*
X159195238Y-82168928D01*
X159290476Y-82216547D01*
X159480952Y-82264166D01*
X159623809Y-82264166D01*
X159814285Y-82216547D01*
X159909523Y-82168928D01*
X160004761Y-82073690D01*
X160052380Y-81930833D01*
X160052380Y-81692738D01*
X160052380Y-82692738D02*
X159052380Y-82692738D01*
X159052380Y-82930833D01*
X159100000Y-83073690D01*
X159195238Y-83168928D01*
X159290476Y-83216547D01*
X159480952Y-83264166D01*
X159623809Y-83264166D01*
X159814285Y-83216547D01*
X159909523Y-83168928D01*
X160004761Y-83073690D01*
X160052380Y-82930833D01*
X160052380Y-82692738D01*
X161600000Y-81359404D02*
X161552380Y-81264166D01*
X161552380Y-81121309D01*
X161600000Y-80978452D01*
X161695238Y-80883214D01*
X161790476Y-80835595D01*
X161980952Y-80787976D01*
X162123809Y-80787976D01*
X162314285Y-80835595D01*
X162409523Y-80883214D01*
X162504761Y-80978452D01*
X162552380Y-81121309D01*
X162552380Y-81216547D01*
X162504761Y-81359404D01*
X162457142Y-81407023D01*
X162123809Y-81407023D01*
X162123809Y-81216547D01*
X162552380Y-81835595D02*
X161552380Y-81835595D01*
X162552380Y-82407023D01*
X161552380Y-82407023D01*
X162552380Y-82883214D02*
X161552380Y-82883214D01*
X161552380Y-83121309D01*
X161600000Y-83264166D01*
X161695238Y-83359404D01*
X161790476Y-83407023D01*
X161980952Y-83454642D01*
X162123809Y-83454642D01*
X162314285Y-83407023D01*
X162409523Y-83359404D01*
X162504761Y-83264166D01*
X162552380Y-83121309D01*
X162552380Y-82883214D01*
X156752380Y-80835595D02*
X155752380Y-80835595D01*
X156752380Y-81311785D02*
X155752380Y-81311785D01*
X156752380Y-81883214D01*
X155752380Y-81883214D01*
X156752380Y-82883214D02*
X156752380Y-82311785D01*
X156752380Y-82597500D02*
X155752380Y-82597500D01*
X155895238Y-82502261D01*
X155990476Y-82407023D01*
X156038095Y-82311785D01*
X155752380Y-83502261D02*
X155752380Y-83597500D01*
X155800000Y-83692738D01*
X155847619Y-83740357D01*
X155942857Y-83787976D01*
X156133333Y-83835595D01*
X156371428Y-83835595D01*
X156561904Y-83787976D01*
X156657142Y-83740357D01*
X156704761Y-83692738D01*
X156752380Y-83597500D01*
X156752380Y-83502261D01*
X156704761Y-83407023D01*
X156657142Y-83359404D01*
X156561904Y-83311785D01*
X156371428Y-83264166D01*
X156133333Y-83264166D01*
X155942857Y-83311785D01*
X155847619Y-83359404D01*
X155800000Y-83407023D01*
X155752380Y-83502261D01*
X150652380Y-80692738D02*
X151652380Y-81026071D01*
X150652380Y-81359404D01*
X151652380Y-81692738D02*
X150652380Y-81692738D01*
X150652380Y-81930833D01*
X150700000Y-82073690D01*
X150795238Y-82168928D01*
X150890476Y-82216547D01*
X151080952Y-82264166D01*
X151223809Y-82264166D01*
X151414285Y-82216547D01*
X151509523Y-82168928D01*
X151604761Y-82073690D01*
X151652380Y-81930833D01*
X151652380Y-81692738D01*
X151652380Y-82692738D02*
X150652380Y-82692738D01*
X150652380Y-82930833D01*
X150700000Y-83073690D01*
X150795238Y-83168928D01*
X150890476Y-83216547D01*
X151080952Y-83264166D01*
X151223809Y-83264166D01*
X151414285Y-83216547D01*
X151509523Y-83168928D01*
X151604761Y-83073690D01*
X151652380Y-82930833D01*
X151652380Y-82692738D01*
X153200000Y-81359404D02*
X153152380Y-81264166D01*
X153152380Y-81121309D01*
X153200000Y-80978452D01*
X153295238Y-80883214D01*
X153390476Y-80835595D01*
X153580952Y-80787976D01*
X153723809Y-80787976D01*
X153914285Y-80835595D01*
X154009523Y-80883214D01*
X154104761Y-80978452D01*
X154152380Y-81121309D01*
X154152380Y-81216547D01*
X154104761Y-81359404D01*
X154057142Y-81407023D01*
X153723809Y-81407023D01*
X153723809Y-81216547D01*
X154152380Y-81835595D02*
X153152380Y-81835595D01*
X154152380Y-82407023D01*
X153152380Y-82407023D01*
X154152380Y-82883214D02*
X153152380Y-82883214D01*
X153152380Y-83121309D01*
X153200000Y-83264166D01*
X153295238Y-83359404D01*
X153390476Y-83407023D01*
X153580952Y-83454642D01*
X153723809Y-83454642D01*
X153914285Y-83407023D01*
X154009523Y-83359404D01*
X154104761Y-83264166D01*
X154152380Y-83121309D01*
X154152380Y-82883214D01*
X148352380Y-80835595D02*
X147352380Y-80835595D01*
X148352380Y-81311785D02*
X147352380Y-81311785D01*
X148352380Y-81883214D01*
X147352380Y-81883214D01*
X148352380Y-82883214D02*
X148352380Y-82311785D01*
X148352380Y-82597500D02*
X147352380Y-82597500D01*
X147495238Y-82502261D01*
X147590476Y-82407023D01*
X147638095Y-82311785D01*
X148352380Y-83835595D02*
X148352380Y-83264166D01*
X148352380Y-83549880D02*
X147352380Y-83549880D01*
X147495238Y-83454642D01*
X147590476Y-83359404D01*
X147638095Y-83264166D01*
X144800000Y-81359404D02*
X144752380Y-81264166D01*
X144752380Y-81121309D01*
X144800000Y-80978452D01*
X144895238Y-80883214D01*
X144990476Y-80835595D01*
X145180952Y-80787976D01*
X145323809Y-80787976D01*
X145514285Y-80835595D01*
X145609523Y-80883214D01*
X145704761Y-80978452D01*
X145752380Y-81121309D01*
X145752380Y-81216547D01*
X145704761Y-81359404D01*
X145657142Y-81407023D01*
X145323809Y-81407023D01*
X145323809Y-81216547D01*
X145752380Y-81835595D02*
X144752380Y-81835595D01*
X145752380Y-82407023D01*
X144752380Y-82407023D01*
X145752380Y-82883214D02*
X144752380Y-82883214D01*
X144752380Y-83121309D01*
X144800000Y-83264166D01*
X144895238Y-83359404D01*
X144990476Y-83407023D01*
X145180952Y-83454642D01*
X145323809Y-83454642D01*
X145514285Y-83407023D01*
X145609523Y-83359404D01*
X145704761Y-83264166D01*
X145752380Y-83121309D01*
X145752380Y-82883214D01*
X142252380Y-80692738D02*
X143252380Y-81026071D01*
X142252380Y-81359404D01*
X143252380Y-81692738D02*
X142252380Y-81692738D01*
X142252380Y-81930833D01*
X142300000Y-82073690D01*
X142395238Y-82168928D01*
X142490476Y-82216547D01*
X142680952Y-82264166D01*
X142823809Y-82264166D01*
X143014285Y-82216547D01*
X143109523Y-82168928D01*
X143204761Y-82073690D01*
X143252380Y-81930833D01*
X143252380Y-81692738D01*
X143252380Y-82692738D02*
X142252380Y-82692738D01*
X142252380Y-82930833D01*
X142300000Y-83073690D01*
X142395238Y-83168928D01*
X142490476Y-83216547D01*
X142680952Y-83264166D01*
X142823809Y-83264166D01*
X143014285Y-83216547D01*
X143109523Y-83168928D01*
X143204761Y-83073690D01*
X143252380Y-82930833D01*
X143252380Y-82692738D01*
X135621428Y-99842857D02*
X134121428Y-99485714D01*
X135192857Y-99200000D01*
X134121428Y-98914285D01*
X135621428Y-98557142D01*
X135621428Y-94600000D02*
X134121428Y-94100000D01*
X135621428Y-93600000D01*
X135621428Y-89428571D02*
X134407142Y-89428571D01*
X134264285Y-89357142D01*
X134192857Y-89285714D01*
X134121428Y-89142857D01*
X134121428Y-88857142D01*
X134192857Y-88714285D01*
X134264285Y-88642857D01*
X134407142Y-88571428D01*
X135621428Y-88571428D01*
X135200000Y-111661904D02*
X135247619Y-111757142D01*
X135247619Y-111900000D01*
X135200000Y-112042857D01*
X135104761Y-112138095D01*
X135009523Y-112185714D01*
X134819047Y-112233333D01*
X134676190Y-112233333D01*
X134485714Y-112185714D01*
X134390476Y-112138095D01*
X134295238Y-112042857D01*
X134247619Y-111900000D01*
X134247619Y-111804761D01*
X134295238Y-111661904D01*
X134342857Y-111614285D01*
X134676190Y-111614285D01*
X134676190Y-111804761D01*
X134247619Y-111185714D02*
X135247619Y-111185714D01*
X134247619Y-110614285D01*
X135247619Y-110614285D01*
X134247619Y-110138095D02*
X135247619Y-110138095D01*
X135247619Y-109900000D01*
X135200000Y-109757142D01*
X135104761Y-109661904D01*
X135009523Y-109614285D01*
X134819047Y-109566666D01*
X134676190Y-109566666D01*
X134485714Y-109614285D01*
X134390476Y-109661904D01*
X134295238Y-109757142D01*
X134247619Y-109900000D01*
X134247619Y-110138095D01*
X134247619Y-106419047D02*
X134247619Y-106990476D01*
X134247619Y-106704761D02*
X135247619Y-106704761D01*
X135104761Y-106800000D01*
X135009523Y-106895238D01*
X134961904Y-106990476D01*
X135247619Y-105800000D02*
X135247619Y-105704761D01*
X135200000Y-105609523D01*
X135152380Y-105561904D01*
X135057142Y-105514285D01*
X134866666Y-105466666D01*
X134628571Y-105466666D01*
X134438095Y-105514285D01*
X134342857Y-105561904D01*
X134295238Y-105609523D01*
X134247619Y-105704761D01*
X134247619Y-105800000D01*
X134295238Y-105895238D01*
X134342857Y-105942857D01*
X134438095Y-105990476D01*
X134628571Y-106038095D01*
X134866666Y-106038095D01*
X135057142Y-105990476D01*
X135152380Y-105942857D01*
X135200000Y-105895238D01*
X135247619Y-105800000D01*
X135247619Y-105180952D02*
X134247619Y-104847619D01*
X135247619Y-104514285D01*
X142295238Y-119612023D02*
X142247619Y-119469166D01*
X142247619Y-119231071D01*
X142295238Y-119135833D01*
X142342857Y-119088214D01*
X142438095Y-119040595D01*
X142533333Y-119040595D01*
X142628571Y-119088214D01*
X142676190Y-119135833D01*
X142723809Y-119231071D01*
X142771428Y-119421547D01*
X142819047Y-119516785D01*
X142866666Y-119564404D01*
X142961904Y-119612023D01*
X143057142Y-119612023D01*
X143152380Y-119564404D01*
X143200000Y-119516785D01*
X143247619Y-119421547D01*
X143247619Y-119183452D01*
X143200000Y-119040595D01*
X143247619Y-118707261D02*
X142247619Y-118469166D01*
X142961904Y-118278690D01*
X142247619Y-118088214D01*
X143247619Y-117850119D01*
X142247619Y-117469166D02*
X143247619Y-117469166D01*
X143247619Y-117231071D01*
X143200000Y-117088214D01*
X143104761Y-116992976D01*
X143009523Y-116945357D01*
X142819047Y-116897738D01*
X142676190Y-116897738D01*
X142485714Y-116945357D01*
X142390476Y-116992976D01*
X142295238Y-117088214D01*
X142247619Y-117231071D01*
X142247619Y-117469166D01*
X142247619Y-116469166D02*
X143247619Y-116469166D01*
X143247619Y-115802500D02*
X143247619Y-115612023D01*
X143200000Y-115516785D01*
X143104761Y-115421547D01*
X142914285Y-115373928D01*
X142580952Y-115373928D01*
X142390476Y-115421547D01*
X142295238Y-115516785D01*
X142247619Y-115612023D01*
X142247619Y-115802500D01*
X142295238Y-115897738D01*
X142390476Y-115992976D01*
X142580952Y-116040595D01*
X142914285Y-116040595D01*
X143104761Y-115992976D01*
X143200000Y-115897738D01*
X143247619Y-115802500D01*
X144795238Y-119612023D02*
X144747619Y-119469166D01*
X144747619Y-119231071D01*
X144795238Y-119135833D01*
X144842857Y-119088214D01*
X144938095Y-119040595D01*
X145033333Y-119040595D01*
X145128571Y-119088214D01*
X145176190Y-119135833D01*
X145223809Y-119231071D01*
X145271428Y-119421547D01*
X145319047Y-119516785D01*
X145366666Y-119564404D01*
X145461904Y-119612023D01*
X145557142Y-119612023D01*
X145652380Y-119564404D01*
X145700000Y-119516785D01*
X145747619Y-119421547D01*
X145747619Y-119183452D01*
X145700000Y-119040595D01*
X145747619Y-118707261D02*
X144747619Y-118469166D01*
X145461904Y-118278690D01*
X144747619Y-118088214D01*
X145747619Y-117850119D01*
X144842857Y-116897738D02*
X144795238Y-116945357D01*
X144747619Y-117088214D01*
X144747619Y-117183452D01*
X144795238Y-117326309D01*
X144890476Y-117421547D01*
X144985714Y-117469166D01*
X145176190Y-117516785D01*
X145319047Y-117516785D01*
X145509523Y-117469166D01*
X145604761Y-117421547D01*
X145700000Y-117326309D01*
X145747619Y-117183452D01*
X145747619Y-117088214D01*
X145700000Y-116945357D01*
X145652380Y-116897738D01*
X144747619Y-115992976D02*
X144747619Y-116469166D01*
X145747619Y-116469166D01*
X144747619Y-115659642D02*
X145747619Y-115659642D01*
X144747619Y-115088214D02*
X145319047Y-115516785D01*
X145747619Y-115088214D02*
X145176190Y-115659642D01*
X147395238Y-119612023D02*
X147347619Y-119469166D01*
X147347619Y-119231071D01*
X147395238Y-119135833D01*
X147442857Y-119088214D01*
X147538095Y-119040595D01*
X147633333Y-119040595D01*
X147728571Y-119088214D01*
X147776190Y-119135833D01*
X147823809Y-119231071D01*
X147871428Y-119421547D01*
X147919047Y-119516785D01*
X147966666Y-119564404D01*
X148061904Y-119612023D01*
X148157142Y-119612023D01*
X148252380Y-119564404D01*
X148300000Y-119516785D01*
X148347619Y-119421547D01*
X148347619Y-119183452D01*
X148300000Y-119040595D01*
X148347619Y-118707261D02*
X147347619Y-118469166D01*
X148061904Y-118278690D01*
X147347619Y-118088214D01*
X148347619Y-117850119D01*
X148347619Y-117278690D02*
X148347619Y-117088214D01*
X148300000Y-116992976D01*
X148204761Y-116897738D01*
X148014285Y-116850119D01*
X147680952Y-116850119D01*
X147490476Y-116897738D01*
X147395238Y-116992976D01*
X147347619Y-117088214D01*
X147347619Y-117278690D01*
X147395238Y-117373928D01*
X147490476Y-117469166D01*
X147680952Y-117516785D01*
X148014285Y-117516785D01*
X148204761Y-117469166D01*
X148300000Y-117373928D01*
X148347619Y-117278690D01*
X149847619Y-119564404D02*
X150847619Y-119564404D01*
X149847619Y-118992976D01*
X150847619Y-118992976D01*
X149847619Y-117945357D02*
X150323809Y-118278690D01*
X149847619Y-118516785D02*
X150847619Y-118516785D01*
X150847619Y-118135833D01*
X150800000Y-118040595D01*
X150752380Y-117992976D01*
X150657142Y-117945357D01*
X150514285Y-117945357D01*
X150419047Y-117992976D01*
X150371428Y-118040595D01*
X150323809Y-118135833D01*
X150323809Y-118516785D01*
X149895238Y-117564404D02*
X149847619Y-117421547D01*
X149847619Y-117183452D01*
X149895238Y-117088214D01*
X149942857Y-117040595D01*
X150038095Y-116992976D01*
X150133333Y-116992976D01*
X150228571Y-117040595D01*
X150276190Y-117088214D01*
X150323809Y-117183452D01*
X150371428Y-117373928D01*
X150419047Y-117469166D01*
X150466666Y-117516785D01*
X150561904Y-117564404D01*
X150657142Y-117564404D01*
X150752380Y-117516785D01*
X150800000Y-117469166D01*
X150847619Y-117373928D01*
X150847619Y-117135833D01*
X150800000Y-116992976D01*
X150847619Y-116707261D02*
X150847619Y-116135833D01*
X149847619Y-116421547D02*
X150847619Y-116421547D01*
X153400000Y-119040595D02*
X153447619Y-119135833D01*
X153447619Y-119278690D01*
X153400000Y-119421547D01*
X153304761Y-119516785D01*
X153209523Y-119564404D01*
X153019047Y-119612023D01*
X152876190Y-119612023D01*
X152685714Y-119564404D01*
X152590476Y-119516785D01*
X152495238Y-119421547D01*
X152447619Y-119278690D01*
X152447619Y-119183452D01*
X152495238Y-119040595D01*
X152542857Y-118992976D01*
X152876190Y-118992976D01*
X152876190Y-119183452D01*
X152447619Y-118564404D02*
X153447619Y-118564404D01*
X152447619Y-117992976D01*
X153447619Y-117992976D01*
X152447619Y-117516785D02*
X153447619Y-117516785D01*
X153447619Y-117278690D01*
X153400000Y-117135833D01*
X153304761Y-117040595D01*
X153209523Y-116992976D01*
X153019047Y-116945357D01*
X152876190Y-116945357D01*
X152685714Y-116992976D01*
X152590476Y-117040595D01*
X152495238Y-117135833D01*
X152447619Y-117278690D01*
X152447619Y-117516785D01*
X155947619Y-119707261D02*
X154947619Y-119373928D01*
X155947619Y-119040595D01*
X154947619Y-118707261D02*
X155947619Y-118707261D01*
X155947619Y-118469166D01*
X155900000Y-118326309D01*
X155804761Y-118231071D01*
X155709523Y-118183452D01*
X155519047Y-118135833D01*
X155376190Y-118135833D01*
X155185714Y-118183452D01*
X155090476Y-118231071D01*
X154995238Y-118326309D01*
X154947619Y-118469166D01*
X154947619Y-118707261D01*
X154947619Y-117707261D02*
X155947619Y-117707261D01*
X155947619Y-117469166D01*
X155900000Y-117326309D01*
X155804761Y-117231071D01*
X155709523Y-117183452D01*
X155519047Y-117135833D01*
X155376190Y-117135833D01*
X155185714Y-117183452D01*
X155090476Y-117231071D01*
X154995238Y-117326309D01*
X154947619Y-117469166D01*
X154947619Y-117707261D01*
X173847619Y-119707261D02*
X172847619Y-119373928D01*
X173847619Y-119040595D01*
X172847619Y-118707261D02*
X173847619Y-118707261D01*
X173847619Y-118469166D01*
X173800000Y-118326309D01*
X173704761Y-118231071D01*
X173609523Y-118183452D01*
X173419047Y-118135833D01*
X173276190Y-118135833D01*
X173085714Y-118183452D01*
X172990476Y-118231071D01*
X172895238Y-118326309D01*
X172847619Y-118469166D01*
X172847619Y-118707261D01*
X172847619Y-117707261D02*
X173847619Y-117707261D01*
X173847619Y-117469166D01*
X173800000Y-117326309D01*
X173704761Y-117231071D01*
X173609523Y-117183452D01*
X173419047Y-117135833D01*
X173276190Y-117135833D01*
X173085714Y-117183452D01*
X172990476Y-117231071D01*
X172895238Y-117326309D01*
X172847619Y-117469166D01*
X172847619Y-117707261D01*
X171300000Y-119040595D02*
X171347619Y-119135833D01*
X171347619Y-119278690D01*
X171300000Y-119421547D01*
X171204761Y-119516785D01*
X171109523Y-119564404D01*
X170919047Y-119612023D01*
X170776190Y-119612023D01*
X170585714Y-119564404D01*
X170490476Y-119516785D01*
X170395238Y-119421547D01*
X170347619Y-119278690D01*
X170347619Y-119183452D01*
X170395238Y-119040595D01*
X170442857Y-118992976D01*
X170776190Y-118992976D01*
X170776190Y-119183452D01*
X170347619Y-118564404D02*
X171347619Y-118564404D01*
X170347619Y-117992976D01*
X171347619Y-117992976D01*
X170347619Y-117516785D02*
X171347619Y-117516785D01*
X171347619Y-117278690D01*
X171300000Y-117135833D01*
X171204761Y-117040595D01*
X171109523Y-116992976D01*
X170919047Y-116945357D01*
X170776190Y-116945357D01*
X170585714Y-116992976D01*
X170490476Y-117040595D01*
X170395238Y-117135833D01*
X170347619Y-117278690D01*
X170347619Y-117516785D01*
X167747619Y-119564404D02*
X168747619Y-119564404D01*
X168747619Y-119183452D01*
X168700000Y-119088214D01*
X168652380Y-119040595D01*
X168557142Y-118992976D01*
X168414285Y-118992976D01*
X168319047Y-119040595D01*
X168271428Y-119088214D01*
X168223809Y-119183452D01*
X168223809Y-119564404D01*
X168271428Y-118231071D02*
X168223809Y-118088214D01*
X168176190Y-118040595D01*
X168080952Y-117992976D01*
X167938095Y-117992976D01*
X167842857Y-118040595D01*
X167795238Y-118088214D01*
X167747619Y-118183452D01*
X167747619Y-118564404D01*
X168747619Y-118564404D01*
X168747619Y-118231071D01*
X168700000Y-118135833D01*
X168652380Y-118088214D01*
X168557142Y-118040595D01*
X168461904Y-118040595D01*
X168366666Y-118088214D01*
X168319047Y-118135833D01*
X168271428Y-118231071D01*
X168271428Y-118564404D01*
X167747619Y-117516785D02*
X167747619Y-117326309D01*
X167795238Y-117231071D01*
X167842857Y-117183452D01*
X167985714Y-117088214D01*
X168176190Y-117040595D01*
X168557142Y-117040595D01*
X168652380Y-117088214D01*
X168700000Y-117135833D01*
X168747619Y-117231071D01*
X168747619Y-117421547D01*
X168700000Y-117516785D01*
X168652380Y-117564404D01*
X168557142Y-117612023D01*
X168319047Y-117612023D01*
X168223809Y-117564404D01*
X168176190Y-117516785D01*
X168128571Y-117421547D01*
X168128571Y-117231071D01*
X168176190Y-117135833D01*
X168223809Y-117088214D01*
X168319047Y-117040595D01*
X165247619Y-119564404D02*
X166247619Y-119564404D01*
X166247619Y-119183452D01*
X166200000Y-119088214D01*
X166152380Y-119040595D01*
X166057142Y-118992976D01*
X165914285Y-118992976D01*
X165819047Y-119040595D01*
X165771428Y-119088214D01*
X165723809Y-119183452D01*
X165723809Y-119564404D01*
X165771428Y-118231071D02*
X165723809Y-118088214D01*
X165676190Y-118040595D01*
X165580952Y-117992976D01*
X165438095Y-117992976D01*
X165342857Y-118040595D01*
X165295238Y-118088214D01*
X165247619Y-118183452D01*
X165247619Y-118564404D01*
X166247619Y-118564404D01*
X166247619Y-118231071D01*
X166200000Y-118135833D01*
X166152380Y-118088214D01*
X166057142Y-118040595D01*
X165961904Y-118040595D01*
X165866666Y-118088214D01*
X165819047Y-118135833D01*
X165771428Y-118231071D01*
X165771428Y-118564404D01*
X165819047Y-117421547D02*
X165866666Y-117516785D01*
X165914285Y-117564404D01*
X166009523Y-117612023D01*
X166057142Y-117612023D01*
X166152380Y-117564404D01*
X166200000Y-117516785D01*
X166247619Y-117421547D01*
X166247619Y-117231071D01*
X166200000Y-117135833D01*
X166152380Y-117088214D01*
X166057142Y-117040595D01*
X166009523Y-117040595D01*
X165914285Y-117088214D01*
X165866666Y-117135833D01*
X165819047Y-117231071D01*
X165819047Y-117421547D01*
X165771428Y-117516785D01*
X165723809Y-117564404D01*
X165628571Y-117612023D01*
X165438095Y-117612023D01*
X165342857Y-117564404D01*
X165295238Y-117516785D01*
X165247619Y-117421547D01*
X165247619Y-117231071D01*
X165295238Y-117135833D01*
X165342857Y-117088214D01*
X165438095Y-117040595D01*
X165628571Y-117040595D01*
X165723809Y-117088214D01*
X165771428Y-117135833D01*
X165819047Y-117231071D01*
X162747619Y-119564404D02*
X163747619Y-119564404D01*
X163747619Y-119183452D01*
X163700000Y-119088214D01*
X163652380Y-119040595D01*
X163557142Y-118992976D01*
X163414285Y-118992976D01*
X163319047Y-119040595D01*
X163271428Y-119088214D01*
X163223809Y-119183452D01*
X163223809Y-119564404D01*
X163271428Y-118231071D02*
X163223809Y-118088214D01*
X163176190Y-118040595D01*
X163080952Y-117992976D01*
X162938095Y-117992976D01*
X162842857Y-118040595D01*
X162795238Y-118088214D01*
X162747619Y-118183452D01*
X162747619Y-118564404D01*
X163747619Y-118564404D01*
X163747619Y-118231071D01*
X163700000Y-118135833D01*
X163652380Y-118088214D01*
X163557142Y-118040595D01*
X163461904Y-118040595D01*
X163366666Y-118088214D01*
X163319047Y-118135833D01*
X163271428Y-118231071D01*
X163271428Y-118564404D01*
X163747619Y-117088214D02*
X163747619Y-117564404D01*
X163271428Y-117612023D01*
X163319047Y-117564404D01*
X163366666Y-117469166D01*
X163366666Y-117231071D01*
X163319047Y-117135833D01*
X163271428Y-117088214D01*
X163176190Y-117040595D01*
X162938095Y-117040595D01*
X162842857Y-117088214D01*
X162795238Y-117135833D01*
X162747619Y-117231071D01*
X162747619Y-117469166D01*
X162795238Y-117564404D01*
X162842857Y-117612023D01*
X160147619Y-119564404D02*
X161147619Y-119564404D01*
X161147619Y-119183452D01*
X161100000Y-119088214D01*
X161052380Y-119040595D01*
X160957142Y-118992976D01*
X160814285Y-118992976D01*
X160719047Y-119040595D01*
X160671428Y-119088214D01*
X160623809Y-119183452D01*
X160623809Y-119564404D01*
X160671428Y-118231071D02*
X160623809Y-118088214D01*
X160576190Y-118040595D01*
X160480952Y-117992976D01*
X160338095Y-117992976D01*
X160242857Y-118040595D01*
X160195238Y-118088214D01*
X160147619Y-118183452D01*
X160147619Y-118564404D01*
X161147619Y-118564404D01*
X161147619Y-118231071D01*
X161100000Y-118135833D01*
X161052380Y-118088214D01*
X160957142Y-118040595D01*
X160861904Y-118040595D01*
X160766666Y-118088214D01*
X160719047Y-118135833D01*
X160671428Y-118231071D01*
X160671428Y-118564404D01*
X160814285Y-117135833D02*
X160147619Y-117135833D01*
X161195238Y-117373928D02*
X160480952Y-117612023D01*
X160480952Y-116992976D01*
M02*
