%TF.GenerationSoftware,KiCad,Pcbnew,(6.0.7)*%
%TF.CreationDate,2022-10-13T18:06:46+02:00*%
%TF.ProjectId,TMC6300-dev,544d4336-3330-4302-9d64-65762e6b6963,rev?*%
%TF.SameCoordinates,Original*%
%TF.FileFunction,Soldermask,Top*%
%TF.FilePolarity,Negative*%
%FSLAX46Y46*%
G04 Gerber Fmt 4.6, Leading zero omitted, Abs format (unit mm)*
G04 Created by KiCad (PCBNEW (6.0.7)) date 2022-10-13 18:06:46*
%MOMM*%
%LPD*%
G01*
G04 APERTURE LIST*
G04 Aperture macros list*
%AMRoundRect*
0 Rectangle with rounded corners*
0 $1 Rounding radius*
0 $2 $3 $4 $5 $6 $7 $8 $9 X,Y pos of 4 corners*
0 Add a 4 corners polygon primitive as box body*
4,1,4,$2,$3,$4,$5,$6,$7,$8,$9,$2,$3,0*
0 Add four circle primitives for the rounded corners*
1,1,$1+$1,$2,$3*
1,1,$1+$1,$4,$5*
1,1,$1+$1,$6,$7*
1,1,$1+$1,$8,$9*
0 Add four rect primitives between the rounded corners*
20,1,$1+$1,$2,$3,$4,$5,0*
20,1,$1+$1,$4,$5,$6,$7,0*
20,1,$1+$1,$6,$7,$8,$9,0*
20,1,$1+$1,$8,$9,$2,$3,0*%
G04 Aperture macros list end*
%ADD10RoundRect,0.225000X0.225000X0.250000X-0.225000X0.250000X-0.225000X-0.250000X0.225000X-0.250000X0*%
%ADD11R,0.600000X0.550000*%
%ADD12RoundRect,0.135000X0.135000X0.185000X-0.135000X0.185000X-0.135000X-0.185000X0.135000X-0.185000X0*%
%ADD13RoundRect,0.140000X-0.140000X-0.170000X0.140000X-0.170000X0.140000X0.170000X-0.140000X0.170000X0*%
%ADD14RoundRect,0.135000X-0.185000X0.135000X-0.185000X-0.135000X0.185000X-0.135000X0.185000X0.135000X0*%
%ADD15C,0.800000*%
%ADD16C,6.400000*%
%ADD17RoundRect,0.135000X-0.135000X-0.185000X0.135000X-0.185000X0.135000X0.185000X-0.135000X0.185000X0*%
%ADD18RoundRect,0.135000X0.185000X-0.135000X0.185000X0.135000X-0.185000X0.135000X-0.185000X-0.135000X0*%
%ADD19RoundRect,0.225000X-0.250000X0.225000X-0.250000X-0.225000X0.250000X-0.225000X0.250000X0.225000X0*%
%ADD20RoundRect,0.140000X0.140000X0.170000X-0.140000X0.170000X-0.140000X-0.170000X0.140000X-0.170000X0*%
%ADD21RoundRect,0.140000X-0.170000X0.140000X-0.170000X-0.140000X0.170000X-0.140000X0.170000X0.140000X0*%
%ADD22RoundRect,0.140000X0.170000X-0.140000X0.170000X0.140000X-0.170000X0.140000X-0.170000X-0.140000X0*%
%ADD23R,0.850000X0.300000*%
%ADD24R,0.300000X0.850000*%
%ADD25R,2.050000X2.050000*%
%ADD26R,1.725000X1.725000*%
%ADD27C,1.725000*%
%ADD28R,1.100000X1.300000*%
%ADD29C,1.950000*%
%ADD30R,1.390000X0.910000*%
%ADD31R,0.950000X0.950000*%
%ADD32R,1.475000X0.300000*%
%ADD33R,0.300000X1.475000*%
%ADD34R,1.250000X1.500000*%
%ADD35R,0.200000X0.800000*%
%ADD36R,0.800000X0.200000*%
%ADD37R,1.800000X1.800000*%
%ADD38R,1.200000X0.600000*%
%ADD39R,2.300000X0.500000*%
%ADD40R,2.500000X2.000000*%
%ADD41R,0.250000X0.600000*%
%ADD42R,0.550000X0.600000*%
%ADD43RoundRect,0.250000X0.475000X-0.250000X0.475000X0.250000X-0.475000X0.250000X-0.475000X-0.250000X0*%
%ADD44R,1.000000X3.000000*%
G04 APERTURE END LIST*
D10*
%TO.C,C105*%
X154575000Y-81600000D03*
X153025000Y-81600000D03*
%TD*%
D11*
%TO.C,FB101*%
X172400000Y-103650000D03*
X172400000Y-102350000D03*
%TD*%
D12*
%TO.C,R126*%
X170560000Y-101500000D03*
X169540000Y-101500000D03*
%TD*%
D13*
%TO.C,C110*%
X142320000Y-81400000D03*
X143280000Y-81400000D03*
%TD*%
D14*
%TO.C,R115*%
X160400000Y-100690000D03*
X160400000Y-101710000D03*
%TD*%
D12*
%TO.C,R109*%
X169810000Y-86000000D03*
X168790000Y-86000000D03*
%TD*%
D15*
%TO.C,H103*%
X176600000Y-119000000D03*
X179000000Y-121400000D03*
X177302944Y-120697056D03*
X180697056Y-117302944D03*
D16*
X179000000Y-119000000D03*
D15*
X177302944Y-117302944D03*
X179000000Y-116600000D03*
X180697056Y-120697056D03*
X181400000Y-119000000D03*
%TD*%
D13*
%TO.C,C109*%
X150720000Y-81400000D03*
X151680000Y-81400000D03*
%TD*%
%TO.C,C120*%
X149820000Y-119300000D03*
X150780000Y-119300000D03*
%TD*%
%TO.C,C107*%
X167520000Y-81400000D03*
X168480000Y-81400000D03*
%TD*%
D17*
%TO.C,R114*%
X146740000Y-112450000D03*
X147760000Y-112450000D03*
%TD*%
D18*
%TO.C,R107*%
X147900000Y-104760000D03*
X147900000Y-103740000D03*
%TD*%
D13*
%TO.C,C131*%
X156420000Y-88300000D03*
X157380000Y-88300000D03*
%TD*%
D10*
%TO.C,C106*%
X146175000Y-81600000D03*
X144625000Y-81600000D03*
%TD*%
D19*
%TO.C,C117*%
X149050000Y-103875000D03*
X149050000Y-105425000D03*
%TD*%
D20*
%TO.C,C118*%
X154500000Y-119300000D03*
X153540000Y-119300000D03*
%TD*%
D21*
%TO.C,C135*%
X165900000Y-91320000D03*
X165900000Y-92280000D03*
%TD*%
D15*
%TO.C,H104*%
X179000000Y-78600000D03*
X177302944Y-82697056D03*
X177302944Y-79302944D03*
D16*
X179000000Y-81000000D03*
D15*
X180697056Y-82697056D03*
X181400000Y-81000000D03*
X176600000Y-81000000D03*
X179000000Y-83400000D03*
X180697056Y-79302944D03*
%TD*%
D12*
%TO.C,R117*%
X165810000Y-86000000D03*
X164790000Y-86000000D03*
%TD*%
%TO.C,R113*%
X150800000Y-118300000D03*
X149780000Y-118300000D03*
%TD*%
D22*
%TO.C,C127*%
X169600000Y-105880000D03*
X169600000Y-104920000D03*
%TD*%
D17*
%TO.C,R120*%
X150070000Y-96300000D03*
X151090000Y-96300000D03*
%TD*%
D23*
%TO.C,IC104*%
X168550000Y-106500000D03*
X168550000Y-106000000D03*
X168550000Y-105500000D03*
X168550000Y-105000000D03*
X168550000Y-104500000D03*
D24*
X167600000Y-103550000D03*
X167100000Y-103550000D03*
X166600000Y-103550000D03*
X166100000Y-103550000D03*
X165600000Y-103550000D03*
D23*
X164650000Y-104500000D03*
X164650000Y-105000000D03*
X164650000Y-105500000D03*
X164650000Y-106000000D03*
X164650000Y-106500000D03*
D24*
X165600000Y-107450000D03*
X166100000Y-107450000D03*
X166600000Y-107450000D03*
X167100000Y-107450000D03*
X167600000Y-107450000D03*
D25*
X166600000Y-105500000D03*
%TD*%
D22*
%TO.C,C101*%
X146800000Y-96780000D03*
X146800000Y-95820000D03*
%TD*%
D26*
%TO.C,J104*%
X142800000Y-79000000D03*
D27*
X145340000Y-79000000D03*
X147880000Y-79000000D03*
%TD*%
D18*
%TO.C,R129*%
X160400000Y-106310000D03*
X160400000Y-105290000D03*
%TD*%
D28*
%TO.C,Y101*%
X169050000Y-93650000D03*
X169050000Y-95950000D03*
X170950000Y-95950000D03*
X170950000Y-93650000D03*
%TD*%
D17*
%TO.C,R121*%
X150090000Y-95100000D03*
X151110000Y-95100000D03*
%TD*%
D20*
%TO.C,C122*%
X172480000Y-119200000D03*
X171520000Y-119200000D03*
%TD*%
D21*
%TO.C,C102*%
X146800000Y-98220000D03*
X146800000Y-99180000D03*
%TD*%
D12*
%TO.C,R105*%
X152010000Y-87500000D03*
X150990000Y-87500000D03*
%TD*%
D21*
%TO.C,C126*%
X171400000Y-105020000D03*
X171400000Y-105980000D03*
%TD*%
D26*
%TO.C,J101*%
X168000000Y-79000000D03*
D27*
X170540000Y-79000000D03*
X173080000Y-79000000D03*
%TD*%
D10*
%TO.C,C104*%
X162975000Y-81600000D03*
X161425000Y-81600000D03*
%TD*%
D29*
%TO.C,J107*%
X138000000Y-105760000D03*
X138000000Y-110840000D03*
%TD*%
D30*
%TO.C,C111*%
X148200000Y-97880000D03*
X148200000Y-99520000D03*
%TD*%
D13*
%TO.C,C115*%
X145920000Y-88700000D03*
X146880000Y-88700000D03*
%TD*%
D31*
%TO.C,LED103*%
X180350000Y-109550000D03*
X181850000Y-109550000D03*
%TD*%
D12*
%TO.C,R116*%
X167810000Y-86000000D03*
X166790000Y-86000000D03*
%TD*%
D32*
%TO.C,IC105*%
X164038000Y-96750000D03*
X164038000Y-96250000D03*
X164038000Y-95750000D03*
X164038000Y-95250000D03*
X164038000Y-94750000D03*
X164038000Y-94250000D03*
X164038000Y-93750000D03*
X164038000Y-93250000D03*
X164038000Y-92750000D03*
X164038000Y-92250000D03*
X164038000Y-91750000D03*
X164038000Y-91250000D03*
D33*
X162550000Y-89762000D03*
X162050000Y-89762000D03*
X161550000Y-89762000D03*
X161050000Y-89762000D03*
X160550000Y-89762000D03*
X160050000Y-89762000D03*
X159550000Y-89762000D03*
X159050000Y-89762000D03*
X158550000Y-89762000D03*
X158050000Y-89762000D03*
X157550000Y-89762000D03*
X157050000Y-89762000D03*
D32*
X155562000Y-91250000D03*
X155562000Y-91750000D03*
X155562000Y-92250000D03*
X155562000Y-92750000D03*
X155562000Y-93250000D03*
X155562000Y-93750000D03*
X155562000Y-94250000D03*
X155562000Y-94750000D03*
X155562000Y-95250000D03*
X155562000Y-95750000D03*
X155562000Y-96250000D03*
X155562000Y-96750000D03*
D33*
X157050000Y-98238000D03*
X157550000Y-98238000D03*
X158050000Y-98238000D03*
X158550000Y-98238000D03*
X159050000Y-98238000D03*
X159550000Y-98238000D03*
X160050000Y-98238000D03*
X160550000Y-98238000D03*
X161050000Y-98238000D03*
X161550000Y-98238000D03*
X162050000Y-98238000D03*
X162550000Y-98238000D03*
%TD*%
D26*
%TO.C,J106*%
X155400000Y-121200000D03*
D27*
X152860000Y-121200000D03*
X150320000Y-121200000D03*
X147780000Y-121200000D03*
X145240000Y-121200000D03*
X142700000Y-121200000D03*
%TD*%
D17*
%TO.C,R123*%
X150090000Y-92700000D03*
X151110000Y-92700000D03*
%TD*%
D22*
%TO.C,C119*%
X170800000Y-88180000D03*
X170800000Y-87220000D03*
%TD*%
D18*
%TO.C,R110*%
X145900000Y-104760000D03*
X145900000Y-103740000D03*
%TD*%
D13*
%TO.C,C125*%
X169520000Y-92300000D03*
X170480000Y-92300000D03*
%TD*%
D21*
%TO.C,C133*%
X165500000Y-97020000D03*
X165500000Y-97980000D03*
%TD*%
D34*
%TO.C,R108*%
X145875000Y-101400000D03*
X149325000Y-101400000D03*
%TD*%
D14*
%TO.C,R106*%
X146900000Y-103740000D03*
X146900000Y-104760000D03*
%TD*%
D29*
%TO.C,J105*%
X138000000Y-99180000D03*
X138000000Y-94100000D03*
X138000000Y-89020000D03*
%TD*%
D22*
%TO.C,C121*%
X165375000Y-88780000D03*
X165375000Y-87820000D03*
%TD*%
D26*
%TO.C,J103*%
X151200000Y-79000000D03*
D27*
X153740000Y-79000000D03*
X156280000Y-79000000D03*
%TD*%
D20*
%TO.C,C132*%
X154080000Y-97500000D03*
X153120000Y-97500000D03*
%TD*%
D35*
%TO.C,IC101*%
X146200000Y-93500000D03*
X146600000Y-93500000D03*
X147000000Y-93500000D03*
X147400000Y-93500000D03*
X147800000Y-93500000D03*
D36*
X148500000Y-92800000D03*
X148500000Y-92400000D03*
X148500000Y-92000000D03*
X148500000Y-91600000D03*
X148500000Y-91200000D03*
D35*
X147800000Y-90500000D03*
X147400000Y-90500000D03*
X147000000Y-90500000D03*
X146600000Y-90500000D03*
X146200000Y-90500000D03*
D36*
X145500000Y-91200000D03*
X145500000Y-91600000D03*
X145500000Y-92000000D03*
X145500000Y-92400000D03*
X145500000Y-92800000D03*
D37*
X147000000Y-92000000D03*
%TD*%
D22*
%TO.C,C124*%
X171400000Y-100680000D03*
X171400000Y-99720000D03*
%TD*%
D17*
%TO.C,R102*%
X164290000Y-81400000D03*
X165310000Y-81400000D03*
%TD*%
D13*
%TO.C,C130*%
X169520000Y-97300000D03*
X170480000Y-97300000D03*
%TD*%
D38*
%TO.C,IC103*%
X169350000Y-89150000D03*
X169350000Y-88200000D03*
X169350000Y-87250000D03*
X166850000Y-87250000D03*
X166850000Y-89150000D03*
%TD*%
D16*
%TO.C,H102*%
X137000000Y-119000000D03*
D15*
X137000000Y-121400000D03*
X138697056Y-117302944D03*
X135302944Y-120697056D03*
X139400000Y-119000000D03*
X135302944Y-117302944D03*
X138697056Y-120697056D03*
X134600000Y-119000000D03*
X137000000Y-116600000D03*
%TD*%
D31*
%TO.C,LED102*%
X180350000Y-107550000D03*
X181850000Y-107550000D03*
%TD*%
D39*
%TO.C,J109*%
X175150000Y-102300000D03*
X175150000Y-101500000D03*
X175150000Y-100700000D03*
X175150000Y-99900000D03*
X175150000Y-99100000D03*
D40*
X175250000Y-105150000D03*
X175250000Y-96250000D03*
X180750000Y-105150000D03*
X180750000Y-96250000D03*
%TD*%
D13*
%TO.C,C108*%
X159120000Y-81400000D03*
X160080000Y-81400000D03*
%TD*%
D31*
%TO.C,LED104*%
X150650000Y-88900000D03*
X152150000Y-88900000D03*
%TD*%
D15*
%TO.C,H101*%
X138697056Y-79302944D03*
X135302944Y-79302944D03*
X134600000Y-81000000D03*
X135302944Y-82697056D03*
X139400000Y-81000000D03*
X137000000Y-78600000D03*
X138697056Y-82697056D03*
D16*
X137000000Y-81000000D03*
D15*
X137000000Y-83400000D03*
%TD*%
D12*
%TO.C,R128*%
X167510000Y-94000000D03*
X166490000Y-94000000D03*
%TD*%
D41*
%TO.C,IC102*%
X146400000Y-107100000D03*
X146900000Y-107100000D03*
X147400000Y-107100000D03*
X147400000Y-105700000D03*
X146900000Y-105700000D03*
X146400000Y-105700000D03*
%TD*%
D14*
%TO.C,R112*%
X144900000Y-103740000D03*
X144900000Y-104760000D03*
%TD*%
D12*
%TO.C,R127*%
X170560000Y-100700000D03*
X169540000Y-100700000D03*
%TD*%
D14*
%TO.C,R131*%
X153900000Y-89490000D03*
X153900000Y-90510000D03*
%TD*%
D17*
%TO.C,R104*%
X147490000Y-81400000D03*
X148510000Y-81400000D03*
%TD*%
D19*
%TO.C,C136*%
X167200000Y-91025000D03*
X167200000Y-92575000D03*
%TD*%
D18*
%TO.C,R130*%
X162100000Y-106310000D03*
X162100000Y-105290000D03*
%TD*%
D19*
%TO.C,C128*%
X172400000Y-104725000D03*
X172400000Y-106275000D03*
%TD*%
D17*
%TO.C,R103*%
X155890000Y-81400000D03*
X156910000Y-81400000D03*
%TD*%
%TO.C,R119*%
X177890000Y-109550000D03*
X178910000Y-109550000D03*
%TD*%
D31*
%TO.C,LED101*%
X144050000Y-112150000D03*
X145550000Y-112150000D03*
%TD*%
D42*
%TO.C,FB102*%
X169850000Y-90900000D03*
X168550000Y-90900000D03*
%TD*%
D17*
%TO.C,R101*%
X172690000Y-81400000D03*
X173710000Y-81400000D03*
%TD*%
%TO.C,R118*%
X177890000Y-107550000D03*
X178910000Y-107550000D03*
%TD*%
D18*
%TO.C,R111*%
X143900000Y-104760000D03*
X143900000Y-103740000D03*
%TD*%
D26*
%TO.C,J102*%
X159600000Y-79000000D03*
D27*
X162140000Y-79000000D03*
X164680000Y-79000000D03*
%TD*%
D22*
%TO.C,C123*%
X171400000Y-102480000D03*
X171400000Y-101520000D03*
%TD*%
D10*
%TO.C,C134*%
X153875000Y-98700000D03*
X152325000Y-98700000D03*
%TD*%
D17*
%TO.C,R122*%
X150090000Y-93900000D03*
X151110000Y-93900000D03*
%TD*%
D43*
%TO.C,C114*%
X144900000Y-107700000D03*
X144900000Y-105800000D03*
%TD*%
D20*
%TO.C,C129*%
X163280000Y-99700000D03*
X162320000Y-99700000D03*
%TD*%
D44*
%TO.C,L101*%
X146900000Y-109950000D03*
X148900000Y-109950000D03*
%TD*%
D43*
%TO.C,C116*%
X150700000Y-109450000D03*
X150700000Y-107550000D03*
%TD*%
D10*
%TO.C,C103*%
X171375000Y-81600000D03*
X169825000Y-81600000D03*
%TD*%
D26*
%TO.C,J108*%
X173300000Y-121200000D03*
D27*
X170760000Y-121200000D03*
X168220000Y-121200000D03*
X165680000Y-121200000D03*
X163140000Y-121200000D03*
X160600000Y-121200000D03*
%TD*%
D17*
%TO.C,R124*%
X150090000Y-91500000D03*
X151110000Y-91500000D03*
%TD*%
D30*
%TO.C,C112*%
X149950000Y-97880000D03*
X149950000Y-99520000D03*
%TD*%
D17*
%TO.C,R125*%
X150090000Y-90300000D03*
X151110000Y-90300000D03*
%TD*%
D21*
%TO.C,C113*%
X148500000Y-88620000D03*
X148500000Y-89580000D03*
%TD*%
M02*
