%TF.GenerationSoftware,KiCad,Pcbnew,(6.0.7)*%
%TF.CreationDate,2022-10-13T18:06:46+02:00*%
%TF.ProjectId,TMC6300-dev,544d4336-3330-4302-9d64-65762e6b6963,rev?*%
%TF.SameCoordinates,Original*%
%TF.FileFunction,Copper,L3,Inr*%
%TF.FilePolarity,Positive*%
%FSLAX46Y46*%
G04 Gerber Fmt 4.6, Leading zero omitted, Abs format (unit mm)*
G04 Created by KiCad (PCBNEW (6.0.7)) date 2022-10-13 18:06:46*
%MOMM*%
%LPD*%
G01*
G04 APERTURE LIST*
%TA.AperFunction,ComponentPad*%
%ADD10C,0.800000*%
%TD*%
%TA.AperFunction,ComponentPad*%
%ADD11C,6.400000*%
%TD*%
%TA.AperFunction,ComponentPad*%
%ADD12R,1.725000X1.725000*%
%TD*%
%TA.AperFunction,ComponentPad*%
%ADD13C,1.725000*%
%TD*%
%TA.AperFunction,ComponentPad*%
%ADD14C,1.950000*%
%TD*%
%TA.AperFunction,ViaPad*%
%ADD15C,0.450000*%
%TD*%
%TA.AperFunction,ViaPad*%
%ADD16C,0.800000*%
%TD*%
%TA.AperFunction,Conductor*%
%ADD17C,1.000000*%
%TD*%
%TA.AperFunction,Conductor*%
%ADD18C,0.600000*%
%TD*%
%TA.AperFunction,Conductor*%
%ADD19C,0.300000*%
%TD*%
G04 APERTURE END LIST*
D10*
%TO.N,GND*%
%TO.C,H103*%
X176600000Y-119000000D03*
X179000000Y-121400000D03*
X177302944Y-120697056D03*
X180697056Y-117302944D03*
D11*
X179000000Y-119000000D03*
D10*
X177302944Y-117302944D03*
X179000000Y-116600000D03*
X180697056Y-120697056D03*
X181400000Y-119000000D03*
%TD*%
%TO.N,GND*%
%TO.C,H104*%
X179000000Y-78600000D03*
X177302944Y-82697056D03*
X177302944Y-79302944D03*
D11*
X179000000Y-81000000D03*
D10*
X180697056Y-82697056D03*
X181400000Y-81000000D03*
X176600000Y-81000000D03*
X179000000Y-83400000D03*
X180697056Y-79302944D03*
%TD*%
D12*
%TO.N,VDD*%
%TO.C,J104*%
X142800000Y-79000000D03*
D13*
%TO.N,GND*%
X145340000Y-79000000D03*
%TO.N,Net-(J104-Pad3)*%
X147880000Y-79000000D03*
%TD*%
D12*
%TO.N,VDD*%
%TO.C,J101*%
X168000000Y-79000000D03*
D13*
%TO.N,GND*%
X170540000Y-79000000D03*
%TO.N,Net-(J101-Pad3)*%
X173080000Y-79000000D03*
%TD*%
D14*
%TO.N,VM*%
%TO.C,J107*%
X138000000Y-105760000D03*
%TO.N,GND*%
X138000000Y-110840000D03*
%TD*%
D12*
%TO.N,VDD*%
%TO.C,J106*%
X155400000Y-121200000D03*
D13*
%TO.N,GND*%
X152860000Y-121200000D03*
%TO.N,NRST*%
X150320000Y-121200000D03*
%TO.N,SYS_SWO*%
X147780000Y-121200000D03*
%TO.N,SYS_SWCLK*%
X145240000Y-121200000D03*
%TO.N,SYS_SWDIO*%
X142700000Y-121200000D03*
%TD*%
D14*
%TO.N,BLDC_W*%
%TO.C,J105*%
X138000000Y-99180000D03*
%TO.N,BLDC_V*%
X138000000Y-94100000D03*
%TO.N,BLDC_U*%
X138000000Y-89020000D03*
%TD*%
D12*
%TO.N,VDD*%
%TO.C,J103*%
X151200000Y-79000000D03*
D13*
%TO.N,GND*%
X153740000Y-79000000D03*
%TO.N,Net-(J103-Pad3)*%
X156280000Y-79000000D03*
%TD*%
D11*
%TO.N,GND*%
%TO.C,H102*%
X137000000Y-119000000D03*
D10*
X137000000Y-121400000D03*
X138697056Y-117302944D03*
X135302944Y-120697056D03*
X139400000Y-119000000D03*
X135302944Y-117302944D03*
X138697056Y-120697056D03*
X134600000Y-119000000D03*
X137000000Y-116600000D03*
%TD*%
%TO.N,GND*%
%TO.C,H101*%
X138697056Y-79302944D03*
X135302944Y-79302944D03*
X134600000Y-81000000D03*
X135302944Y-82697056D03*
X139400000Y-81000000D03*
X137000000Y-78600000D03*
X138697056Y-82697056D03*
D11*
X137000000Y-81000000D03*
D10*
X137000000Y-83400000D03*
%TD*%
D12*
%TO.N,VDD*%
%TO.C,J102*%
X159600000Y-79000000D03*
D13*
%TO.N,GND*%
X162140000Y-79000000D03*
%TO.N,Net-(J102-Pad3)*%
X164680000Y-79000000D03*
%TD*%
D12*
%TO.N,VDD*%
%TO.C,J108*%
X173300000Y-121200000D03*
D13*
%TO.N,GND*%
X170760000Y-121200000D03*
%TO.N,PB9*%
X168220000Y-121200000D03*
%TO.N,PB8*%
X165680000Y-121200000D03*
%TO.N,PB5*%
X163140000Y-121200000D03*
%TO.N,PB4*%
X160600000Y-121200000D03*
%TD*%
D15*
%TO.N,GND*%
X147600000Y-92600000D03*
X147600000Y-91400000D03*
D16*
X150200000Y-106450000D03*
D15*
X151800000Y-91500000D03*
D16*
X143550000Y-106450000D03*
X144100000Y-109150000D03*
D15*
X170750000Y-99720000D03*
X170750000Y-102450000D03*
X151800000Y-95100000D03*
D16*
X151150000Y-104650000D03*
X148150000Y-107200000D03*
X173100000Y-99100000D03*
D15*
X160400000Y-102300000D03*
D16*
X162320000Y-100600000D03*
D15*
X170800000Y-88860000D03*
D16*
X148150000Y-106400000D03*
D15*
X148500000Y-90200000D03*
X151400000Y-119300000D03*
D16*
X143550000Y-105650000D03*
X145800000Y-99400000D03*
D15*
X146400000Y-91400000D03*
X151800000Y-92700000D03*
D16*
X172200000Y-99100000D03*
D15*
X171100000Y-92300000D03*
D16*
X172200000Y-98200000D03*
X157380000Y-87420000D03*
D15*
X168900000Y-97300000D03*
X171400000Y-106600000D03*
D16*
X166400000Y-97980000D03*
X151150000Y-105550000D03*
X145300000Y-109150000D03*
X165500000Y-93300000D03*
D15*
X151800000Y-96300000D03*
X142850000Y-112150000D03*
X146400000Y-92600000D03*
D16*
X150200000Y-105550000D03*
D15*
X149300000Y-88900000D03*
D16*
X142900000Y-109150000D03*
D15*
X151800000Y-90300000D03*
D16*
X151150000Y-106450000D03*
X145300000Y-110500000D03*
X152325000Y-99875000D03*
X142900000Y-110500000D03*
X173100000Y-98200000D03*
D15*
X164600000Y-87820000D03*
D16*
X166600000Y-105950000D03*
X144100000Y-110500000D03*
D15*
X147000000Y-92000000D03*
X151800000Y-93900000D03*
X169600000Y-104300000D03*
D16*
X145000000Y-99400000D03*
X150200000Y-104650000D03*
D15*
%TO.N,VM*%
X146150000Y-107900000D03*
D16*
X145000000Y-97900000D03*
X143950000Y-93150000D03*
X145800000Y-97900000D03*
X143950000Y-92350000D03*
D15*
X146900000Y-103200000D03*
%TO.N,BLDC_WL*%
X152150000Y-92100000D03*
X153150000Y-91100000D03*
%TO.N,BLDC_DIAG*%
X157500000Y-91400000D03*
X156200000Y-89700000D03*
D16*
%TO.N,BLDC_CURRENT_SENSE*%
X151600000Y-101400000D03*
D15*
X145600000Y-90700000D03*
X145100000Y-93300000D03*
D16*
X150700000Y-101400000D03*
D15*
X145100000Y-90700000D03*
X170500000Y-86000000D03*
X145600000Y-93300000D03*
%TO.N,VDD*%
X143230000Y-104730000D03*
X160400000Y-104700000D03*
D16*
X151050000Y-110600000D03*
D15*
X151400000Y-118300000D03*
D16*
X153875000Y-99900000D03*
X163280000Y-100600000D03*
X170800000Y-90900000D03*
D15*
X164620000Y-88780000D03*
D16*
X150100000Y-111500000D03*
X150100000Y-110600000D03*
D15*
X162100000Y-104700000D03*
D16*
X151000000Y-112450000D03*
X166400000Y-97020000D03*
X151050000Y-111500000D03*
X150100000Y-112450000D03*
X156420000Y-87420000D03*
X149150000Y-112450000D03*
D15*
%TO.N,NRST*%
X157700000Y-100100000D03*
X157700000Y-96400000D03*
%TO.N,3V3OUT*%
X169600000Y-106500000D03*
X167600000Y-108250000D03*
X165600000Y-108250000D03*
X165600000Y-102800000D03*
%TO.N,VBUS*%
X171400000Y-104400000D03*
X163850000Y-105000000D03*
%TO.N,RXD_LED*%
X163850000Y-106000000D03*
X170150000Y-107200000D03*
%TO.N,PB8*%
X160700000Y-102800000D03*
X158400000Y-102800000D03*
%TO.N,PB9*%
X158900000Y-103300000D03*
X161200000Y-103200000D03*
%TD*%
D17*
%TO.N,VM*%
X143950000Y-99810000D02*
X138000000Y-105760000D01*
X145000000Y-97900000D02*
X144100000Y-97900000D01*
X143950000Y-92350000D02*
X143950000Y-93150000D01*
X144100000Y-97900000D02*
X143950000Y-98050000D01*
X145800000Y-97900000D02*
X145000000Y-97900000D01*
X143950000Y-98050000D02*
X143950000Y-99810000D01*
X143950000Y-93150000D02*
X143950000Y-98050000D01*
D18*
%TO.N,VDD*%
X163280000Y-100810969D02*
X163280000Y-100600000D01*
X162472000Y-101428000D02*
X162662969Y-101428000D01*
X162000000Y-104600000D02*
X162000000Y-101900000D01*
X162662969Y-101428000D02*
X163280000Y-100810969D01*
X160400000Y-104700000D02*
X162100000Y-104700000D01*
X162000000Y-101900000D02*
X162472000Y-101428000D01*
X162100000Y-104700000D02*
X162000000Y-104600000D01*
D19*
%TO.N,3V3OUT*%
X167600000Y-108250000D02*
X167850000Y-108250000D01*
X163200000Y-106450000D02*
X163200000Y-104650000D01*
X165600000Y-108250000D02*
X165000000Y-108250000D01*
X165000000Y-108250000D02*
X163200000Y-106450000D01*
X165050000Y-102800000D02*
X165600000Y-102800000D01*
X167600000Y-108250000D02*
X165600000Y-108250000D01*
X163200000Y-104650000D02*
X165050000Y-102800000D01*
X167850000Y-108250000D02*
X169600000Y-106500000D01*
%TO.N,VBUS*%
X171400000Y-104400000D02*
X170800000Y-105000000D01*
X170800000Y-105000000D02*
X163850000Y-105000000D01*
%TD*%
%TA.AperFunction,Conductor*%
%TO.N,VDD*%
G36*
X151600000Y-117800000D02*
G01*
X156195871Y-117800000D01*
X156204094Y-117800539D01*
X156321188Y-117815955D01*
X156337074Y-117820212D01*
X156442336Y-117863813D01*
X156456579Y-117872036D01*
X156546973Y-117941398D01*
X156558602Y-117953027D01*
X156627964Y-118043421D01*
X156636187Y-118057664D01*
X156679788Y-118162926D01*
X156684045Y-118178812D01*
X156699461Y-118295906D01*
X156700000Y-118304129D01*
X156700000Y-120000000D01*
X173995871Y-120000000D01*
X174004094Y-120000539D01*
X174121188Y-120015955D01*
X174137074Y-120020212D01*
X174242336Y-120063813D01*
X174256579Y-120072036D01*
X174346973Y-120141398D01*
X174358602Y-120153027D01*
X174427964Y-120243421D01*
X174436187Y-120257664D01*
X174479788Y-120362926D01*
X174484045Y-120378812D01*
X174499461Y-120495906D01*
X174500000Y-120504129D01*
X174500000Y-121895871D01*
X174499461Y-121904094D01*
X174484045Y-122021188D01*
X174479788Y-122037074D01*
X174436187Y-122142336D01*
X174427964Y-122156579D01*
X174358602Y-122246973D01*
X174346973Y-122258602D01*
X174256579Y-122327964D01*
X174242336Y-122336187D01*
X174137074Y-122379788D01*
X174121188Y-122384045D01*
X174004094Y-122399461D01*
X173995871Y-122400000D01*
X154504129Y-122400000D01*
X154495906Y-122399461D01*
X154378812Y-122384045D01*
X154362926Y-122379788D01*
X154257664Y-122336187D01*
X154243421Y-122327964D01*
X154153027Y-122258602D01*
X154141398Y-122246973D01*
X154072036Y-122156579D01*
X154063813Y-122142336D01*
X154020212Y-122037074D01*
X154015955Y-122021188D01*
X154000539Y-121904094D01*
X154000000Y-121895871D01*
X154000000Y-121186097D01*
X159604302Y-121186097D01*
X159620564Y-121379760D01*
X159674133Y-121566577D01*
X159762968Y-121739430D01*
X159764880Y-121741842D01*
X159764883Y-121741847D01*
X159788249Y-121771327D01*
X159883685Y-121891737D01*
X160031686Y-122017696D01*
X160075472Y-122042167D01*
X160198644Y-122111006D01*
X160198647Y-122111007D01*
X160201334Y-122112509D01*
X160386168Y-122172565D01*
X160389219Y-122172929D01*
X160389220Y-122172929D01*
X160576090Y-122195213D01*
X160576094Y-122195213D01*
X160579146Y-122195577D01*
X160582214Y-122195341D01*
X160582218Y-122195341D01*
X160769843Y-122180904D01*
X160769847Y-122180903D01*
X160772918Y-122180667D01*
X160775886Y-122179838D01*
X160775888Y-122179838D01*
X160910202Y-122142336D01*
X160960104Y-122128403D01*
X160989687Y-122113460D01*
X161130824Y-122042167D01*
X161133574Y-122040778D01*
X161135997Y-122038885D01*
X161136000Y-122038883D01*
X161210147Y-121980953D01*
X161286720Y-121921127D01*
X161413709Y-121774008D01*
X161509704Y-121605026D01*
X161571049Y-121420617D01*
X161575835Y-121382730D01*
X161595187Y-121229547D01*
X161595187Y-121229544D01*
X161595407Y-121227804D01*
X161595795Y-121200000D01*
X161594432Y-121186097D01*
X162144302Y-121186097D01*
X162160564Y-121379760D01*
X162214133Y-121566577D01*
X162302968Y-121739430D01*
X162304880Y-121741842D01*
X162304883Y-121741847D01*
X162328249Y-121771327D01*
X162423685Y-121891737D01*
X162571686Y-122017696D01*
X162615472Y-122042167D01*
X162738644Y-122111006D01*
X162738647Y-122111007D01*
X162741334Y-122112509D01*
X162926168Y-122172565D01*
X162929219Y-122172929D01*
X162929220Y-122172929D01*
X163116090Y-122195213D01*
X163116094Y-122195213D01*
X163119146Y-122195577D01*
X163122214Y-122195341D01*
X163122218Y-122195341D01*
X163309843Y-122180904D01*
X163309847Y-122180903D01*
X163312918Y-122180667D01*
X163315886Y-122179838D01*
X163315888Y-122179838D01*
X163450202Y-122142336D01*
X163500104Y-122128403D01*
X163529687Y-122113460D01*
X163670824Y-122042167D01*
X163673574Y-122040778D01*
X163675997Y-122038885D01*
X163676000Y-122038883D01*
X163750147Y-121980953D01*
X163826720Y-121921127D01*
X163953709Y-121774008D01*
X164049704Y-121605026D01*
X164111049Y-121420617D01*
X164115835Y-121382730D01*
X164135187Y-121229547D01*
X164135187Y-121229544D01*
X164135407Y-121227804D01*
X164135795Y-121200000D01*
X164134432Y-121186097D01*
X164684302Y-121186097D01*
X164700564Y-121379760D01*
X164754133Y-121566577D01*
X164842968Y-121739430D01*
X164844880Y-121741842D01*
X164844883Y-121741847D01*
X164868249Y-121771327D01*
X164963685Y-121891737D01*
X165111686Y-122017696D01*
X165155472Y-122042167D01*
X165278644Y-122111006D01*
X165278647Y-122111007D01*
X165281334Y-122112509D01*
X165466168Y-122172565D01*
X165469219Y-122172929D01*
X165469220Y-122172929D01*
X165656090Y-122195213D01*
X165656094Y-122195213D01*
X165659146Y-122195577D01*
X165662214Y-122195341D01*
X165662218Y-122195341D01*
X165849843Y-122180904D01*
X165849847Y-122180903D01*
X165852918Y-122180667D01*
X165855886Y-122179838D01*
X165855888Y-122179838D01*
X165990202Y-122142336D01*
X166040104Y-122128403D01*
X166069687Y-122113460D01*
X166210824Y-122042167D01*
X166213574Y-122040778D01*
X166215997Y-122038885D01*
X166216000Y-122038883D01*
X166290147Y-121980953D01*
X166366720Y-121921127D01*
X166493709Y-121774008D01*
X166589704Y-121605026D01*
X166651049Y-121420617D01*
X166655835Y-121382730D01*
X166675187Y-121229547D01*
X166675187Y-121229544D01*
X166675407Y-121227804D01*
X166675795Y-121200000D01*
X166674432Y-121186097D01*
X167224302Y-121186097D01*
X167240564Y-121379760D01*
X167294133Y-121566577D01*
X167382968Y-121739430D01*
X167384880Y-121741842D01*
X167384883Y-121741847D01*
X167408249Y-121771327D01*
X167503685Y-121891737D01*
X167651686Y-122017696D01*
X167695472Y-122042167D01*
X167818644Y-122111006D01*
X167818647Y-122111007D01*
X167821334Y-122112509D01*
X168006168Y-122172565D01*
X168009219Y-122172929D01*
X168009220Y-122172929D01*
X168196090Y-122195213D01*
X168196094Y-122195213D01*
X168199146Y-122195577D01*
X168202214Y-122195341D01*
X168202218Y-122195341D01*
X168389843Y-122180904D01*
X168389847Y-122180903D01*
X168392918Y-122180667D01*
X168395886Y-122179838D01*
X168395888Y-122179838D01*
X168530202Y-122142336D01*
X168580104Y-122128403D01*
X168609687Y-122113460D01*
X168750824Y-122042167D01*
X168753574Y-122040778D01*
X168755997Y-122038885D01*
X168756000Y-122038883D01*
X168830147Y-121980953D01*
X168906720Y-121921127D01*
X169033709Y-121774008D01*
X169129704Y-121605026D01*
X169191049Y-121420617D01*
X169195835Y-121382730D01*
X169215187Y-121229547D01*
X169215187Y-121229544D01*
X169215407Y-121227804D01*
X169215795Y-121200000D01*
X169214432Y-121186097D01*
X169764302Y-121186097D01*
X169780564Y-121379760D01*
X169834133Y-121566577D01*
X169922968Y-121739430D01*
X169924880Y-121741842D01*
X169924883Y-121741847D01*
X169948249Y-121771327D01*
X170043685Y-121891737D01*
X170191686Y-122017696D01*
X170235472Y-122042167D01*
X170358644Y-122111006D01*
X170358647Y-122111007D01*
X170361334Y-122112509D01*
X170546168Y-122172565D01*
X170549219Y-122172929D01*
X170549220Y-122172929D01*
X170736090Y-122195213D01*
X170736094Y-122195213D01*
X170739146Y-122195577D01*
X170742214Y-122195341D01*
X170742218Y-122195341D01*
X170929843Y-122180904D01*
X170929847Y-122180903D01*
X170932918Y-122180667D01*
X170935886Y-122179838D01*
X170935888Y-122179838D01*
X171070202Y-122142336D01*
X171120104Y-122128403D01*
X171149687Y-122113460D01*
X171290824Y-122042167D01*
X171293574Y-122040778D01*
X171295997Y-122038885D01*
X171296000Y-122038883D01*
X171370147Y-121980953D01*
X171446720Y-121921127D01*
X171573709Y-121774008D01*
X171669704Y-121605026D01*
X171731049Y-121420617D01*
X171735835Y-121382730D01*
X171755187Y-121229547D01*
X171755187Y-121229544D01*
X171755407Y-121227804D01*
X171755795Y-121200000D01*
X171736830Y-121006582D01*
X171680658Y-120820532D01*
X171589419Y-120648935D01*
X171466587Y-120498329D01*
X171463658Y-120495906D01*
X171319219Y-120376416D01*
X171319217Y-120376415D01*
X171316841Y-120374449D01*
X171145886Y-120282013D01*
X171142944Y-120281102D01*
X171142941Y-120281101D01*
X170963178Y-120225456D01*
X170963179Y-120225456D01*
X170960232Y-120224544D01*
X170957167Y-120224222D01*
X170957163Y-120224221D01*
X170770010Y-120204550D01*
X170770006Y-120204550D01*
X170766952Y-120204229D01*
X170626110Y-120217047D01*
X170576471Y-120221564D01*
X170576469Y-120221564D01*
X170573407Y-120221843D01*
X170502888Y-120242598D01*
X170389924Y-120275845D01*
X170389921Y-120275846D01*
X170386969Y-120276715D01*
X170384239Y-120278142D01*
X170384237Y-120278143D01*
X170307963Y-120318018D01*
X170214739Y-120366754D01*
X170063279Y-120488532D01*
X170061302Y-120490888D01*
X170050192Y-120504129D01*
X169938356Y-120637409D01*
X169936871Y-120640110D01*
X169936869Y-120640113D01*
X169930524Y-120651655D01*
X169844730Y-120807715D01*
X169785966Y-120992963D01*
X169764302Y-121186097D01*
X169214432Y-121186097D01*
X169196830Y-121006582D01*
X169140658Y-120820532D01*
X169049419Y-120648935D01*
X168926587Y-120498329D01*
X168923658Y-120495906D01*
X168779219Y-120376416D01*
X168779217Y-120376415D01*
X168776841Y-120374449D01*
X168605886Y-120282013D01*
X168602944Y-120281102D01*
X168602941Y-120281101D01*
X168423178Y-120225456D01*
X168423179Y-120225456D01*
X168420232Y-120224544D01*
X168417167Y-120224222D01*
X168417163Y-120224221D01*
X168230010Y-120204550D01*
X168230006Y-120204550D01*
X168226952Y-120204229D01*
X168086110Y-120217047D01*
X168036471Y-120221564D01*
X168036469Y-120221564D01*
X168033407Y-120221843D01*
X167962888Y-120242598D01*
X167849924Y-120275845D01*
X167849921Y-120275846D01*
X167846969Y-120276715D01*
X167844239Y-120278142D01*
X167844237Y-120278143D01*
X167767963Y-120318018D01*
X167674739Y-120366754D01*
X167523279Y-120488532D01*
X167521302Y-120490888D01*
X167510192Y-120504129D01*
X167398356Y-120637409D01*
X167396871Y-120640110D01*
X167396869Y-120640113D01*
X167390524Y-120651655D01*
X167304730Y-120807715D01*
X167245966Y-120992963D01*
X167224302Y-121186097D01*
X166674432Y-121186097D01*
X166656830Y-121006582D01*
X166600658Y-120820532D01*
X166509419Y-120648935D01*
X166386587Y-120498329D01*
X166383658Y-120495906D01*
X166239219Y-120376416D01*
X166239217Y-120376415D01*
X166236841Y-120374449D01*
X166065886Y-120282013D01*
X166062944Y-120281102D01*
X166062941Y-120281101D01*
X165883178Y-120225456D01*
X165883179Y-120225456D01*
X165880232Y-120224544D01*
X165877167Y-120224222D01*
X165877163Y-120224221D01*
X165690010Y-120204550D01*
X165690006Y-120204550D01*
X165686952Y-120204229D01*
X165546110Y-120217047D01*
X165496471Y-120221564D01*
X165496469Y-120221564D01*
X165493407Y-120221843D01*
X165422888Y-120242598D01*
X165309924Y-120275845D01*
X165309921Y-120275846D01*
X165306969Y-120276715D01*
X165304239Y-120278142D01*
X165304237Y-120278143D01*
X165227963Y-120318018D01*
X165134739Y-120366754D01*
X164983279Y-120488532D01*
X164981302Y-120490888D01*
X164970192Y-120504129D01*
X164858356Y-120637409D01*
X164856871Y-120640110D01*
X164856869Y-120640113D01*
X164850524Y-120651655D01*
X164764730Y-120807715D01*
X164705966Y-120992963D01*
X164684302Y-121186097D01*
X164134432Y-121186097D01*
X164116830Y-121006582D01*
X164060658Y-120820532D01*
X163969419Y-120648935D01*
X163846587Y-120498329D01*
X163843658Y-120495906D01*
X163699219Y-120376416D01*
X163699217Y-120376415D01*
X163696841Y-120374449D01*
X163525886Y-120282013D01*
X163522944Y-120281102D01*
X163522941Y-120281101D01*
X163343178Y-120225456D01*
X163343179Y-120225456D01*
X163340232Y-120224544D01*
X163337167Y-120224222D01*
X163337163Y-120224221D01*
X163150010Y-120204550D01*
X163150006Y-120204550D01*
X163146952Y-120204229D01*
X163006110Y-120217047D01*
X162956471Y-120221564D01*
X162956469Y-120221564D01*
X162953407Y-120221843D01*
X162882888Y-120242598D01*
X162769924Y-120275845D01*
X162769921Y-120275846D01*
X162766969Y-120276715D01*
X162764239Y-120278142D01*
X162764237Y-120278143D01*
X162687963Y-120318018D01*
X162594739Y-120366754D01*
X162443279Y-120488532D01*
X162441302Y-120490888D01*
X162430192Y-120504129D01*
X162318356Y-120637409D01*
X162316871Y-120640110D01*
X162316869Y-120640113D01*
X162310524Y-120651655D01*
X162224730Y-120807715D01*
X162165966Y-120992963D01*
X162144302Y-121186097D01*
X161594432Y-121186097D01*
X161576830Y-121006582D01*
X161520658Y-120820532D01*
X161429419Y-120648935D01*
X161306587Y-120498329D01*
X161303658Y-120495906D01*
X161159219Y-120376416D01*
X161159217Y-120376415D01*
X161156841Y-120374449D01*
X160985886Y-120282013D01*
X160982944Y-120281102D01*
X160982941Y-120281101D01*
X160803178Y-120225456D01*
X160803179Y-120225456D01*
X160800232Y-120224544D01*
X160797167Y-120224222D01*
X160797163Y-120224221D01*
X160610010Y-120204550D01*
X160610006Y-120204550D01*
X160606952Y-120204229D01*
X160466110Y-120217047D01*
X160416471Y-120221564D01*
X160416469Y-120221564D01*
X160413407Y-120221843D01*
X160342888Y-120242598D01*
X160229924Y-120275845D01*
X160229921Y-120275846D01*
X160226969Y-120276715D01*
X160224239Y-120278142D01*
X160224237Y-120278143D01*
X160147963Y-120318018D01*
X160054739Y-120366754D01*
X159903279Y-120488532D01*
X159901302Y-120490888D01*
X159890192Y-120504129D01*
X159778356Y-120637409D01*
X159776871Y-120640110D01*
X159776869Y-120640113D01*
X159770524Y-120651655D01*
X159684730Y-120807715D01*
X159625966Y-120992963D01*
X159604302Y-121186097D01*
X154000000Y-121186097D01*
X154000000Y-120000000D01*
X149104129Y-120000000D01*
X149095906Y-119999461D01*
X148978812Y-119984045D01*
X148962926Y-119979788D01*
X148857664Y-119936187D01*
X148843421Y-119927964D01*
X148753027Y-119858602D01*
X148741398Y-119846973D01*
X148672036Y-119756579D01*
X148663813Y-119742336D01*
X148620212Y-119637074D01*
X148615955Y-119621188D01*
X148600539Y-119504094D01*
X148600000Y-119495871D01*
X148600000Y-119300000D01*
X151024882Y-119300000D01*
X151043242Y-119415918D01*
X151096523Y-119520489D01*
X151179511Y-119603477D01*
X151284082Y-119656758D01*
X151400000Y-119675118D01*
X151515918Y-119656758D01*
X151620489Y-119603477D01*
X151703477Y-119520489D01*
X151756758Y-119415918D01*
X151775118Y-119300000D01*
X151756758Y-119184082D01*
X151703477Y-119079511D01*
X151620489Y-118996523D01*
X151515918Y-118943242D01*
X151400000Y-118924882D01*
X151284082Y-118943242D01*
X151179511Y-118996523D01*
X151096523Y-119079511D01*
X151043242Y-119184082D01*
X151024882Y-119300000D01*
X148600000Y-119300000D01*
X148600000Y-110504129D01*
X148600539Y-110495906D01*
X148615955Y-110378812D01*
X148620212Y-110362926D01*
X148663813Y-110257664D01*
X148672036Y-110243421D01*
X148741398Y-110153027D01*
X148753027Y-110141398D01*
X148843421Y-110072036D01*
X148857664Y-110063813D01*
X148962926Y-110020212D01*
X148978812Y-110015955D01*
X149095906Y-110000539D01*
X149104129Y-110000000D01*
X151600000Y-110000000D01*
X151600000Y-117800000D01*
G37*
%TD.AperFunction*%
%TD*%
%TA.AperFunction,Conductor*%
%TO.N,VDD*%
G36*
X165300000Y-90200000D02*
G01*
X170995871Y-90200000D01*
X171004094Y-90200539D01*
X171121188Y-90215955D01*
X171137074Y-90220212D01*
X171242336Y-90263813D01*
X171256579Y-90272036D01*
X171346973Y-90341398D01*
X171358602Y-90353027D01*
X171427964Y-90443421D01*
X171436187Y-90457664D01*
X171479788Y-90562926D01*
X171484045Y-90578812D01*
X171499461Y-90695906D01*
X171500000Y-90704129D01*
X171500000Y-91095871D01*
X171499461Y-91104094D01*
X171484045Y-91221188D01*
X171479788Y-91237074D01*
X171436187Y-91342336D01*
X171427964Y-91356579D01*
X171358602Y-91446973D01*
X171346973Y-91458602D01*
X171256579Y-91527964D01*
X171242336Y-91536187D01*
X171137074Y-91579788D01*
X171121188Y-91584045D01*
X171004094Y-91599461D01*
X170995871Y-91600000D01*
X167000000Y-91600000D01*
X167000000Y-97730768D01*
X166981548Y-97775316D01*
X166937000Y-97793768D01*
X166892452Y-97775316D01*
X166878795Y-97754877D01*
X166863222Y-97717280D01*
X166861644Y-97713470D01*
X166806341Y-97641398D01*
X166779446Y-97606349D01*
X166776930Y-97603070D01*
X166666530Y-97518356D01*
X166537966Y-97465104D01*
X166533874Y-97464565D01*
X166533873Y-97464565D01*
X166404094Y-97447479D01*
X166400000Y-97446940D01*
X166395906Y-97447479D01*
X166266127Y-97464565D01*
X166266126Y-97464565D01*
X166262034Y-97465104D01*
X166133470Y-97518356D01*
X166023070Y-97603070D01*
X166020554Y-97606349D01*
X165993660Y-97641398D01*
X165938356Y-97713470D01*
X165885104Y-97842034D01*
X165866940Y-97980000D01*
X165885104Y-98117966D01*
X165938356Y-98246530D01*
X166023070Y-98356930D01*
X166026349Y-98359446D01*
X166062282Y-98387019D01*
X166086391Y-98428777D01*
X166073911Y-98475352D01*
X166032153Y-98499461D01*
X166023930Y-98500000D01*
X163900000Y-98500000D01*
X163900000Y-101795871D01*
X163899461Y-101804094D01*
X163884045Y-101921188D01*
X163879788Y-101937074D01*
X163836187Y-102042336D01*
X163827964Y-102056579D01*
X163758602Y-102146973D01*
X163746973Y-102158602D01*
X163656579Y-102227964D01*
X163642336Y-102236187D01*
X163537074Y-102279788D01*
X163521188Y-102284045D01*
X163404094Y-102299461D01*
X163395871Y-102300000D01*
X162204129Y-102300000D01*
X162195906Y-102299461D01*
X162078812Y-102284045D01*
X162062926Y-102279788D01*
X161957664Y-102236187D01*
X161943421Y-102227964D01*
X161853027Y-102158602D01*
X161841398Y-102146973D01*
X161772036Y-102056579D01*
X161763813Y-102042336D01*
X161720212Y-101937074D01*
X161715955Y-101921188D01*
X161700539Y-101804094D01*
X161700000Y-101795871D01*
X161700000Y-100800947D01*
X161718452Y-100756399D01*
X161763000Y-100737947D01*
X161807548Y-100756399D01*
X161821205Y-100776838D01*
X161858356Y-100866530D01*
X161860867Y-100869803D01*
X161860868Y-100869804D01*
X161913471Y-100938356D01*
X161943070Y-100976930D01*
X162053470Y-101061644D01*
X162182034Y-101114896D01*
X162186126Y-101115435D01*
X162186127Y-101115435D01*
X162315906Y-101132521D01*
X162320000Y-101133060D01*
X162324094Y-101132521D01*
X162453873Y-101115435D01*
X162453874Y-101115435D01*
X162457966Y-101114896D01*
X162586530Y-101061644D01*
X162696930Y-100976930D01*
X162726529Y-100938356D01*
X162779132Y-100869804D01*
X162779133Y-100869803D01*
X162781644Y-100866530D01*
X162834896Y-100737966D01*
X162853060Y-100600000D01*
X162834896Y-100462034D01*
X162781644Y-100333470D01*
X162696930Y-100223070D01*
X162665343Y-100198832D01*
X162589804Y-100140868D01*
X162589803Y-100140867D01*
X162586530Y-100138356D01*
X162457966Y-100085104D01*
X162453874Y-100084565D01*
X162453873Y-100084565D01*
X162324094Y-100067479D01*
X162320000Y-100066940D01*
X162315906Y-100067479D01*
X162186127Y-100084565D01*
X162186126Y-100084565D01*
X162182034Y-100085104D01*
X162053470Y-100138356D01*
X162050197Y-100140867D01*
X162050196Y-100140868D01*
X161974657Y-100198832D01*
X161943070Y-100223070D01*
X161858356Y-100333470D01*
X161856778Y-100337280D01*
X161821205Y-100423162D01*
X161787109Y-100457257D01*
X161738891Y-100457258D01*
X161704796Y-100423162D01*
X161700000Y-100399053D01*
X161700000Y-98900000D01*
X154700000Y-98900000D01*
X154700000Y-112495871D01*
X154699461Y-112504094D01*
X154684045Y-112621188D01*
X154679788Y-112637074D01*
X154636187Y-112742336D01*
X154627964Y-112756579D01*
X154558602Y-112846973D01*
X154546973Y-112858602D01*
X154456579Y-112927964D01*
X154442336Y-112936187D01*
X154337074Y-112979788D01*
X154321188Y-112984045D01*
X154204094Y-112999461D01*
X154195871Y-113000000D01*
X151600000Y-113000000D01*
X151600000Y-110000000D01*
X153000000Y-110000000D01*
X153000000Y-98004129D01*
X153000539Y-97995906D01*
X153015955Y-97878812D01*
X153020212Y-97862926D01*
X153063813Y-97757664D01*
X153072036Y-97743421D01*
X153141398Y-97653027D01*
X153153027Y-97641398D01*
X153243421Y-97572036D01*
X153257664Y-97563813D01*
X153362926Y-97520212D01*
X153378812Y-97515955D01*
X153495906Y-97500539D01*
X153504129Y-97500000D01*
X163900000Y-97500000D01*
X163900000Y-93300000D01*
X164966940Y-93300000D01*
X164985104Y-93437966D01*
X165038356Y-93566530D01*
X165123070Y-93676930D01*
X165233470Y-93761644D01*
X165362034Y-93814896D01*
X165366126Y-93815435D01*
X165366127Y-93815435D01*
X165495906Y-93832521D01*
X165500000Y-93833060D01*
X165504094Y-93832521D01*
X165633873Y-93815435D01*
X165633874Y-93815435D01*
X165637966Y-93814896D01*
X165766530Y-93761644D01*
X165876930Y-93676930D01*
X165961644Y-93566530D01*
X166014896Y-93437966D01*
X166033060Y-93300000D01*
X166014896Y-93162034D01*
X165961644Y-93033470D01*
X165876930Y-92923070D01*
X165766530Y-92838356D01*
X165637966Y-92785104D01*
X165633874Y-92784565D01*
X165633873Y-92784565D01*
X165504094Y-92767479D01*
X165500000Y-92766940D01*
X165495906Y-92767479D01*
X165366127Y-92784565D01*
X165366126Y-92784565D01*
X165362034Y-92785104D01*
X165233470Y-92838356D01*
X165123070Y-92923070D01*
X165038356Y-93033470D01*
X164985104Y-93162034D01*
X164966940Y-93300000D01*
X163900000Y-93300000D01*
X163900000Y-88200000D01*
X156204129Y-88200000D01*
X156195906Y-88199461D01*
X156078812Y-88184045D01*
X156062926Y-88179788D01*
X155957664Y-88136187D01*
X155943421Y-88127964D01*
X155853027Y-88058602D01*
X155841398Y-88046973D01*
X155772036Y-87956579D01*
X155763813Y-87942336D01*
X155720212Y-87837074D01*
X155715955Y-87821188D01*
X155700539Y-87704094D01*
X155700000Y-87695871D01*
X155700000Y-87420000D01*
X156846940Y-87420000D01*
X156865104Y-87557966D01*
X156918356Y-87686530D01*
X156920867Y-87689803D01*
X156920868Y-87689804D01*
X156935581Y-87708978D01*
X157003070Y-87796930D01*
X157113470Y-87881644D01*
X157242034Y-87934896D01*
X157246126Y-87935435D01*
X157246127Y-87935435D01*
X157375906Y-87952521D01*
X157380000Y-87953060D01*
X157384094Y-87952521D01*
X157513873Y-87935435D01*
X157513874Y-87935435D01*
X157517966Y-87934896D01*
X157646530Y-87881644D01*
X157726865Y-87820000D01*
X164224882Y-87820000D01*
X164243242Y-87935918D01*
X164296523Y-88040489D01*
X164379511Y-88123477D01*
X164484082Y-88176758D01*
X164600000Y-88195118D01*
X164715918Y-88176758D01*
X164820489Y-88123477D01*
X164903477Y-88040489D01*
X164956758Y-87935918D01*
X164975118Y-87820000D01*
X164956758Y-87704082D01*
X164903477Y-87599511D01*
X164820489Y-87516523D01*
X164715918Y-87463242D01*
X164600000Y-87444882D01*
X164484082Y-87463242D01*
X164379511Y-87516523D01*
X164296523Y-87599511D01*
X164243242Y-87704082D01*
X164224882Y-87820000D01*
X157726865Y-87820000D01*
X157756930Y-87796930D01*
X157824419Y-87708978D01*
X157839132Y-87689804D01*
X157839133Y-87689803D01*
X157841644Y-87686530D01*
X157894896Y-87557966D01*
X157913060Y-87420000D01*
X157894896Y-87282034D01*
X157841644Y-87153470D01*
X157756930Y-87043070D01*
X157725343Y-87018832D01*
X157649804Y-86960868D01*
X157649803Y-86960867D01*
X157646530Y-86958356D01*
X157517966Y-86905104D01*
X157513874Y-86904565D01*
X157513873Y-86904565D01*
X157384094Y-86887479D01*
X157380000Y-86886940D01*
X157375906Y-86887479D01*
X157246127Y-86904565D01*
X157246126Y-86904565D01*
X157242034Y-86905104D01*
X157113470Y-86958356D01*
X157110197Y-86960867D01*
X157110196Y-86960868D01*
X157034657Y-87018832D01*
X157003070Y-87043070D01*
X156918356Y-87153470D01*
X156865104Y-87282034D01*
X156846940Y-87420000D01*
X155700000Y-87420000D01*
X155700000Y-87104129D01*
X155700539Y-87095906D01*
X155715955Y-86978812D01*
X155720212Y-86962926D01*
X155763813Y-86857664D01*
X155772036Y-86843421D01*
X155841398Y-86753027D01*
X155853027Y-86741398D01*
X155943421Y-86672036D01*
X155957664Y-86663813D01*
X156062926Y-86620212D01*
X156078812Y-86615955D01*
X156195906Y-86600539D01*
X156204129Y-86600000D01*
X165300000Y-86600000D01*
X165300000Y-90200000D01*
G37*
%TD.AperFunction*%
%TD*%
%TA.AperFunction,Conductor*%
%TO.N,VDD*%
G36*
X173904094Y-77600539D02*
G01*
X174021188Y-77615955D01*
X174037074Y-77620212D01*
X174142336Y-77663813D01*
X174156579Y-77672036D01*
X174246973Y-77741398D01*
X174258602Y-77753027D01*
X174327964Y-77843421D01*
X174336187Y-77857664D01*
X174379788Y-77962926D01*
X174384045Y-77978812D01*
X174399461Y-78095906D01*
X174400000Y-78104129D01*
X174400000Y-87595871D01*
X174399461Y-87604094D01*
X174384045Y-87721188D01*
X174379788Y-87737074D01*
X174336187Y-87842336D01*
X174327964Y-87856579D01*
X174258602Y-87946973D01*
X174246973Y-87958602D01*
X174156579Y-88027964D01*
X174142336Y-88036187D01*
X174037074Y-88079788D01*
X174021188Y-88084045D01*
X173904094Y-88099461D01*
X173895871Y-88100000D01*
X165300000Y-88100000D01*
X165300000Y-86600000D01*
X172600000Y-86600000D01*
X172600000Y-80400000D01*
X142004129Y-80400000D01*
X141995906Y-80399461D01*
X141878812Y-80384045D01*
X141862926Y-80379788D01*
X141757664Y-80336187D01*
X141743421Y-80327964D01*
X141653027Y-80258602D01*
X141641398Y-80246973D01*
X141572036Y-80156579D01*
X141563813Y-80142336D01*
X141520212Y-80037074D01*
X141515955Y-80021188D01*
X141500539Y-79904094D01*
X141500000Y-79895871D01*
X141500000Y-78986097D01*
X144344302Y-78986097D01*
X144360564Y-79179760D01*
X144414133Y-79366577D01*
X144502968Y-79539430D01*
X144504880Y-79541842D01*
X144504883Y-79541847D01*
X144528249Y-79571327D01*
X144623685Y-79691737D01*
X144771686Y-79817696D01*
X144815472Y-79842167D01*
X144938644Y-79911006D01*
X144938647Y-79911007D01*
X144941334Y-79912509D01*
X145126168Y-79972565D01*
X145129219Y-79972929D01*
X145129220Y-79972929D01*
X145316090Y-79995213D01*
X145316094Y-79995213D01*
X145319146Y-79995577D01*
X145322214Y-79995341D01*
X145322218Y-79995341D01*
X145509843Y-79980904D01*
X145509847Y-79980903D01*
X145512918Y-79980667D01*
X145515886Y-79979838D01*
X145515888Y-79979838D01*
X145606511Y-79954535D01*
X145700104Y-79928403D01*
X145729687Y-79913460D01*
X145870824Y-79842167D01*
X145873574Y-79840778D01*
X145875997Y-79838885D01*
X145876000Y-79838883D01*
X145950147Y-79780952D01*
X146026720Y-79721127D01*
X146153709Y-79574008D01*
X146249704Y-79405026D01*
X146311049Y-79220617D01*
X146315835Y-79182730D01*
X146335187Y-79029547D01*
X146335187Y-79029544D01*
X146335407Y-79027804D01*
X146335795Y-79000000D01*
X146334432Y-78986097D01*
X146884302Y-78986097D01*
X146900564Y-79179760D01*
X146954133Y-79366577D01*
X147042968Y-79539430D01*
X147044880Y-79541842D01*
X147044883Y-79541847D01*
X147068249Y-79571327D01*
X147163685Y-79691737D01*
X147311686Y-79817696D01*
X147355472Y-79842167D01*
X147478644Y-79911006D01*
X147478647Y-79911007D01*
X147481334Y-79912509D01*
X147666168Y-79972565D01*
X147669219Y-79972929D01*
X147669220Y-79972929D01*
X147856090Y-79995213D01*
X147856094Y-79995213D01*
X147859146Y-79995577D01*
X147862214Y-79995341D01*
X147862218Y-79995341D01*
X148049843Y-79980904D01*
X148049847Y-79980903D01*
X148052918Y-79980667D01*
X148055886Y-79979838D01*
X148055888Y-79979838D01*
X148146511Y-79954535D01*
X148240104Y-79928403D01*
X148269687Y-79913460D01*
X148410824Y-79842167D01*
X148413574Y-79840778D01*
X148415997Y-79838885D01*
X148416000Y-79838883D01*
X148490147Y-79780952D01*
X148566720Y-79721127D01*
X148693709Y-79574008D01*
X148789704Y-79405026D01*
X148851049Y-79220617D01*
X148855835Y-79182730D01*
X148875187Y-79029547D01*
X148875187Y-79029544D01*
X148875407Y-79027804D01*
X148875795Y-79000000D01*
X148874432Y-78986097D01*
X152744302Y-78986097D01*
X152760564Y-79179760D01*
X152814133Y-79366577D01*
X152902968Y-79539430D01*
X152904880Y-79541842D01*
X152904883Y-79541847D01*
X152928249Y-79571327D01*
X153023685Y-79691737D01*
X153171686Y-79817696D01*
X153215472Y-79842167D01*
X153338644Y-79911006D01*
X153338647Y-79911007D01*
X153341334Y-79912509D01*
X153526168Y-79972565D01*
X153529219Y-79972929D01*
X153529220Y-79972929D01*
X153716090Y-79995213D01*
X153716094Y-79995213D01*
X153719146Y-79995577D01*
X153722214Y-79995341D01*
X153722218Y-79995341D01*
X153909843Y-79980904D01*
X153909847Y-79980903D01*
X153912918Y-79980667D01*
X153915886Y-79979838D01*
X153915888Y-79979838D01*
X154006511Y-79954535D01*
X154100104Y-79928403D01*
X154129687Y-79913460D01*
X154270824Y-79842167D01*
X154273574Y-79840778D01*
X154275997Y-79838885D01*
X154276000Y-79838883D01*
X154350147Y-79780952D01*
X154426720Y-79721127D01*
X154553709Y-79574008D01*
X154649704Y-79405026D01*
X154711049Y-79220617D01*
X154715835Y-79182730D01*
X154735187Y-79029547D01*
X154735187Y-79029544D01*
X154735407Y-79027804D01*
X154735795Y-79000000D01*
X154734432Y-78986097D01*
X155284302Y-78986097D01*
X155300564Y-79179760D01*
X155354133Y-79366577D01*
X155442968Y-79539430D01*
X155444880Y-79541842D01*
X155444883Y-79541847D01*
X155468249Y-79571327D01*
X155563685Y-79691737D01*
X155711686Y-79817696D01*
X155755472Y-79842167D01*
X155878644Y-79911006D01*
X155878647Y-79911007D01*
X155881334Y-79912509D01*
X156066168Y-79972565D01*
X156069219Y-79972929D01*
X156069220Y-79972929D01*
X156256090Y-79995213D01*
X156256094Y-79995213D01*
X156259146Y-79995577D01*
X156262214Y-79995341D01*
X156262218Y-79995341D01*
X156449843Y-79980904D01*
X156449847Y-79980903D01*
X156452918Y-79980667D01*
X156455886Y-79979838D01*
X156455888Y-79979838D01*
X156546511Y-79954535D01*
X156640104Y-79928403D01*
X156669687Y-79913460D01*
X156810824Y-79842167D01*
X156813574Y-79840778D01*
X156815997Y-79838885D01*
X156816000Y-79838883D01*
X156890147Y-79780952D01*
X156966720Y-79721127D01*
X157093709Y-79574008D01*
X157189704Y-79405026D01*
X157251049Y-79220617D01*
X157255835Y-79182730D01*
X157275187Y-79029547D01*
X157275187Y-79029544D01*
X157275407Y-79027804D01*
X157275795Y-79000000D01*
X157274432Y-78986097D01*
X161144302Y-78986097D01*
X161160564Y-79179760D01*
X161214133Y-79366577D01*
X161302968Y-79539430D01*
X161304880Y-79541842D01*
X161304883Y-79541847D01*
X161328249Y-79571327D01*
X161423685Y-79691737D01*
X161571686Y-79817696D01*
X161615472Y-79842167D01*
X161738644Y-79911006D01*
X161738647Y-79911007D01*
X161741334Y-79912509D01*
X161926168Y-79972565D01*
X161929219Y-79972929D01*
X161929220Y-79972929D01*
X162116090Y-79995213D01*
X162116094Y-79995213D01*
X162119146Y-79995577D01*
X162122214Y-79995341D01*
X162122218Y-79995341D01*
X162309843Y-79980904D01*
X162309847Y-79980903D01*
X162312918Y-79980667D01*
X162315886Y-79979838D01*
X162315888Y-79979838D01*
X162406511Y-79954535D01*
X162500104Y-79928403D01*
X162529687Y-79913460D01*
X162670824Y-79842167D01*
X162673574Y-79840778D01*
X162675997Y-79838885D01*
X162676000Y-79838883D01*
X162750147Y-79780952D01*
X162826720Y-79721127D01*
X162953709Y-79574008D01*
X163049704Y-79405026D01*
X163111049Y-79220617D01*
X163115835Y-79182730D01*
X163135187Y-79029547D01*
X163135187Y-79029544D01*
X163135407Y-79027804D01*
X163135795Y-79000000D01*
X163134432Y-78986097D01*
X163684302Y-78986097D01*
X163700564Y-79179760D01*
X163754133Y-79366577D01*
X163842968Y-79539430D01*
X163844880Y-79541842D01*
X163844883Y-79541847D01*
X163868249Y-79571327D01*
X163963685Y-79691737D01*
X164111686Y-79817696D01*
X164155472Y-79842167D01*
X164278644Y-79911006D01*
X164278647Y-79911007D01*
X164281334Y-79912509D01*
X164466168Y-79972565D01*
X164469219Y-79972929D01*
X164469220Y-79972929D01*
X164656090Y-79995213D01*
X164656094Y-79995213D01*
X164659146Y-79995577D01*
X164662214Y-79995341D01*
X164662218Y-79995341D01*
X164849843Y-79980904D01*
X164849847Y-79980903D01*
X164852918Y-79980667D01*
X164855886Y-79979838D01*
X164855888Y-79979838D01*
X164946511Y-79954535D01*
X165040104Y-79928403D01*
X165069687Y-79913460D01*
X165210824Y-79842167D01*
X165213574Y-79840778D01*
X165215997Y-79838885D01*
X165216000Y-79838883D01*
X165290147Y-79780952D01*
X165366720Y-79721127D01*
X165493709Y-79574008D01*
X165589704Y-79405026D01*
X165651049Y-79220617D01*
X165655835Y-79182730D01*
X165675187Y-79029547D01*
X165675187Y-79029544D01*
X165675407Y-79027804D01*
X165675795Y-79000000D01*
X165674432Y-78986097D01*
X169544302Y-78986097D01*
X169560564Y-79179760D01*
X169614133Y-79366577D01*
X169702968Y-79539430D01*
X169704880Y-79541842D01*
X169704883Y-79541847D01*
X169728249Y-79571327D01*
X169823685Y-79691737D01*
X169971686Y-79817696D01*
X170015472Y-79842167D01*
X170138644Y-79911006D01*
X170138647Y-79911007D01*
X170141334Y-79912509D01*
X170326168Y-79972565D01*
X170329219Y-79972929D01*
X170329220Y-79972929D01*
X170516090Y-79995213D01*
X170516094Y-79995213D01*
X170519146Y-79995577D01*
X170522214Y-79995341D01*
X170522218Y-79995341D01*
X170709843Y-79980904D01*
X170709847Y-79980903D01*
X170712918Y-79980667D01*
X170715886Y-79979838D01*
X170715888Y-79979838D01*
X170806511Y-79954535D01*
X170900104Y-79928403D01*
X170929687Y-79913460D01*
X171070824Y-79842167D01*
X171073574Y-79840778D01*
X171075997Y-79838885D01*
X171076000Y-79838883D01*
X171150147Y-79780953D01*
X171226720Y-79721127D01*
X171353709Y-79574008D01*
X171449704Y-79405026D01*
X171511049Y-79220617D01*
X171515835Y-79182730D01*
X171535187Y-79029547D01*
X171535187Y-79029544D01*
X171535407Y-79027804D01*
X171535795Y-79000000D01*
X171534432Y-78986097D01*
X172084302Y-78986097D01*
X172100564Y-79179760D01*
X172154133Y-79366577D01*
X172242968Y-79539430D01*
X172244880Y-79541842D01*
X172244883Y-79541847D01*
X172268249Y-79571327D01*
X172363685Y-79691737D01*
X172511686Y-79817696D01*
X172555472Y-79842167D01*
X172678644Y-79911006D01*
X172678647Y-79911007D01*
X172681334Y-79912509D01*
X172866168Y-79972565D01*
X172869219Y-79972929D01*
X172869220Y-79972929D01*
X173056090Y-79995213D01*
X173056094Y-79995213D01*
X173059146Y-79995577D01*
X173062214Y-79995341D01*
X173062218Y-79995341D01*
X173249843Y-79980904D01*
X173249847Y-79980903D01*
X173252918Y-79980667D01*
X173255886Y-79979838D01*
X173255888Y-79979838D01*
X173346511Y-79954535D01*
X173440104Y-79928403D01*
X173469687Y-79913460D01*
X173610824Y-79842167D01*
X173613574Y-79840778D01*
X173615997Y-79838885D01*
X173616000Y-79838883D01*
X173690147Y-79780953D01*
X173766720Y-79721127D01*
X173893709Y-79574008D01*
X173989704Y-79405026D01*
X174051049Y-79220617D01*
X174055835Y-79182730D01*
X174075187Y-79029547D01*
X174075187Y-79029544D01*
X174075407Y-79027804D01*
X174075795Y-79000000D01*
X174056830Y-78806582D01*
X174000658Y-78620532D01*
X173909419Y-78448935D01*
X173786587Y-78298329D01*
X173784212Y-78296364D01*
X173639219Y-78176416D01*
X173639217Y-78176415D01*
X173636841Y-78174449D01*
X173465886Y-78082013D01*
X173462944Y-78081102D01*
X173462941Y-78081101D01*
X173283178Y-78025456D01*
X173283179Y-78025456D01*
X173280232Y-78024544D01*
X173277167Y-78024222D01*
X173277163Y-78024221D01*
X173090010Y-78004550D01*
X173090006Y-78004550D01*
X173086952Y-78004229D01*
X172946110Y-78017047D01*
X172896471Y-78021564D01*
X172896469Y-78021564D01*
X172893407Y-78021843D01*
X172822889Y-78042598D01*
X172709924Y-78075845D01*
X172709921Y-78075846D01*
X172706969Y-78076715D01*
X172704239Y-78078142D01*
X172704237Y-78078143D01*
X172654530Y-78104129D01*
X172534739Y-78166754D01*
X172383279Y-78288532D01*
X172258356Y-78437409D01*
X172256871Y-78440110D01*
X172256869Y-78440113D01*
X172250524Y-78451655D01*
X172164730Y-78607715D01*
X172105966Y-78792963D01*
X172084302Y-78986097D01*
X171534432Y-78986097D01*
X171516830Y-78806582D01*
X171460658Y-78620532D01*
X171369419Y-78448935D01*
X171246587Y-78298329D01*
X171244212Y-78296364D01*
X171099219Y-78176416D01*
X171099217Y-78176415D01*
X171096841Y-78174449D01*
X170925886Y-78082013D01*
X170922944Y-78081102D01*
X170922941Y-78081101D01*
X170743178Y-78025456D01*
X170743179Y-78025456D01*
X170740232Y-78024544D01*
X170737167Y-78024222D01*
X170737163Y-78024221D01*
X170550010Y-78004550D01*
X170550006Y-78004550D01*
X170546952Y-78004229D01*
X170406110Y-78017047D01*
X170356471Y-78021564D01*
X170356469Y-78021564D01*
X170353407Y-78021843D01*
X170282889Y-78042598D01*
X170169924Y-78075845D01*
X170169921Y-78075846D01*
X170166969Y-78076715D01*
X170164239Y-78078142D01*
X170164237Y-78078143D01*
X170114530Y-78104129D01*
X169994739Y-78166754D01*
X169843279Y-78288532D01*
X169718356Y-78437409D01*
X169716871Y-78440110D01*
X169716869Y-78440113D01*
X169710524Y-78451655D01*
X169624730Y-78607715D01*
X169565966Y-78792963D01*
X169544302Y-78986097D01*
X165674432Y-78986097D01*
X165656830Y-78806582D01*
X165600658Y-78620532D01*
X165509419Y-78448935D01*
X165386587Y-78298329D01*
X165384212Y-78296364D01*
X165239219Y-78176416D01*
X165239217Y-78176415D01*
X165236841Y-78174449D01*
X165065886Y-78082013D01*
X165062944Y-78081102D01*
X165062941Y-78081101D01*
X164883178Y-78025456D01*
X164883179Y-78025456D01*
X164880232Y-78024544D01*
X164877167Y-78024222D01*
X164877163Y-78024221D01*
X164690010Y-78004550D01*
X164690006Y-78004550D01*
X164686952Y-78004229D01*
X164546110Y-78017047D01*
X164496471Y-78021564D01*
X164496469Y-78021564D01*
X164493407Y-78021843D01*
X164422889Y-78042598D01*
X164309924Y-78075845D01*
X164309921Y-78075846D01*
X164306969Y-78076715D01*
X164304239Y-78078142D01*
X164304237Y-78078143D01*
X164254530Y-78104129D01*
X164134739Y-78166754D01*
X163983279Y-78288532D01*
X163858356Y-78437409D01*
X163856871Y-78440110D01*
X163856869Y-78440113D01*
X163850524Y-78451655D01*
X163764730Y-78607715D01*
X163705966Y-78792963D01*
X163684302Y-78986097D01*
X163134432Y-78986097D01*
X163116830Y-78806582D01*
X163060658Y-78620532D01*
X162969419Y-78448935D01*
X162846587Y-78298329D01*
X162844212Y-78296364D01*
X162699219Y-78176416D01*
X162699217Y-78176415D01*
X162696841Y-78174449D01*
X162525886Y-78082013D01*
X162522944Y-78081102D01*
X162522941Y-78081101D01*
X162343178Y-78025456D01*
X162343179Y-78025456D01*
X162340232Y-78024544D01*
X162337167Y-78024222D01*
X162337163Y-78024221D01*
X162150010Y-78004550D01*
X162150006Y-78004550D01*
X162146952Y-78004229D01*
X162006110Y-78017047D01*
X161956471Y-78021564D01*
X161956469Y-78021564D01*
X161953407Y-78021843D01*
X161882889Y-78042598D01*
X161769924Y-78075845D01*
X161769921Y-78075846D01*
X161766969Y-78076715D01*
X161764239Y-78078142D01*
X161764237Y-78078143D01*
X161714530Y-78104129D01*
X161594739Y-78166754D01*
X161443279Y-78288532D01*
X161318356Y-78437409D01*
X161316871Y-78440110D01*
X161316869Y-78440113D01*
X161310524Y-78451655D01*
X161224730Y-78607715D01*
X161165966Y-78792963D01*
X161144302Y-78986097D01*
X157274432Y-78986097D01*
X157256830Y-78806582D01*
X157200658Y-78620532D01*
X157109419Y-78448935D01*
X156986587Y-78298329D01*
X156984212Y-78296364D01*
X156839219Y-78176416D01*
X156839217Y-78176415D01*
X156836841Y-78174449D01*
X156665886Y-78082013D01*
X156662944Y-78081102D01*
X156662941Y-78081101D01*
X156483178Y-78025456D01*
X156483179Y-78025456D01*
X156480232Y-78024544D01*
X156477167Y-78024222D01*
X156477163Y-78024221D01*
X156290010Y-78004550D01*
X156290006Y-78004550D01*
X156286952Y-78004229D01*
X156146110Y-78017047D01*
X156096471Y-78021564D01*
X156096469Y-78021564D01*
X156093407Y-78021843D01*
X156022889Y-78042598D01*
X155909924Y-78075845D01*
X155909921Y-78075846D01*
X155906969Y-78076715D01*
X155904239Y-78078142D01*
X155904237Y-78078143D01*
X155854530Y-78104129D01*
X155734739Y-78166754D01*
X155583279Y-78288532D01*
X155458356Y-78437409D01*
X155456871Y-78440110D01*
X155456869Y-78440113D01*
X155450524Y-78451655D01*
X155364730Y-78607715D01*
X155305966Y-78792963D01*
X155284302Y-78986097D01*
X154734432Y-78986097D01*
X154716830Y-78806582D01*
X154660658Y-78620532D01*
X154569419Y-78448935D01*
X154446587Y-78298329D01*
X154444212Y-78296364D01*
X154299219Y-78176416D01*
X154299217Y-78176415D01*
X154296841Y-78174449D01*
X154125886Y-78082013D01*
X154122944Y-78081102D01*
X154122941Y-78081101D01*
X153943178Y-78025456D01*
X153943179Y-78025456D01*
X153940232Y-78024544D01*
X153937167Y-78024222D01*
X153937163Y-78024221D01*
X153750010Y-78004550D01*
X153750006Y-78004550D01*
X153746952Y-78004229D01*
X153606110Y-78017047D01*
X153556471Y-78021564D01*
X153556469Y-78021564D01*
X153553407Y-78021843D01*
X153482889Y-78042598D01*
X153369924Y-78075845D01*
X153369921Y-78075846D01*
X153366969Y-78076715D01*
X153364239Y-78078142D01*
X153364237Y-78078143D01*
X153314530Y-78104129D01*
X153194739Y-78166754D01*
X153043279Y-78288532D01*
X152918356Y-78437409D01*
X152916871Y-78440110D01*
X152916869Y-78440113D01*
X152910524Y-78451655D01*
X152824730Y-78607715D01*
X152765966Y-78792963D01*
X152744302Y-78986097D01*
X148874432Y-78986097D01*
X148856830Y-78806582D01*
X148800658Y-78620532D01*
X148709419Y-78448935D01*
X148586587Y-78298329D01*
X148584212Y-78296364D01*
X148439219Y-78176416D01*
X148439217Y-78176415D01*
X148436841Y-78174449D01*
X148265886Y-78082013D01*
X148262944Y-78081102D01*
X148262941Y-78081101D01*
X148083178Y-78025456D01*
X148083179Y-78025456D01*
X148080232Y-78024544D01*
X148077167Y-78024222D01*
X148077163Y-78024221D01*
X147890010Y-78004550D01*
X147890006Y-78004550D01*
X147886952Y-78004229D01*
X147746110Y-78017047D01*
X147696471Y-78021564D01*
X147696469Y-78021564D01*
X147693407Y-78021843D01*
X147622889Y-78042598D01*
X147509924Y-78075845D01*
X147509921Y-78075846D01*
X147506969Y-78076715D01*
X147504239Y-78078142D01*
X147504237Y-78078143D01*
X147454530Y-78104129D01*
X147334739Y-78166754D01*
X147183279Y-78288532D01*
X147058356Y-78437409D01*
X147056871Y-78440110D01*
X147056869Y-78440113D01*
X147050524Y-78451655D01*
X146964730Y-78607715D01*
X146905966Y-78792963D01*
X146884302Y-78986097D01*
X146334432Y-78986097D01*
X146316830Y-78806582D01*
X146260658Y-78620532D01*
X146169419Y-78448935D01*
X146046587Y-78298329D01*
X146044212Y-78296364D01*
X145899219Y-78176416D01*
X145899217Y-78176415D01*
X145896841Y-78174449D01*
X145725886Y-78082013D01*
X145722944Y-78081102D01*
X145722941Y-78081101D01*
X145543178Y-78025456D01*
X145543179Y-78025456D01*
X145540232Y-78024544D01*
X145537167Y-78024222D01*
X145537163Y-78024221D01*
X145350010Y-78004550D01*
X145350006Y-78004550D01*
X145346952Y-78004229D01*
X145206110Y-78017047D01*
X145156471Y-78021564D01*
X145156469Y-78021564D01*
X145153407Y-78021843D01*
X145082889Y-78042598D01*
X144969924Y-78075845D01*
X144969921Y-78075846D01*
X144966969Y-78076715D01*
X144964239Y-78078142D01*
X144964237Y-78078143D01*
X144914530Y-78104129D01*
X144794739Y-78166754D01*
X144643279Y-78288532D01*
X144518356Y-78437409D01*
X144516871Y-78440110D01*
X144516869Y-78440113D01*
X144510524Y-78451655D01*
X144424730Y-78607715D01*
X144365966Y-78792963D01*
X144344302Y-78986097D01*
X141500000Y-78986097D01*
X141500000Y-78104129D01*
X141500539Y-78095906D01*
X141515955Y-77978812D01*
X141520212Y-77962926D01*
X141563813Y-77857664D01*
X141572036Y-77843421D01*
X141641398Y-77753027D01*
X141653027Y-77741398D01*
X141743421Y-77672036D01*
X141757664Y-77663813D01*
X141862926Y-77620212D01*
X141878812Y-77615955D01*
X141995906Y-77600539D01*
X142004129Y-77600000D01*
X173895871Y-77600000D01*
X173904094Y-77600539D01*
G37*
%TD.AperFunction*%
%TD*%
M02*
