M48
; DRILL file {KiCad (6.0.7)} date Thu Oct 13 18:06:48 2022
; FORMAT={-:-/ absolute / inch / decimal}
; #@! TF.CreationDate,2022-10-13T18:06:48+02:00
; #@! TF.GenerationSoftware,Kicad,Pcbnew,(6.0.7)
; #@! TF.FileFunction,MixedPlating,1,4
FMAT,2
INCH
; #@! TA.AperFunction,Plated,PTH,ViaDrill
T1C0.0079
; #@! TA.AperFunction,Plated,PTH,ViaDrill
T2C0.0157
; #@! TA.AperFunction,Plated,PTH,ComponentDrill
T3C0.0197
; #@! TA.AperFunction,Plated,PTH,ComponentDrill
T4C0.0453
; #@! TA.AperFunction,Plated,PTH,ComponentDrill
T5C0.0512
; #@! TA.AperFunction,Plated,PTH,ComponentDrill
T6C0.1260
%
G90
G05
T1
X5.624Y-4.4154
X5.639Y-4.1232
X5.7126Y-3.5709
X5.7126Y-3.6732
X5.7323Y-3.5709
X5.7323Y-3.6732
X5.7539Y-4.248
X5.7638Y-3.5984
X5.7638Y-3.6457
X5.7835Y-4.063
X5.7874Y-3.622
X5.811Y-3.5984
X5.811Y-3.6457
X5.8465Y-3.5512
X5.878Y-3.5
X5.9606Y-4.6575
X5.9606Y-4.6969
X5.9764Y-3.5551
X5.9764Y-3.6024
X5.9764Y-3.6496
X5.9764Y-3.6969
X5.9764Y-3.7441
X5.9764Y-3.7913
X5.9902Y-3.626
X6.0295Y-3.5866
X6.1496Y-3.5315
X6.2008Y-3.5984
X6.2087Y-3.7953
X6.2087Y-3.9409
X6.2362Y-4.0472
X6.2559Y-4.0669
X6.315Y-4.0276
X6.315Y-4.122
X6.3268Y-4.0472
X6.3465Y-4.063
X6.3819Y-4.122
X6.4508Y-4.1339
X6.4508Y-4.1732
X6.4803Y-3.4575
X6.4811Y-3.4953
X6.5197Y-4.0472
X6.5197Y-4.2618
X6.5984Y-4.2618
X6.6496Y-3.8307
X6.6772Y-4.1063
X6.6772Y-4.1929
X6.6988Y-4.2205
X6.7126Y-3.3858
X6.7224Y-3.926
X6.7224Y-4.0335
X6.7244Y-3.4984
X6.7362Y-3.6339
X6.748Y-4.1102
X6.748Y-4.1969
T2
X5.626Y-4.2972
X5.626Y-4.3504
X5.6516Y-4.1594
X5.6516Y-4.1909
X5.6673Y-3.6358
X5.6673Y-3.6673
X5.6732Y-4.2972
X5.6732Y-4.3504
X5.7087Y-3.8543
X5.7087Y-3.9134
X5.7205Y-4.2972
X5.7205Y-4.3504
X5.7402Y-3.8543
X5.7402Y-3.9134
X5.8327Y-4.189
X5.8327Y-4.2205
X5.872Y-4.4272
X5.9094Y-4.3543
X5.9094Y-4.3898
X5.9094Y-4.4272
X5.9134Y-4.1201
X5.9134Y-4.1555
X5.9134Y-4.1909
X5.9331Y-3.9921
X5.9449Y-4.4272
X5.9469Y-4.3543
X5.9469Y-4.3898
X5.9508Y-4.1201
X5.9508Y-4.1555
X5.9508Y-4.1909
X5.9685Y-3.9921
X5.997Y-3.9321
X6.0581Y-3.9331
X6.1583Y-3.4417
X6.1961Y-3.4417
X6.3906Y-3.9606
X6.4283Y-3.9606
X6.5157Y-3.6732
X6.5512Y-3.8197
X6.5512Y-3.8575
X6.5591Y-4.1713
X6.7244Y-3.5787
X6.7795Y-3.8661
X6.7795Y-3.9016
X6.815Y-3.8661
X6.815Y-3.9016
T3
X5.2992Y-3.189
X5.2992Y-4.685
X5.3269Y-3.1222
X5.3269Y-3.2558
X5.3269Y-4.6182
X5.3269Y-4.7519
X5.3937Y-3.0945
X5.3937Y-3.2835
X5.3937Y-4.5906
X5.3937Y-4.7795
X5.4605Y-3.1222
X5.4605Y-3.2558
X5.4605Y-4.6182
X5.4605Y-4.7519
X5.4882Y-3.189
X5.4882Y-4.685
X6.9528Y-3.189
X6.9528Y-4.685
X6.9804Y-3.1222
X6.9804Y-3.2558
X6.9804Y-4.6182
X6.9804Y-4.7519
X7.0472Y-3.0945
X7.0472Y-3.2835
X7.0472Y-4.5906
X7.0472Y-4.7795
X7.1141Y-3.1222
X7.1141Y-3.2558
X7.1141Y-4.6182
X7.1141Y-4.7519
X7.1417Y-3.189
X7.1417Y-4.685
T4
X5.6181Y-4.7717
X5.622Y-3.1102
X5.7181Y-4.7717
X5.722Y-3.1102
X5.8181Y-4.7717
X5.822Y-3.1102
X5.9181Y-4.7717
X5.9528Y-3.1102
X6.0181Y-4.7717
X6.0528Y-3.1102
X6.1181Y-4.7717
X6.1528Y-3.1102
X6.2835Y-3.1102
X6.3228Y-4.7717
X6.3835Y-3.1102
X6.4228Y-4.7717
X6.4835Y-3.1102
X6.5228Y-4.7717
X6.6142Y-3.1102
X6.6228Y-4.7717
X6.7142Y-3.1102
X6.7228Y-4.7717
X6.8142Y-3.1102
X6.8228Y-4.7717
T5
X5.4331Y-3.5047
X5.4331Y-3.7047
X5.4331Y-3.9047
X5.4331Y-4.1638
X5.4331Y-4.3638
T6
X5.3937Y-3.189
X5.3937Y-4.685
X7.0472Y-3.189
X7.0472Y-4.685
T0
M30
